<svg xmlns="http://www.w3.org/2000/svg" id="&#x30EC;&#x30A4;&#x30E4;&#x30FC;_1" data-name="&#x30EC;&#x30A4;&#x30E4;&#x30FC; 1" viewBox="0 0 500.8 500.8"><title>アートボード 2 のコピー</title><path d="M188.55,96.76a46.38,46.38,0,1,0-46.39-46.37A46.38,46.38,0,0,0,188.55,96.76Z"></path><path d="M347.9,238.05A10.07,10.07,0,0,0,358,228V207.05A10.07,10.07,0,0,0,347.9,197H299.44a10.09,10.09,0,0,1-8.74-5.07l-15-26.25c-12-21.95-24.45-46.93-46.92-46.93H147.41c-22.48,0-46.93,24.45-46.93,46.93V321.56a20.35,20.35,0,0,0,20.34,20.35H135l7.73,133a21.66,21.66,0,0,0,21.66,21.66h47.3a21.66,21.66,0,0,0,21.66-21.65l7.74-133,4-138.63,26.58,31.23a10,10,0,0,0,7.67,3.54Z"></path><path d="M306.68,272.82a32.11,32.11,0,1,0,32.11-32.12A32.11,32.11,0,0,0,306.68,272.82Z"></path><path d="M366.94,314.9h-56.3c-15.56,0-32.48,16.93-32.48,32.5V402a14.08,14.08,0,0,0,14.08,14.09h9.83l5.35,65.4a15,15,0,0,0,15,15h32.74a15,15,0,0,0,15-15l5.35-65.4h9.83A14.08,14.08,0,0,0,399.42,402V347.4C399.42,331.83,382.5,314.9,366.94,314.9Z"></path></svg>