<svg xmlns="http://www.w3.org/2000/svg" id="&#x30EC;&#x30A4;&#x30E4;&#x30FC;_1" data-name="&#x30EC;&#x30A4;&#x30E4;&#x30FC; 1" viewBox="0 0 500.8 500.8"><title>アートボード 2</title><path d="M410.13,274.5,400,270.11c-3.17-4-7.23-1.65-11-1.54-21.77,2.81-22.7,4-18.9,23.65,2.05,7.95-4.75,17.78,5.14,24.06.29,3.68,1.92,6.29,5.73,7.17,6.09.8,11.78-2.47,18.6,1.91,6.38,4.1,15.49,1.84,22.73-2.21,11.63-6.51,24.33-9.53,37.24-12,10.14-1.91,17.11,1.22,18.95,12.24-2.8,10.47-8.5,17.1-20.42,16.8-3.31-.09-6.93,1.38-9.95,3-25.84,13.82-52.75,14.9-80.48,7.21-2.05-2.77-5.26-2-8-2.62l.15.11-4-4.1-9.36-12a12.85,12.85,0,0,1-.57-1.95q-1.2-8.38-2.41-16.78a4.34,4.34,0,0,0-.05-2.29c1.86-7.79-1.88-14.78-3.14-22.12.08-4.42.34-8.85.17-13.26-.11-3.17-.68-6.67-5.29-5.49-11.31,2.9-22.81-2.72-34.07.91-8.88.76-17.73-6.44-26.63-.11L261,268.76l-15.69,2.38c-4.57-.79-8.65-4.28-13.68-2.5-8.94-1.52-17.56,1.26-26.34,1.93-17.19,1.3-20,5.93-13.85,22.23.93,2.45,2.24,4.74,3.37,7.11-.76,4.11-.61,7.66,3.75,10.13a47.47,47.47,0,0,0,57.55-7.76c4.3-4.29,9.2-6.58,15.43-4.66,6.61,2,8.29,7.13,8.68,13.24.28,4.32.85,8.62,1.29,12.93-9.79,9-20,17.29-33.86,19.09l-21,2.55-8.27.15c-3.41-.85-6.78-2.11-10.25-2.48-23.61-2.52-40.78-12.09-43.07-38.46a8.76,8.76,0,0,0-1-2.45l-1.35-7.51c-.18-2.72-.36-5.43-.53-8.15.55-3.69,1-7.38-1.73-10.54,1.1-7.85,0-12.73-10.25-11.22-8.72,1.28-17.58,2.24-26.7,1.05-6.58-.85-14.47-.88-17.9,7.79-3.23,8.16-7.31,16-10.21,24.27-10.36,29.62-48.68,64.28-76.27,57.33C3.08,346.6,3,330.16.73,315.43c-2.47-16.35,1.68-32.35,6.91-47.88,3.56-10.57,14.1-13.88,21.78-20.11,4.78-3.87,10-7.14,15.06-10.68a2.91,2.91,0,0,1,.3,0l3.46,0c1.14.92,2.07.72,2.81-.51l0,0c6.34-.06,12.84.87,18.6-2.92,22.5.89,22.5.89,27.54-18.57,2.48-3.28,4.36-6.75,3.69-11.07l.39.25c.77-1,1.53-2,2.29-3,.67-7,5.55-13.46,2.34-20.86,3.44-6.14,8.18-12,4.22-19.71,0,0,.24-.31.24-.31.09-.87.18-1.74.26-2.62l2.76-3.5,16.84-2.75L139,159c-.18,4.26-.38,8.51,1.64,12.48-2.49,2.51-1.66,5.76-1.92,8.76h0c-1.69.13-2.3,1.19-2.32,2.74-2.23,12.87-3.57,25.93-9.86,37.8-2.33,4.39-4.21,9.49,3.86,10.44,10.32,10.76,30.69,7.32,35-5.85,1.74-5.34,3.71-10.59,5.58-15.89,2.85-2,2.19-5.1,2.44-7.91l8.06-18.59-.12.11c2.7-.93,4.28-2.44,2.78-5.5l-.17.18c3,1.14,4.55-.82,6.12-2.78,18.24-14.58,37.08-27.58,62.35-23.71l14.07,10.37,11.53,16.16c.6,4.39.79,9.1,6.95,9.38-2.89,2-2.5,4.07-.3,6.26l.27,0c-2.09.12-1.73,1.65-1.71,3q1.15,21,2.3,41.94c.16,1.39.69,2.11,2.14,1.18l3.55-.19c3.88,1.9,7.78,3.6,11.93.65l16.58-1.39c2.18.11,4.36.34,6.54.33,5,0,12.06,7.59,14.6-.55,2.64-8.45,8-18,1.1-27.28q3.19-14.19,6.37-28.37c1.69-3.53,4.13-6.91,4.92-10.63,1.78-8.4,7.36-12.07,15-12s13.37,3.88,15.06,12.06c-7.66,19.14-10.7,39.15-11.77,59.62-.42,7.95,1.08,12.18,10,8.47a107.45,107.45,0,0,1,35.91,3c13.26,3.38,28.9.1,42.93-2.91,12.72-2.73,21.79,6.07,33.28,7.12,7.1.64,7.82,10.55,7.17,17.91-8.6,10.29-20.18,13.14-31.37,7.3-3.88-2-7.1-4.47-12.12-3.77C441.64,271.13,425.87,272.69,410.13,274.5Zm-170-36.35,5,2.21c4.87,1.55,13.13,3.4,12.07-2.86-1.47-8.64,3.42-17.18-1-25.3-1.65-9-1.27-18.75-8.6-25.9-5.86-5.74-12.26-8-19.73-3s-15.89,9.2-20.09,18c-2.86,3.15-4.52,6.73-4,11.1-4.46,7.45-9.63,14.58-10.53,23.62-1.14,3.67.7,5.19,4,5.6,1.8,1.49,3.7,1.31,5.63.3l5.07-1.07C218.9,242.57,229.47,239.83,240.13,238.15Zm-205,83.31C58.6,311.37,68,289.86,75.64,268.22c3.15-8.89-4.75-4.54-8.72-2.83-18.06.09-37.27,16.61-37.24,34C29.69,306.57,25.07,316.24,35.09,321.46Z"></path><path d="M147.9,113.59c-5.51,12.62-14.35,13.07-25,6.87l-2.37-14.68c4.55-2.73,7.46-8.1,13.51-8.4C143.82,98.34,147.18,104.83,147.9,113.59Z"></path><path d="M386.52,377c-.06,6-.14,12-.18,18,0,2.15.5,4.22-3.06,4.2-3.23,0-3.34-1.49-3.32-4,.09-10.82.16-21.65,0-32.48-.06-3.12.85-3.92,3.9-3.88,7.22.1,7.22-.07,8.71,7.1.47,2.26,1,4.51,1.55,7.11,3.32-2.6,2.8-6.18,3.21-9.23.5-3.82,1.91-5.25,6-5,6.54.39,6.56.09,6.56,6.71q0,14.24,0,28.48c0,2.5,1,5.15-3.62,5.21-4.88.07-3.85-2.82-3.86-5.48a154.67,154.67,0,0,0-.57-15.64c-2.33,4-2.37,8.47-3.32,12.71-.49,2.2-.2,4.55-3.87,4.42-3.22-.1-3.25-2-3.68-4.13-.95-4.72-2.05-9.42-3.08-14.13a3.56,3.56,0,0,0-1.72-3.88Z"></path><path d="M441.1,378.53c0-5.5.15-11-.06-16.49-.11-3,1.37-3.12,3.66-3.13s3.86.12,3.61,3.1c-.24,2.81.18,5.69-.11,8.49-.33,3.31,1.17,3.72,4,3.82,3.29.12,4-1.12,3.72-4-.23-2.31.07-4.66-.07-7-.18-2.81,0-4.54,3.8-4.49,3.63.05,3.49,1.82,3.47,4.33-.06,10.82-.12,21.65,0,32.48,0,3-1,3.53-3.73,3.56s-3.81-.79-3.62-3.64c.23-3.32-.07-6.67.09-10,.13-2.68-.11-4.25-3.59-4.24s-4.42,1-4.16,4.27-.07,6.33.1,9.49c.15,2.71-.15,4.18-3.62,4.16s-3.69-1.52-3.62-4.21C441.2,389.52,441.1,384,441.1,378.53Z"></path><path d="M372.78,399c-3.62.85-3.54-1.69-4-4.07s.14-5.22-4.17-5.25c-3.88,0-5.22,1.27-5.56,4.84-.18,1.87.51,4.56-3,4.62-3,0-4.45-.13-3.63-4,2.28-10.73,4.3-21.53,5.9-32.38.86-5.86,4.93-3.24,7.86-3.81,3.16-.62,4.25.87,4.7,3.92,1.61,10.85,3.35,21.69,5.36,32.47C376.87,398.8,375.79,399.59,372.78,399Zm-9.48-28.86c-.64,3.53-1.22,7.09-1.95,10.6-.39,1.88.43,2.46,2.06,2.25,1.25-.16,3.57.78,3.19-1.64C366,377.6,365.94,373.67,363.3,370.15Z"></path><path d="M425.56,359.22c4.87-1.44,6.12.82,6.7,5.12,1.38,10.38,3.35,20.67,5,31,.21,1.33,1.73,3.7-1.32,3.65-2.1,0-5.37,1.64-5.72-2.59-.08-1-.37-2-.39-3-.05-3.51-2.27-3.54-5-3.69-3-.16-4.28.87-4.37,3.78a25.58,25.58,0,0,1-.52,3.46c-.59,3.52-3.38,2-5.19,2-2.68,0-1.35-2-1.12-3.25,1.87-10.48,3.88-20.93,5.61-31.43C419.87,360.33,420.81,357.35,425.56,359.22Zm-1.2,10.89c-.58,3.56-1,7.15-1.8,10.66-.45,2,.47,2.42,2,2.22,1.24-.17,3.65.91,3.19-1.66C427.09,377.56,427.1,373.59,424.36,370.11Z"></path><path d="M487.33,399c-4.16,1-3.77-2.31-4.07-4.53-.39-2.83-.54-4.83-4.53-4.79s-4.73,1.46-5.1,4.82c-.19,1.65.7,4.67-3,4.64-2.83,0-4.6.1-3.76-3.9,2.33-11.07,4.23-22.23,6.15-33.38.4-2.32,1.42-2.87,3.64-2.95,8-.28,8-.36,9.23,7.38,1.54,9.53,3.09,19,4.79,28.56C491.24,397.85,491.18,399.89,487.33,399Zm-9.13-31.22c-.9,5.24-1.58,9.24-2.29,13.24-.38,2.11,1,2.05,2.38,2s3.32.48,2.79-2.07C480.25,377,480.37,372.84,478.2,367.78Z"></path><path d="M330.88,359.42c4.6-1.49,7.45-.5,8.35,4.85a21.9,21.9,0,0,0,3.31,9.14,87.38,87.38,0,0,0,3.17-9.28c1.06-4.68,3.48-6.39,8.29-4.61-1.05,3.12-2,6.32-3.18,9.38-3.5,8.74-5.83,17.65-4.75,27.17.27,2.44-.75,3.48-3.08,3-1.76-.37-5.17,1.51-4.73-2.31,1.49-13-4-24.41-7.36-36.32A3.7,3.7,0,0,1,330.88,359.42Z"></path><path d="M302.24,402c-12.74,0-23.52-10.54-23.5-23s10.93-23.12,23.58-23a23,23,0,1,1-.08,46.08Zm16.83-13c1.43.25,1.49-1,1.84-1.79a20.42,20.42,0,1,0-22.8,11.8c9.12,1.79,18.6-2.77,21.08-10.13Z"></path><path d="M386.52,377c-.13-1.24-.27-2.48-.43-3.9a3.56,3.56,0,0,1,1.72,3.88Z"></path><path d="M319.19,388.87c-4,.76-6.59-2.93-10.55-3.1-3-.13-3.14.63-3.17,2.94,0,1.89.77,4-1.07,6-2.7-3.6.17-8.05-2.16-12.06-2.46,3.77-.05,8-1.84,11.44-2.23-.71-1.43-2.29-1.46-3.42-.19-6.32-1.9-7.4-7.22-3.82-1.74,1.16-3.46,1.39-6.14,2.65,1.71-5.61,8-5.87,8.59-11.17-1.36-1.45-4.53-1.6-6.52-4.31,3.6-.69,5.64,1.7,7.91,3.17,1.24.8,2.25.87,2.95-.16s-.54-1.58-1.3-2.16c-2.4-1.83-5.79-2.31-7.85-5.67,3.89-.21,5.88,2.76,8.72,3.52,3.4-3.42,1.5-8.52,3.71-12.45,4,2.24,1.11,6.22,2.72,9.23,1.46,2.73,2.53,3.33,5.31,2.2-.05,3.17-4.29,2.44-3.88,5.71,4.05-.24,6.61-4.55,10.81-4.41-.05,2.28-1.88,2.41-3,3.13-4.19,2.6-4.34,6,.21,7.93,2.6,1.12,3.87,2.86,5.15,5Z"></path></svg>