<svg xmlns="http://www.w3.org/2000/svg" id="&#x30EC;&#x30A4;&#x30E4;&#x30FC;_1" data-name="&#x30EC;&#x30A4;&#x30E4;&#x30FC; 1" viewBox="0 0 500 500"><title>アートボード 1</title><path d="M493.26,307.22c0-.7-24.92,2.2-58,35.52A161.1,161.1,0,0,0,447.16,318c37.42-10.39,44.28-26.21,52.84-54.33-3.63,7.27-28.79,13.49-35.28,25.16-5.08,9.15-10.48,18-15.2,22.35a140.44,140.44,0,0,0,5.4-23.09c.17-1.25.31-2.49.45-3.72,12.19-6.1,40.7-26.32,42.55-64.54-5.47,8.21-25.93,7.13-41.55,51.52a222.86,222.86,0,0,0-.56-26c11.87-9.82,34.84-38.79,30.7-97.35-4.66,9.08-29,39.94-30.09,60.95a160.57,160.57,0,0,1-2.22,20.49c-.18-1.62-.38-3.23-.6-4.81a174,174,0,0,0-4.53-22.85c1.5-8.41,5.5-20.63,13.06-30.44,9.6-12.45,6.49-23.34,3.12-30.6s-1.56-23.6-1.56-23.6-22.92,23-17.08,76.28a169.62,169.62,0,0,0-7.51-19.16c-.48-6.8-1.19-14,3.58-24.19,6.22-13.22,13.23-33.46-3.63-63.8-.26,11.93-10.64,31.91-9.34,47.21a219.08,219.08,0,0,0,5,31.92,160.3,160.3,0,0,0-10.38-16.63c-.8-8.18,3-19.59,2.55-39.42C426.33,85.2,415.7,80,413.11,67.05c-9.37,25.13-4.22,54.1,3.37,71.27l-2.27-2.9c-2.6-3.3-5.06-6.43-7.22-9.47.13-18-5.85-35.56-10.22-43.34-4.67-8.3-18.94-15.31-19.2-22.31-3.5,25.83,9,43.41,20.36,56.27.05.11.1.23.16.34-20.79-19.62-44.64-7.85-44.64-7.85s14.78,13.75,27,14.78c11.68,1,17.4.11,24,3.9,2.07,2.89,4.38,5.85,6.81,9-16-8.75-39.45-.31-48.72,5.57,13.48,10.63,26.72,8,34.24,3.11,6.68-4.38,14.4-.37,19.3-2.52a187.44,187.44,0,0,1,12.15,17.5,162.48,162.48,0,0,1,10.29,21.57c-8.73-12.18-23.77-27.11-42.52-27.47.52,7.78,9.34,22.82,21.53,29.82,9.93,5.71,20.38,8,26.15,13a176.58,176.58,0,0,1,5.56,28c0,.11,0,.23,0,.34C438,197.38,407,184.72,398.59,184c0,0,13.74,10.12,14.78,23.08s13.23,20,24.38,23.61c6.44,2.09,10.72,7.22,13.13,11.43a220.73,220.73,0,0,1,0,36c-3.51-53.65-40.35-53.66-40.35-53.66s5.7,4.67,6.73,14,3.38,17.11,14.8,29.56c9,9.87,14.33,22.35,15.23,31.62a150.34,150.34,0,0,1-16.08,38.84c6.54-16.68,10.82-40.25,2.14-60.34-1.29,11.66-18.92,29-18.92,43.57,0,12.38,5.07,28.9.78,39.45-2.19,2.64-4.49,5.23-6.87,7.78,1.19-7.63.33-18.67,1.93-26.48-4.14,6.21-6.65,22.83-9.52,34.11a181.33,181.33,0,0,1-16.83,14.09c14.24-16.69,21.5-43.83,18.31-69-10.38,10-24.21,30.78-24.91,47-.55,13-6.23,25.63-10.41,33.12-1,.59-2,1.15-3,1.71q-4.63,2.54-9.49,4.77c15.5-14,19.45-39.16,19.45-50.33-17.49,12.21-36.23,40.78-38.5,57.5q-4.94,1.42-10,2.42c-13.49,2.47-28.25,2.65-40.48-3.71l-.74,1.38h0l-.72,1.38L282,419.7c14.23,7.35,30.25,6.89,44.57,4.29A124.24,124.24,0,0,0,342,419.9c6.42,10.64,23.63,20,34.68,19,11.4-1,22.82-6.57,30.43-4.15-10-16.6-27.33-21.44-38.74-17.64-10.17,3.4-17,4.57-22.33,1.36a157.14,157.14,0,0,0,20.85-9.57c.88-.49,1.74-1,2.62-1.5,13.72,8.4,31.13,6.92,42.78,3.14,12.81-4.15,17.64-17,28-22.47-26.63-6.92-41.16,2.41-47.38,8.29-4.9,4.63-11.94,8.16-18.26,7.95a184.85,184.85,0,0,0,28.81-22.07c7.41-.14,23.09,4.63,34.57-4.72-11-3.55-19.89-4.74-27.39-2.39q3.63-3.79,7-7.74c8.58.37,24.25,5.68,36.19-1,14.79-8.3,30.35-22.56,30.35-22.56s-20.24-.78-31.13,2.07C463.69,339.91,493.26,308,493.26,307.22Z"></path><path d="M6.75,307.22c0-.7,24.91,2.2,58,35.52A159.33,159.33,0,0,1,52.85,318C15.42,307.59,8.57,291.77,0,263.65c3.64,7.27,28.79,13.49,35.28,25.16,5.08,9.15,10.48,18,15.2,22.35a141.46,141.46,0,0,1-5.4-23.09q-.24-1.87-.45-3.72C32.44,278.25,3.93,258,2.08,219.81,7.54,228,28,226.94,43.64,271.33a222.91,222.91,0,0,1,.55-26C32.32,235.5,9.36,206.53,13.49,148c4.67,9.08,29,39.94,30.09,60.95a162.7,162.7,0,0,0,2.21,20.49c.19-1.62.4-3.23.61-4.81a175.65,175.65,0,0,1,4.53-22.85c-1.49-8.41-5.5-20.63-13.06-30.44-9.6-12.45-6.49-23.34-3.11-30.6s1.55-23.6,1.55-23.6,22.92,23,17.09,76.28a167.75,167.75,0,0,1,7.51-19.16c.47-6.8,1.18-14-3.59-24.19C51.1,136.82,44.09,116.58,61,86.24c.26,11.93,10.64,31.91,9.34,47.21a220.45,220.45,0,0,1-5,31.92A160.3,160.3,0,0,1,75.7,148.74c.79-8.18-3-19.59-2.55-39.42C73.67,85.2,84.3,80,86.89,67.05c9.38,25.13,4.22,54.1-3.37,71.27l2.27-2.9c2.6-3.3,5.06-6.43,7.22-9.47-.13-18,5.85-35.56,10.22-43.34,4.67-8.3,18.94-15.31,19.2-22.31,3.5,25.83-9,43.41-20.36,56.27,0,.11-.1.23-.16.34,20.79-19.62,44.64-7.85,44.64-7.85s-14.79,13.75-27,14.78c-11.67,1-17.4.11-24,3.9-2.07,2.89-4.38,5.85-6.81,9,16-8.75,39.45-.31,48.72,5.57-13.49,10.63-26.72,8-34.24,3.11-6.68-4.38-14.39-.37-19.3-2.52a187.46,187.46,0,0,0-12.14,17.5,161.24,161.24,0,0,0-10.3,21.57c8.74-12.18,23.77-27.11,42.52-27.47-.52,7.78-9.34,22.82-21.53,29.82-9.93,5.71-20.38,8-26.15,13a176.58,176.58,0,0,0-5.56,28c0,.11,0,.23,0,.34C62,197.38,93,184.72,101.42,184c0,0-13.75,10.12-14.79,23.08s-13.23,20-24.38,23.61c-6.44,2.09-10.72,7.22-13.13,11.43a218.53,218.53,0,0,0,0,36c3.5-53.65,40.34-53.66,40.34-53.66s-5.7,4.67-6.73,14S79.37,255.61,68,268.06c-9,9.87-14.33,22.35-15.23,31.62A150,150,0,0,0,68.8,338.52c-6.54-16.68-10.83-40.25-2.14-60.34,1.3,11.66,18.94,29,18.94,43.57,0,12.38-5.08,28.9-.81,39.45q3.31,4,6.88,7.78c-1.19-7.63-.32-18.67-1.92-26.48,4.13,6.21,6.64,22.83,9.51,34.11a183.86,183.86,0,0,0,16.82,14.09c-14.23-16.69-21.48-43.83-18.3-69,10.38,10,24.21,30.78,24.91,47,.55,13,6.21,25.63,10.41,33.12,1,.59,2,1.15,3,1.71,3.08,1.69,6.25,3.28,9.48,4.77-15.5-14-19.45-39.16-19.45-50.33,17.49,12.21,36.23,40.78,38.5,57.5,3.29.95,6.63,1.76,10,2.42,13.5,2.47,28.27,2.65,40.49-3.71l.73,1.38h0l.73,1.38L218,419.7c-14.23,7.35-30.25,6.89-44.57,4.29a124.24,124.24,0,0,1-15.41-4.09c-6.42,10.64-23.63,20-34.68,19-11.41-1-22.82-6.57-30.43-4.15,10-16.6,27.33-21.44,38.73-17.64,10.18,3.4,17.05,4.57,22.34,1.36a157.14,157.14,0,0,1-20.85-9.57l-2.62-1.5c-13.72,8.4-31.13,6.92-42.78,3.14-12.8-4.15-17.65-17-28-22.47,26.63-6.92,41.15,2.41,47.38,8.29,4.9,4.63,11.94,8.16,18.25,7.95a184.21,184.21,0,0,1-28.79-22.07c-7.41-.14-23.1,4.63-34.58-4.72,11-3.55,19.9-4.74,27.39-2.39-2.42-2.53-4.77-5.11-7-7.74-8.59.37-24.26,5.68-36.2-1-14.79-8.3-30.34-22.56-30.34-22.56S36.06,343,47,345.87C36.31,339.91,6.75,308,6.75,307.22Z"></path><text></text><path d="M134.71,291.51c3,10.53,5.73,14.89,12.15,19.7,7.79,5.72,17.18,8.7,28.63,8.7,24,0,39.63-12.37,39.63-31.84,0-20.62-14.89-31.84-42.15-31.84a168.4,168.4,0,0,0-22.22,1.14V233.09a120.67,120.67,0,0,0,18.33,1.37c11.68,0,22.22-2.29,27.94-6.18,8.48-5.5,12.83-14,12.83-24.28,0-17.64-12.14-27-34.59-27-12.6,0-21.76,3.89-27.72,11.45-3.2,4.12-4.58,7.33-6.64,14.89l-27.26-5c3.89-12.83,7.56-19.24,14.89-26.34,11.22-11,27.72-16.73,48.34-16.73,36.19,0,59.56,18.56,59.56,47.19,0,14-6,26.35-16,33.68-5.5,4.12-10.31,6-21.76,8.7,15.81,2.06,24.51,6,32.53,14.66,7.56,8.25,11,18.1,11,31.62,0,12.37-5,24.74-13.51,33-11.91,11.68-30.24,17.86-53.15,17.86-25.2,0-43.29-6.64-55.67-20.38-5.49-6.19-8.24-11.92-12.37-24.29Z"></path><path d="M301.71,224.84c-.23,2.29-.68,5.73-1.37,9.85C311.56,224.61,323.93,220,340.43,220c17.18,0,32.07,5.73,42.84,16.5,10.53,10.53,15.8,24.28,15.8,41.92,0,39.17-25.43,63.45-66.2,63.45-20.62,0-36.88-5.95-48.8-18.09-6.41-6.65-9.62-11.92-14.43-23.83l26.57-6c2.3,6.64,3.67,9.62,6.88,13.28,6.87,8,17.41,12.37,30,12.37,24,0,39.86-16,39.86-40.32,0-24.05-14.66-38.71-38.95-38.71a42.49,42.49,0,0,0-29.78,11.91c-3.2,3-4.35,5-6.41,9.85l-24.05-2.29c2.06-13.29,2.52-15.8,3.2-23.59l5-55a117.47,117.47,0,0,0,.92-14.21v-4.12a30.71,30.71,0,0,1-.23-5c6.87.69,11.91.92,24.28.92h52.69c14.66,0,19.7-.23,29.78-1.84v25.43a194.52,194.52,0,0,0-29.78-1.83h-53.6Z"></path></svg>