<svg id="レイヤー_1" data-name="レイヤー 1" xmlns="http://www.w3.org/2000/svg" viewBox="0 0 1000 1000"><defs><style>.cls-1{fill:#f2a0d5;}.cls-2{fill:#81a649;}</style></defs><path class="cls-1" d="M860.71,75.31c.51-.7.88-1.71,1.57-2a6.5,6.5,0,0,1,3.65-.71c.45.08,1,2.09.77,3-2.65,8.44-5,17-8.39,25.17-2.06,5-6.12,9.14-8.46,14.06-3.8,8-7,16.26-10.35,24.44-3,7.4-6.16,14.77-9,22.24-8.49,22.28-17.11,44.5-25.2,66.92-5,13.93-9.54,28.07-13.65,42.29-5.63,19.49-10.76,39.13-15.92,58.75-3.41,13-6.81,26-9.62,39.06-4,18.5-5.72,37.24-2.73,56.07.67,4.24,2.3,9,5.12,12,2.66,2.8,7.43,3.66,11.36,5.14a106.4,106.4,0,0,0,11.62,3.78C796.6,446.73,802,447,807,448.7c13.84,4.91,28.09,7.18,42.66,7.94a19.61,19.61,0,0,0,8.23-1.66c4-1.53,9-.82,13.63-.63,6.93.3,13.85,1,20.77,1.48,20.91,1.57,42,2.18,62.69,5.11a51.5,51.5,0,0,1,32.2,17.49,9.62,9.62,0,0,1,2.09,6.1c-.23,5.5,1.15,10.76.35,16.58-1.06,7.75-2.44,15-5.77,22-1.7,3.58-2.44,7.62-4.24,11.14-4.65,9.1-9.86,17.91-14.44,27Q956.28,579,948.08,597c-10,21.78-19.59,43.73-29.74,65.43-2,4.31-5.39,8.17-8.82,11.55-1.78,1.75-5,2.56-7.64,2.79-4.27.37-5.29-1.52-3.82-5.5.44-1.21.92-3.37.39-3.76a6,6,0,0,0-4.46-1.12c-2.66.69-5.14,2.1-8.34,3.5-.2-3.08-.39-5.89-.58-8.88l-2.41-.15c-3.82-.32-4.51-1.83-2.66-5.25,5.15-9.51,10.44-18.95,15.24-28.63,4.45-9,8-18.46,12.57-27.37,6.43-12.47,13.59-24.57,20.25-36.93,3-5.47,5.12-11.37,8.23-16.73,3.47-6,7.85-11.44,11.4-17.39s6.64-12.41,9.93-18.63c.2-.39.34-.94.66-1.11,3.2-1.65,6.42-3.25,10-5-.38-4.1-11.18-5-2.58-11.89-6.67-3.2-12.2-7-18.32-8.57-19.06-4.86-38.68-5.78-58.26-6.63-17.2-.75-34.41-1.57-51.59-2.61-11.2-.68-22.37-1.83-33.56-2.75-17-1.39-32.72-6.77-47.62-14.84a26,26,0,0,0-2.79-1.4c-8.07-3.14-13.15-8.66-17.31-16.58-6.87-13.09-8.4-26.3-7.49-40.74a263.4,263.4,0,0,1,8-49.05c2.51-9.74,5-19.48,7.71-29.18q9.12-33,18.45-65.87c1.86-6.52,4.12-12.94,6.38-19.35,5.11-14.51,10.21-29,15.57-43.45,3.82-10.28,8.06-20.41,12.11-30.6,4.47-11.26,8.65-22.63,16-32.5,5.06-6.77,9.8-13.78,14.34-20.91,2.66-4.16,4.64-8.75,7.35-14-4.22.83-8,1.22-11.52,2.33-11.89,3.74-23.78,7.5-35.53,11.67-18.13,6.44-36.15,13.21-54.2,19.87-2.35.87-4.62,1.95-7,2.86-4.11,1.61-8.13,4.31-12.68.95-.48-.36-1.55.07-2.7,1.16l4,2.07-62.55,30,7-6.51-.72-1c-1.74.9-3.52,1.72-5.21,2.7-4.87,2.82-9.63,5.83-14.56,8.55-12.58,6.93-25.41,13.42-37.79,20.68s-24.63,15.27-36.82,23.1c-13.22,8.49-26.42,17-39.45,25.8-8.23,5.53-16.24,11.42-24.18,17.37q-20.43,15.33-40.64,31c-3.74,2.89-7,6.42-10.67,9.39-10.73,8.64-21.66,17-32.32,25.75-4.36,3.56-8.2,7.74-12.35,11.55-18,16.52-36.48,32.56-53.94,49.63S316.71,416.77,300,434.61c-9.72,10.37-19.35,20.89-28.21,32a384.38,384.38,0,0,0-22.46,31.81c-7,10.81-13.2,22.11-19.6,33.28-2,3.49-3.53,7.27-5.28,10.91l1.19,1q8.85-5.52,17.69-11l1,.89c-1.33,1.69-2.44,3.63-4,5-7.68,6.72-15.49,13.3-23.26,19.93-5,4.22-12,4.27-18.35,1.35-5.89-2.71-10.47-6.12-10.16-13a149.15,149.15,0,0,1,2.4-21.61c1.27-6.5,3.68-12.79,5.59-19.17a4.91,4.91,0,0,1,.45-1.25c8.24-13.54,16.45-27.1,24.79-40.58,3-4.92,6.21-9.76,9.63-14.42,2.6-3.53,5.68-6.7,8.53-10.05,9.88-11.58,19.58-23.31,29.68-34.69,5.41-6.09,11.56-11.5,17.27-17.32,12.33-12.55,24.39-25.37,36.92-37.71,10.32-10.16,20.91-20.1,31.94-29.48,3.28-2.79,7-5,9.74-8.51.78-1,2.52-1.33,3.46-1.79,1.41-1.92,2.45-4,4.09-5.45,6.49-5.59,13-11.18,19.84-16.35,4.09-3.09,8.81-5.32,13.16-8.08,2.52-1.6,5.2-3,4.78-7-.09-.89,2.9-2.24,4.6-3.12,1-.51,2.49-.16,3.34-.78,11.51-8.38,23-16.77,34.38-25.35,3.93-3,7.48-6.43,11.21-9.67.56-.48,1.09-1,1.69-1.43,8.72-6.08,17.42-12.18,26.18-18.19,7.52-5.16,15.17-10.14,22.67-15.33,2.3-1.59,4-4.13,6.48-5.36,5.07-2.54,10.52-4.3,15.64-6.75,7.52-3.6,15.05-7.22,22.27-11.38,12.28-7.08,24.17-14.88,36.52-21.84,9.58-5.4,19.68-9.88,29.44-15,3.8-2,7.22-4.64,11-6.7,6.18-3.4,12.45-6.62,18.73-9.8,6.7-3.4,13.48-6.61,20.18-10,7.3-3.71,14.42-7.8,21.85-11.2,4.48-2.06,9.54-2.84,14.13-4.71,8.37-3.4,16.46-7.52,24.91-10.71,13.52-5.1,27.21-9.75,40.87-14.45,10.78-3.71,21.64-7.19,32.45-10.83,5.46-1.84,10.75-4.7,16.35-5.46,7.4-1,15-2.65,22.54.3,8.7,3.4,10.29,5.71,9.58,15-.12,1.65.84,3.38,1.3,5.07Zm-126,30.77-.33-1c-1.5,1.4-2.76,3.31-4.53,4.13-9.6,4.43-19.27,8.72-29.06,12.71-1.51.62-3.74-.53-6.09-1l-4.34,6c-1.86.27-3.7.08-5,.81-3.81,2.08-7.29,4.77-11.11,6.79-5.6,3-12.22,4.57-16.91,8.52-8.69,7.31-19.6,10-28.93,15.74-2.55,1.58-5.2,3-7.81,4.49l.63,1.23a15.87,15.87,0,0,0,2.87-.39c6.71-2.15,11.92-8,19.52-8a3.08,3.08,0,0,0,1.46-.74c4-2.8,7.61-6.16,11.88-8.32,15.8-8,31.7-15.76,47.75-23.21,8.74-4.07,17.83-7.42,26.83-10.91,2.76-1.07,5.9-1.17,8.6-2.34,7.14-3.11,14-6.92,21.24-9.76,5.79-2.26,12-3.27,18-5.24,6.13-2,12-5,18.15-6.84C810.25,85,823.17,81.62,836,78.06a4.77,4.77,0,0,0,2.07-.75,22,22,0,0,0,2.18-3c-1.14-.29-2.33-.94-3.41-.81-6,.75-11.71,1.75-17.35,4.44-5.46,2.6-11.92,3-17.73,5-14.38,4.94-28.65,10.22-42.95,15.4-6.26,2.27-12.45,4.73-18.73,6.93A29.92,29.92,0,0,1,734.7,106.08ZM568.19,185.56c3.6,2.55,5.89,1,8-.42,2.71-1.79,5.15-4,8-5.62,1.94-1.1,4.55-1,6.44-2.19,3.09-1.89,5.81-4.36,8.73-6.53,1.4-1,2.9-1.92,4.36-2.87l-.77-1.17A195.22,195.22,0,0,0,568.19,185.56Zm35.89-21.18,4.66,2.27c2.33-4.87,7-5.64,11-7.29,3.79-1.54,7.65-2.91,11.49-4.35C620.42,152.23,613.48,159.64,604.08,164.38ZM424,289.94c-5.18.77-19.51,13-19.89,17.19C410.45,301.41,419.47,298.8,424,289.94Z"/><path class="cls-2" d="M880.67,748.65c-11.85,2.3-20.8-6.24-31.43-7.41-11.28-1.24-22.4-3.9-33.61-5.83-5.1-.89-10.21-1.77-15.36-2.22q-17.14-1.5-34.33-2.54c-24.27-1.44-48.53-2.87-72.81-4-13.47-.64-27-.79-40.45-1-17.65-.28-35.31-.21-53-.62-17-.41-34.08-1.29-51.13-1.87-7.69-.26-15.4-.21-23.1-.48-23.12-.8-46.24-1.77-69.37-2.49-9.47-.29-18.94-.15-28.42-.1-1.05,0-2.09.71-3.15,1s-2.1.9-2.75.57c-6.34-3.21-13-1.4-19.51-1.4-4.26,0-8.52.12-12.78.06-10.92-.14-21.85-.12-32.75-.61-8.05-.36-16.06-1.8-24.12-2-6.16-.18-12.37.74-18.55,1.19-.88.06-1.93.55-2.62.23-8.26-3.78-17-1.65-25.47-1.88-16.61-.45-33.24-.36-49.86,0-16.33.32-32.66,1.21-49,1.84-17.81.68-35.63,1.28-53.43,2.07-6.78.3-13.53,1.38-20.31,1.52-22.27.46-44.55.67-66.83.95-7.57.1-15.14.11-22.71.17-9.21.07-15.41-8.09-12.8-16.77.38-1.25,0-2.83.6-3.89.85-1.51,2.06-3.35,3.53-3.87,9.58-3.35,19.21-6.58,29-9.41a71.58,71.58,0,0,1,14.67-2.57c15.21-1.13,30.45-1.89,45.68-2.85,19.66-1.23,39.34-2.41,59-3.8,7.63-.54,15.2-1.92,22.83-2.29,9.41-.46,18.87-.14,28.3-.41,7.07-.2,14.12-.86,21.19-1.2,4.59-.22,9.2-.37,13.8-.33,12.43.11,24.87.43,37.31.49,7.12,0,14.25-.56,21.36-.35,10.06.31,20.1,1.21,30.16,1.65,8.68.39,17.39.39,26.08.75,15.37.62,30.72,1.54,46.1,2,13.47.42,27,.21,40.44.65,11.26.36,22.51,1.17,33.76,1.92s22.28,1.67,33.43,2.49a5.23,5.23,0,0,0,2.63-.22c6.77-3.55,13.35-.44,20.06.22,8.1.8,16.28.76,24.42,1,15.26.53,30.52,1.08,45.79,1.54,5.92.18,11.86.09,17.78.27,9.42.29,18.82.82,28.24,1,7.75.16,15.52-.27,23.27,0,11.34.43,22.66,1.39,34,1.94,10.27.49,20.57.6,30.84,1.12,10.79.55,21.56,1.43,32.34,2.06s21.63.93,32.41,1.79c4.51.35,8.9,2,13.4,2.67,9.24,1.36,18.52,2.42,27.77,3.67,10.74,1.45,21.23,3.82,30.79,9.17,1.65.93,2.83,2.73,4.15,4.2.48.53.55,1.54,1.09,1.88,7.71,4.85,5,11.23,2.87,17.69-1,3.1.53,7.07-3.12,9.24C884.94,746.51,882.78,747.53,880.67,748.65Zm-174.3-51.1-.22,2.38h33.77l.07-.65Zm84.71,12.58c-2.62-2.76-5.34-4.25-9.07-.76Z"/><path class="cls-2" d="M672.18,909.54c1.17,3.05-.6,4.25-3,4.64-3.07.49-6.21.57-9.3.93-1.54.18-3.05.6-5.59,1.12,2.14.78,3.2,1.48,4.25,1.49,10,.09,20.09.6,30.07-.06,14.18-.94,28.3-2.71,42.43-4.25,3.44-.37,6.83-1.22,10.25-1.84l.19-1.74c-1.57-.36-3.17-1.12-4.71-1-13.31.92-26.6,2-39.91,3-7,.5-14.1.77-22.71,1.23,1.68-2.08,2.57-4.29,3.72-4.43,7.59-1,15.24-1.43,22.86-2.1,1.79-.15,3.56-.45,5.34-.72,5.53-.84,11.05-1.76,16.58-2.56,10.92-1.58,21.86-3.06,32.77-4.68,1.36-.2,2.63-1,4.68-1.76-11-11.69-26-19.71-28.35-38,5.83,2.14,11.19,2.12,15.75,6.14,2.94,2.6,7.81,3,11.74,4.53,6.57,2.59,13,5.43,19.64,8,9.73,3.78,17.65,10.15,25.13,17.19,1.59,1.5,2.78,2.66,1.68,5.62-1.5,4,2.58,2.89,4.93,3.4.25,3.91-.38,7.09-4.4,9.19-2.72,1.42-4.86,3.39-1.43,6.87,2.43,2.46-.21,3.65-2.33,3.88-5,.53-10.07.75-15.11,1.12-12.11.89-24.22,1.76-36.33,2.71-14.18,1.11-28.38,2.18-42.55,3.49-14.75,1.36-29.46,3.12-44.22,4.46-9.74.89-19.53,1.19-29.27,2-15.64,1.32-31.24,3.24-46.9,4.2-20.66,1.27-41.35,2.25-62,2.62-33.71.61-67.43.62-101.15.89-19.27.16-38.53.46-57.8.48-17.2,0-34.41-.51-51.6-.31-14.54.16-29.07,1.19-43.61,1.51-7.55.17-15.12-.37-22.68-.6-10.82-.33-21.7-.1-32.46-1.15-11.76-1.15-23.42-3.47-35.12-5.33-2.34-.38-4.65-1.47-7-1.41-11.82.28-19.62-7-27.57-14.15a22.89,22.89,0,0,0-2.18-2.22c-11.4-7.58-13.41-19.65-14.36-31.73-1.47-18.5,4.55-35.36,13.25-51.41,4.93-9.11,9.67-18.33,14.64-27.43,5.67-10.38,14.47-18.14,22.5-26.54a38.42,38.42,0,0,0,4.4-5c2.19-3.28,5.12-4.69,8.92-5.84,3.24-1,5.86-4.16,8.63-6.52,1.53-1.3,2.63-3.88,4.22-4.16,2.82-.49,5.89.18,8.79.69a10.26,10.26,0,0,1,4.4,1.93,3.65,3.65,0,0,1,1.23,3.1c-1.1,3.18-2.74,6.17-3.92,9.33-.36,1,.14,2.27.25,3.41a28.36,28.36,0,0,0,2.48-2.42c.33-.41.29-1.12.5-2l6.72-.78a77.43,77.43,0,0,1-1.62,9c-.67,2.2-1.61,4.68-3.24,6.14-4.72,4.26-9.94,8-14.76,12.14-1.23,1.05-1.81,2.93-2.53,4.5-1.21,2.63-1.89,5.59-3.51,7.91-5.25,7.52-11.14,14.6-16.17,22.26s-9.93,15.2-13.39,23.43-4.28,17.92-8,26.2c-3,6.76-.65,11.79,2.22,16.85,2.7,4.75,6.38,9.08,12.14,10.71.85.24,2.08.3,2.46.88,3.51,5.36,8,3.21,12.68,2.17a88,88,0,0,1,14.41-2.18c14.21-.73,28.44-1.37,42.67-1.59,15.11-.23,30.23.18,45.35.07,16-.12,32-.79,47.95-.72,14.65.07,29.3.91,44,1.21,7.81.16,15.63-.15,23.45-.17,8.6,0,17.2,0,25.8,0,18.24,0,36.48-.05,54.71-.2,8-.07,15.93-.51,23.89-.67q21.74-.45,43.45-.73c1.9,0,3.82.83,5.71.75,10.4-.43,20.81-1,31.21-1.58,2.52-.14,5-.56,7.54-.63,15.39-.4,30.78-.62,46.16-1.14C657.32,910.92,664.5,910.12,672.18,909.54Z"/><path class="cls-2" d="M346.54,860.73c1.68.84,3,1.21,3.92,2.06a3.25,3.25,0,0,1,.8,2.72,3.51,3.51,0,0,1-2.14,1.73,9.9,9.9,0,0,1-3.09.23c-3.66,0-6.88.61-7.17,5.28,0,.44-.7.85-.84,1-4.74-3.29-9.31-6.4-13.83-9.58-5.47-3.85-4.59-9.93-4.14-15,1.06-12.07,6.38-22.59,13.62-32.3,3.65-4.88,6.35-10.47,9.54-15.7a20.67,20.67,0,0,1,2.69-3.49c6.9-7.32,13.65-14.82,20.88-21.8,3-2.87,7-4.69,10.59-6.85,2-1.22,4.31-2,6.3-3.26,3.17-2,6.16-2.79,9.37-.07a4.23,4.23,0,0,0,2.86.91c2.86-.26,5.22-.35,7.61,2.18,3,3.16,4.56,6.44,4.36,10.69a22.07,22.07,0,0,0,0,4.45c1.23,7.87,0,14.61-7.2,19.53-1.67,1.15-2.15,4-3.2,6.07-.4.78-.66,1.8-1.3,2.24a71.31,71.31,0,0,1-8.5,5.36c-12.38,6.13-20.71,16.48-28.83,27.11-3.49,4.57-7.17,9-10.72,13.53A20.39,20.39,0,0,0,346.54,860.73Z"/><path class="cls-2" d="M633,855.79c-4-2.72-7.23-4.53-10-6.88-2.28-2-5.2-4.34-5.67-6.92a26.14,26.14,0,0,1,.7-13.07,75.2,75.2,0,0,1,13.64-23.07q8-9.48,15.77-19.22c2.76-3.45,5.11-7.22,7.9-10.64,2.45-3,5.81-4.24,9.59-2.91,4.41,1.54,8.73,3.35,13,5.16a3.18,3.18,0,0,1,1.83,1.84c1,5.78,6.31,7.75,9.72,11.39s2.59,6.89-2.08,9c-1.18.54-2.83,1.62-3,2.64-1,6.71-5.57,11.24-9.84,15.55-11,11.13-22.55,21.8-34.07,32.43C638.11,853.38,634.8,854.7,633,855.79Z"/><path class="cls-2" d="M493.61,843.92c-9.46,1-10.21,1.27-11.25,3.2-3.39-2.23-6.65-4.74-10.23-6.64-6.81-3.61-7.74-11.75-5.73-19,2.65-9.6,8.33-17.08,14.65-24.44s12.07-15,17.84-22.69c3.3-4.41,12.95-7.17,17.72-4.31,3.73,2.24,6.89,5.54,10.78,7.35a19.38,19.38,0,0,1,9,8.46c.62,1.1.88,3.35.22,4.07-4.68,5.05-9.63,9.85-14.5,14.72-8.27,8.27-16.6,16.5-24.82,24.83C492.88,833.88,493,834,493.61,843.92Z"/></svg>