<svg id="レイヤー_1" data-name="レイヤー 1" xmlns="http://www.w3.org/2000/svg" viewBox="0 0 828.54 1000"><defs><style>.cls-1{fill:#f2a0d5;}.cls-2{fill:#fff;}</style></defs><path class="cls-1" d="M828.54,414.66C828.54,185.87,643.06.39,414.27.39S0,185.87,0,414.66C0,577.38,93.84,718.17,230.33,785.93L414.27,1000,598.2,785.93C734.7,718.17,828.54,577.38,828.54,414.66Z"/><path class="cls-2" d="M589,150c.3-.4.51-1,.91-1.18a3.8,3.8,0,0,1,2.12-.4c.26,0,.61,1.21.45,1.72-1.54,4.89-2.92,9.85-4.87,14.58-1.19,2.9-3.54,5.3-4.9,8.15-2.2,4.62-4,9.42-6,14.16-1.77,4.29-3.57,8.56-5.22,12.89-4.93,12.91-9.92,25.79-14.61,38.78-2.91,8.07-5.53,16.26-7.91,24.5-3.26,11.3-6.23,22.67-9.22,34.05-2,7.51-4,15-5.58,22.63-2.3,10.72-3.31,21.58-1.58,32.49a13.59,13.59,0,0,0,3,7c1.54,1.62,4.31,2.12,6.58,3a58,58,0,0,0,6.73,2.19c3,.74,6.13.87,9,1.88a86.68,86.68,0,0,0,24.73,4.6,11.26,11.26,0,0,0,4.76-1c2.35-.89,5.25-.48,7.9-.37,4,.17,8,.56,12,.86,12.12.91,24.32,1.26,36.32,3a29.86,29.86,0,0,1,18.66,10.13,5.55,5.55,0,0,1,1.21,3.54c-.13,3.19.67,6.23.21,9.61a42.29,42.29,0,0,1-3.35,12.74c-1,2.08-1.41,4.42-2.45,6.46-2.7,5.27-5.72,10.38-8.37,15.67q-5.13,10.23-9.89,20.66c-5.78,12.62-11.35,25.34-17.23,37.92a24.45,24.45,0,0,1-5.11,6.69,7.59,7.59,0,0,1-4.43,1.62c-2.47.21-3.06-.88-2.21-3.19.25-.7.53-2,.23-2.18a3.5,3.5,0,0,0-2.59-.65,35.39,35.39,0,0,0-4.83,2l-.34-5.14-1.39-.09c-2.22-.19-2.62-1.06-1.55-3.05,3-5.51,6.06-11,8.83-16.58,2.59-5.22,4.62-10.7,7.29-15.87,3.73-7.22,7.87-14.23,11.73-21.39,1.71-3.17,3-6.59,4.77-9.7,2-3.47,4.55-6.63,6.6-10.07s3.85-7.2,5.76-10.8c.12-.23.2-.54.39-.64,1.85-1,3.72-1.88,5.76-2.91-.22-2.37-6.48-2.88-1.49-6.88-3.87-1.86-7.08-4.07-10.62-5-11-2.82-22.41-3.35-33.76-3.84-10-.44-19.94-.91-29.9-1.52-6.49-.39-13-1.05-19.44-1.59a69.51,69.51,0,0,1-27.6-8.6,14.26,14.26,0,0,0-1.61-.81c-4.68-1.82-7.62-5-10-9.61-4-7.58-4.87-15.24-4.34-23.6a152.22,152.22,0,0,1,4.65-28.43c1.45-5.64,2.91-11.29,4.47-16.91q5.28-19.1,10.69-38.16c1.08-3.78,2.39-7.5,3.69-11.22,3-8.41,5.92-16.82,9-25.18,2.21-6,4.67-11.82,7-17.73,2.6-6.52,5-13.11,9.29-18.83,2.93-3.92,5.69-8,8.32-12.11,1.53-2.42,2.68-5.08,4.25-8.11a65.86,65.86,0,0,0-6.67,1.35c-6.89,2.16-13.78,4.35-20.59,6.76-10.51,3.73-21,7.66-31.41,11.51-1.36.51-2.68,1.13-4,1.66-2.38.93-4.71,2.5-7.35.55-.28-.21-.9,0-1.56.68l2.32,1.19-36.24,17.38,4-3.77-.41-.6c-1,.52-2,1-3,1.56-2.83,1.64-5.58,3.38-8.44,5-7.29,4-14.72,7.78-21.9,12s-14.27,8.85-21.34,13.38c-7.66,4.92-15.3,9.87-22.85,14.95-4.77,3.21-9.41,6.62-14,10.07q-11.85,8.88-23.55,17.95c-2.17,1.67-4,3.71-6.19,5.44-6.21,5-12.55,9.87-18.73,14.92-2.52,2.06-4.75,4.48-7.15,6.69-10.44,9.57-21.14,18.87-31.26,28.76S273.73,347.84,264,358.19c-5.63,6-11.21,12.1-16.34,18.53a223.23,223.23,0,0,0-13,18.42c-4,6.27-7.65,12.82-11.36,19.29-1.16,2-2,4.21-3.05,6.33l.68.6,10.26-6.4.57.51a20.34,20.34,0,0,1-2.35,2.91c-4.45,3.9-9,7.71-13.48,11.55-2.87,2.45-7,2.48-10.63.79-3.41-1.57-6.07-3.55-5.89-7.54a84.76,84.76,0,0,1,1.4-12.52A115.31,115.31,0,0,1,204,399.55a3,3,0,0,1,.26-.73c4.78-7.84,9.54-15.7,14.37-23.51,1.76-2.85,3.6-5.66,5.58-8.36,1.5-2,3.29-3.88,4.94-5.82,5.72-6.71,11.35-13.51,17.2-20.1,3.13-3.53,6.7-6.67,10-10,7.14-7.28,14.13-14.7,21.39-21.85,6-5.89,12.12-11.65,18.51-17.08,1.9-1.62,4.08-2.88,5.64-4.94.45-.59,1.46-.77,2-1a18.74,18.74,0,0,1,2.37-3.16c3.76-3.24,7.54-6.48,11.5-9.47,2.36-1.79,5.1-3.09,7.62-4.69,1.46-.92,3-1.75,2.77-4.07,0-.52,1.68-1.3,2.67-1.82.57-.29,1.44-.09,1.93-.45,6.67-4.85,13.33-9.72,19.92-14.69,2.28-1.71,4.34-3.72,6.5-5.6.32-.28.63-.58,1-.83,5.05-3.52,10.09-7.06,15.17-10.54,4.36-3,8.79-5.87,13.13-8.88,1.34-.92,2.35-2.39,3.76-3.11,2.94-1.47,6.1-2.49,9.06-3.91,4.36-2.08,8.73-4.18,12.91-6.59,7.12-4.11,14-8.62,21.16-12.66,5.55-3.13,11.4-5.73,17.06-8.67,2.2-1.15,4.18-2.69,6.36-3.89,3.57-2,7.21-3.83,10.85-5.68,3.88-2,7.81-3.83,11.69-5.8,4.23-2.14,8.36-4.51,12.66-6.49,2.6-1.19,5.53-1.64,8.19-2.72,4.85-2,9.54-4.36,14.44-6.21,7.83-2.95,15.76-5.65,23.68-8.38,6.25-2.15,12.54-4.16,18.8-6.27,3.16-1.06,6.23-2.72,9.47-3.16,4.29-.58,8.69-1.54,13.06.17,5.05,2,6,3.31,5.56,8.69a9.51,9.51,0,0,0,.75,2.94Zm-73,17.83-.19-.57c-.87.81-1.6,1.92-2.63,2.39-5.56,2.57-11.17,5.05-16.84,7.37-.87.36-2.16-.31-3.53-.55l-2.51,3.44a9.29,9.29,0,0,0-2.92.48c-2.2,1.2-4.22,2.76-6.44,3.93-3.24,1.72-7.07,2.65-9.79,4.94-5,4.23-11.36,5.77-16.76,9.12-1.48.91-3,1.73-4.53,2.6l.37.71a9.22,9.22,0,0,0,1.66-.23c3.88-1.24,6.91-4.6,11.31-4.61a1.72,1.72,0,0,0,.85-.43c2.29-1.62,4.41-3.57,6.88-4.82,9.15-4.62,18.37-9.13,27.67-13.45,5.06-2.35,10.33-4.3,15.54-6.32,1.6-.62,3.42-.68,5-1.36,4.15-1.8,8.12-4,12.32-5.65,3.35-1.31,7-1.89,10.41-3s6.94-2.89,10.52-4c7.4-2.21,14.89-4.16,22.35-6.22.41-.12.93-.16,1.2-.44a13.1,13.1,0,0,0,1.26-1.74,5.88,5.88,0,0,0-2-.47,31.69,31.69,0,0,0-10,2.57c-3.16,1.51-6.91,1.73-10.27,2.88-8.34,2.87-16.61,5.93-24.9,8.93-3.62,1.32-7.21,2.74-10.85,4A16.88,16.88,0,0,1,515.94,167.81Zm-96.49,46.06c2.09,1.48,3.42.58,4.67-.25,1.57-1,3-2.33,4.61-3.25,1.12-.64,2.64-.6,3.73-1.27,1.79-1.09,3.37-2.53,5.06-3.78.81-.6,1.68-1.11,2.53-1.67l-.45-.67A112.77,112.77,0,0,0,419.45,213.87Zm20.8-12.28,2.7,1.32c1.35-2.82,4-3.27,6.36-4.22s4.44-1.69,6.66-2.52C449.72,194.56,445.7,198.85,440.25,201.59ZM335.89,274.36c-3,.44-11.31,7.52-11.53,10C328.05,281,333.28,279.49,335.89,274.36Z"/><path class="cls-2" d="M600.52,540.16c-6.86,1.33-12-3.62-18.21-4.29-6.54-.72-13-2.26-19.48-3.39-3-.51-5.91-1-8.89-1.28q-9.95-.87-19.9-1.47c-14.06-.83-28.12-1.67-42.19-2.33-7.81-.37-15.63-.46-23.44-.58-10.23-.16-20.46-.12-30.68-.36-9.88-.24-19.76-.75-29.63-1.08-4.46-.16-8.93-.13-13.39-.28-13.4-.46-26.8-1-40.2-1.44-5.48-.17-11-.09-16.46-.07a7.68,7.68,0,0,0-1.83.6c-.53.16-1.22.52-1.6.33-3.67-1.86-7.52-.81-11.3-.81-2.47,0-4.94.07-7.41,0-6.32-.08-12.65-.07-19-.36-4.67-.21-9.31-1-14-1.18-3.57-.1-7.17.43-10.75.69-.51,0-1.12.32-1.52.14-4.78-2.2-9.84-1-14.75-1.09-9.63-.26-19.27-.22-28.9,0-9.46.19-18.92.7-28.38,1.07-10.33.39-20.65.74-31,1.2-3.93.17-7.84.8-11.76.88-12.91.27-25.82.39-38.73.55-4.39.06-8.77.07-13.16.1A7.45,7.45,0,0,1,96.62,516c.22-.73,0-1.64.35-2.26a4.79,4.79,0,0,1,2-2.24c5.55-1.93,11.13-3.81,16.77-5.45a41.48,41.48,0,0,1,8.5-1.49c8.82-.65,17.65-1.1,26.47-1.65,11.4-.71,22.8-1.4,34.19-2.2,4.41-.31,8.8-1.11,13.22-1.33,5.46-.26,10.94-.08,16.4-.23,4.1-.12,8.19-.5,12.28-.7,2.66-.13,5.33-.22,8-.19,7.2.06,14.41.25,21.62.28,4.12,0,8.25-.32,12.37-.2,5.83.18,11.65.7,17.48,1,5,.22,10.08.22,15.11.43,8.91.36,17.81.89,26.71,1.17,7.81.25,15.63.12,23.44.37,6.53.21,13.05.69,19.56,1.12s12.91,1,19.37,1.44a3,3,0,0,0,1.53-.12c3.92-2.06,7.73-.26,11.62.12,4.69.47,9.43.44,14.15.6,8.85.31,17.69.63,26.53.9,3.44.1,6.88.05,10.31.15,5.45.17,10.91.48,16.36.59,4.5.1,9-.15,13.49,0,6.57.25,13.13.81,19.7,1.12,5.95.29,11.92.35,17.87.66,6.25.31,12.49.82,18.74,1.19s12.53.54,18.78,1c2.61.21,5.16,1.17,7.76,1.55,5.36.79,10.73,1.4,16.1,2.13,6.22.84,12.3,2.21,17.83,5.31a11,11,0,0,1,2.41,2.44c.28.31.32.89.64,1.09,4.46,2.8,2.87,6.5,1.66,10.25-.59,1.79.31,4.09-1.81,5.35C603,538.92,601.74,539.51,600.52,540.16Zm-101-29.61-.12,1.38H519l0-.38Zm49.09,7.29c-1.52-1.61-3.09-2.47-5.26-.44Z"/><path class="cls-2" d="M479.71,633.39c.68,1.76-.35,2.46-1.75,2.68-1.78.29-3.6.33-5.39.55-.89.1-1.76.34-3.24.64a10.5,10.5,0,0,0,2.47.87c5.81,0,11.64.35,17.42,0,8.22-.54,16.4-1.57,24.59-2.46,2-.22,4-.7,5.93-1.07l.12-1a10.06,10.06,0,0,0-2.73-.59c-7.72.53-15.42,1.19-23.13,1.74-4.08.29-8.17.45-13.16.72,1-1.21,1.49-2.49,2.15-2.57,4.4-.55,8.83-.83,13.25-1.21,1-.1,2.07-.27,3.1-.42,3.2-.49,6.4-1,9.61-1.49,6.32-.91,12.66-1.77,19-2.71a14.81,14.81,0,0,0,2.72-1c-6.4-6.78-15.07-11.42-16.43-22,3.38,1.24,6.48,1.23,9.12,3.56,1.71,1.51,4.53,1.72,6.8,2.62,3.81,1.51,7.57,3.15,11.39,4.63,5.63,2.19,10.23,5.89,14.56,10,.92.87,1.61,1.55,1,3.26-.87,2.34,1.5,1.68,2.86,2,.14,2.27-.22,4.11-2.55,5.33-1.58.82-2.82,2-.83,4,1.41,1.43-.12,2.11-1.35,2.24-2.91.32-5.84.44-8.76.66-7,.51-14,1-21,1.56-8.23.65-16.45,1.27-24.66,2-8.55.79-17.08,1.81-25.63,2.58-5.64.52-11.31.69-17,1.17-9.06.77-18.1,1.88-27.18,2.44-12,.73-23.95,1.3-35.94,1.52-19.54.35-39.08.35-58.61.51-11.17.09-22.33.27-33.5.28-10,0-19.94-.3-29.9-.18-8.43.09-16.85.69-25.27.87-4.38.1-8.76-.21-13.14-.34-6.27-.19-12.58-.06-18.81-.67-6.82-.67-13.57-2-20.35-3.09-1.36-.22-2.7-.85-4-.81-6.85.16-11.37-4.08-16-8.2a14,14,0,0,0-1.26-1.29c-6.61-4.39-7.77-11.39-8.33-18.38-.85-10.73,2.64-20.49,7.68-29.79,2.86-5.29,5.6-10.63,8.48-15.9,3.29-6,8.39-10.51,13.05-15.38a22.45,22.45,0,0,0,2.54-2.9,8.51,8.51,0,0,1,5.17-3.38c1.88-.57,3.4-2.41,5-3.78.89-.75,1.53-2.25,2.45-2.41a15.5,15.5,0,0,1,5.09.4,5.81,5.81,0,0,1,2.55,1.12,2.13,2.13,0,0,1,.72,1.8c-.64,1.84-1.6,3.57-2.27,5.4a5,5,0,0,0,.14,2,15.86,15.86,0,0,0,1.43-1.41c.2-.23.17-.64.29-1.18l3.9-.45a44.66,44.66,0,0,1-.94,5.23,7.89,7.89,0,0,1-1.88,3.56c-2.73,2.47-5.76,4.62-8.55,7a7.59,7.59,0,0,0-1.47,2.62c-.7,1.51-1.09,3.23-2,4.57-3,4.36-6.46,8.47-9.37,12.91a86.25,86.25,0,0,0-7.76,13.57c-2,4.85-2.48,10.39-4.61,15.18-1.75,3.92-.38,6.84,1.29,9.77,1.56,2.75,3.69,5.26,7,6.2.49.14,1.2.18,1.43.51,2,3.11,4.66,1.86,7.34,1.26a51.5,51.5,0,0,1,8.35-1.26c8.24-.43,16.48-.79,24.73-.92,8.75-.14,17.52.1,26.27,0,9.27-.07,18.53-.46,27.79-.42,8.49,0,17,.53,25.47.7,4.53.09,9.06-.08,13.59-.1,5,0,10,0,15,0,10.56,0,21.13,0,31.7-.12,4.61,0,9.23-.29,13.84-.38q12.58-.27,25.18-.43c1.1,0,2.21.48,3.3.44,6-.25,12.06-.59,18.09-.92,1.46-.08,2.91-.32,4.37-.36,8.91-.23,17.83-.36,26.75-.66C471.1,634.18,475.26,633.73,479.71,633.39Z"/><path class="cls-2" d="M291,605.1a10.46,10.46,0,0,1,2.28,1.2,1.86,1.86,0,0,1,.46,1.57,2,2,0,0,1-1.24,1,5.9,5.9,0,0,1-1.79.13c-2.12,0-4,.35-4.16,3.06,0,.26-.4.49-.48.58-2.75-1.9-5.4-3.71-8-5.55-3.16-2.23-2.66-5.75-2.39-8.72.61-7,3.69-13.09,7.89-18.71,2.11-2.83,3.67-6.07,5.52-9.1a12.74,12.74,0,0,1,1.56-2c4-4.24,7.91-8.58,12.1-12.63,1.72-1.66,4-2.71,6.14-4,1.17-.7,2.5-1.16,3.65-1.89,1.84-1.16,3.57-1.61,5.43,0a2.43,2.43,0,0,0,1.66.53c1.65-.15,3-.2,4.4,1.27a8,8,0,0,1,2.53,6.19,13.09,13.09,0,0,0,0,2.58c.72,4.56,0,8.46-4.16,11.31-1,.67-1.25,2.33-1.86,3.52-.23.45-.38,1.05-.76,1.3a39.45,39.45,0,0,1-4.92,3.1c-7.17,3.56-12,9.56-16.7,15.72-2,2.65-4.16,5.21-6.21,7.84A11.72,11.72,0,0,0,291,605.1Z"/><path class="cls-2" d="M457,602.24a65.75,65.75,0,0,1-5.77-4c-1.32-1.13-3-2.51-3.29-4a15.14,15.14,0,0,1,.41-7.57,43.53,43.53,0,0,1,7.9-13.36c3.11-3.67,6.14-7.39,9.14-11.15,1.6-2,3-4.18,4.58-6.16a4.78,4.78,0,0,1,5.55-1.69c2.56.9,5.06,1.94,7.56,3a1.88,1.88,0,0,1,1.06,1.07c.57,3.35,3.66,4.49,5.63,6.6s1.5,4-1.2,5.24c-.69.31-1.64.94-1.73,1.53-.56,3.89-3.23,6.51-5.7,9-6.39,6.45-13.07,12.63-19.74,18.79A22.57,22.57,0,0,1,457,602.24Z"/><path class="cls-2" d="M376.24,595.36c-5.49.6-5.92.74-6.52,1.86-2-1.29-3.86-2.75-5.93-3.85-3.94-2.09-4.49-6.81-3.32-11,1.53-5.56,4.83-9.9,8.49-14.16s7-8.69,10.33-13.15c1.92-2.56,7.51-4.16,10.27-2.5,2.16,1.3,4,3.21,6.25,4.26a11.33,11.33,0,0,1,5.19,4.9,2.68,2.68,0,0,1,.13,2.36c-2.71,2.93-5.58,5.71-8.4,8.53-4.8,4.79-9.62,9.56-14.38,14.39C375.81,589.54,375.86,589.59,376.24,595.36Z"/></svg>