<svg id="レイヤー_1" data-name="レイヤー 1" xmlns="http://www.w3.org/2000/svg" viewBox="0 0 1452.14 400.05"><defs><style>.cls-1{fill:#f2a0d5;}.cls-2{fill:#81a649;}.cls-3{fill:#343434;}</style></defs><path class="cls-1" d="M312.63,35.49c.18-.24.31-.59.55-.7a2.25,2.25,0,0,1,1.26-.24c.15,0,.36.72.26,1-.91,2.91-1.74,5.87-2.89,8.69-.71,1.72-2.11,3.15-2.92,4.85-1.31,2.75-2.41,5.61-3.57,8.44-1.06,2.55-2.13,5.09-3.11,7.67-2.93,7.69-5.91,15.36-8.7,23.1-1.74,4.8-3.29,9.68-4.71,14.59-1.95,6.73-3.72,13.5-5.5,20.28-1.17,4.47-2.34,8.95-3.32,13.48A52.51,52.51,0,0,0,279,156a8,8,0,0,0,1.77,4.14c.92,1,2.56,1.26,3.92,1.77a36.09,36.09,0,0,0,4,1.31,52.31,52.31,0,0,1,5.35,1.12,52.1,52.1,0,0,0,14.72,2.74,6.79,6.79,0,0,0,2.84-.58c1.4-.53,3.13-.28,4.71-.21,2.39.1,4.78.32,7.17.5,7.21.55,14.48.76,21.63,1.77a17.74,17.74,0,0,1,11.11,6,3.26,3.26,0,0,1,.72,2.1c-.07,1.9.4,3.71.13,5.72a25.18,25.18,0,0,1-2,7.59c-.58,1.24-.84,2.64-1.46,3.85-1.6,3.14-3.4,6.18-5,9.33q-3.06,6.1-5.89,12.31c-3.44,7.52-6.76,15.09-10.26,22.58a14.71,14.71,0,0,1-3,4,4.53,4.53,0,0,1-2.64,1c-1.47.13-1.82-.53-1.31-1.9.15-.42.31-1.16.13-1.3a2.1,2.1,0,0,0-1.54-.38,21.17,21.17,0,0,0-2.87,1.2l-.21-3.06-.83-.05c-1.32-.11-1.56-.63-.92-1.81,1.78-3.29,3.61-6.54,5.26-9.88,1.54-3.11,2.75-6.38,4.34-9.45,2.22-4.3,4.69-8.48,7-12.74,1-1.89,1.77-3.93,2.84-5.78,1.2-2.06,2.71-4,3.93-6s2.3-4.28,3.43-6.43c.07-.13.12-.32.23-.38,1.1-.57,2.22-1.12,3.43-1.73-.13-1.42-3.86-1.72-.89-4.1-2.3-1.11-4.21-2.43-6.32-3-6.58-1.68-13.35-2-20.11-2.29-5.93-.26-11.87-.54-17.8-.9-3.87-.24-7.72-.63-11.58-1A41.46,41.46,0,0,1,276.6,167a8.67,8.67,0,0,0-1-.49,11.14,11.14,0,0,1-6-5.72c-2.37-4.52-2.9-9.08-2.58-14.06a91.17,91.17,0,0,1,2.77-16.93c.87-3.36,1.74-6.72,2.66-10.07q3.15-11.37,6.37-22.73c.64-2.25,1.42-4.47,2.2-6.68,1.77-5,3.52-10,5.37-15,1.32-3.55,2.79-7.05,4.18-10.57,1.55-3.88,3-7.8,5.54-11.21,1.74-2.34,3.38-4.76,4.95-7.22.91-1.43,1.6-3,2.53-4.82a38.08,38.08,0,0,0-4,.8c-4.11,1.29-8.21,2.59-12.26,4-6.26,2.22-12.48,4.56-18.71,6.85-.81.3-1.6.68-2.4,1-1.42.56-2.81,1.49-4.38.33-.17-.13-.53,0-.93.4l1.38.71L240.8,66l2.39-2.25-.24-.35c-.6.31-1.22.59-1.8.93-1.68,1-3.33,2-5,3-4.34,2.39-8.76,4.63-13,7.14s-8.5,5.27-12.71,8c-4.56,2.93-9.11,5.88-13.61,8.9-2.84,1.91-5.6,3.94-8.34,6q-7.06,5.28-14,10.69c-1.29,1-2.41,2.21-3.68,3.24-3.71,3-7.48,5.88-11.16,8.88-1.5,1.23-2.83,2.68-4.26,4-6.22,5.7-12.59,11.24-18.62,17.13s-11.78,12.1-17.56,18.26c-3.36,3.58-6.68,7.21-9.74,11a133.93,133.93,0,0,0-7.75,11c-2.4,3.73-4.55,7.63-6.76,11.48-.69,1.21-1.22,2.51-1.82,3.77l.41.36,6.1-3.81.34.3a11.92,11.92,0,0,1-1.39,1.74c-2.65,2.32-5.35,4.59-8,6.87a5.84,5.84,0,0,1-6.33.47c-2-.93-3.62-2.11-3.51-4.49a50.53,50.53,0,0,1,.83-7.46c.44-2.24,1.27-4.41,1.93-6.61a1.46,1.46,0,0,1,.15-.43c2.85-4.68,5.68-9.36,8.56-14,1.05-1.7,2.14-3.37,3.32-5,.9-1.22,2-2.32,3-3.47,3.4-4,6.75-8.05,10.24-12,1.87-2.1,4-4,6-6,4.25-4.34,8.42-8.76,12.74-13,3.56-3.51,7.22-6.94,11-10.17a20.36,20.36,0,0,0,3.36-2.94c.27-.35.87-.46,1.2-.62a11.11,11.11,0,0,1,1.41-1.88c2.24-1.93,4.49-3.86,6.85-5.64,1.41-1.07,3-1.84,4.54-2.79.87-.55,1.79-1,1.65-2.43,0-.3,1-.77,1.59-1.08.34-.17.86,0,1.15-.26,4-2.9,7.94-5.79,11.86-8.75,1.36-1,2.59-2.22,3.87-3.34a6.66,6.66,0,0,1,.59-.49c3-2.1,6-4.21,9-6.28,2.6-1.78,5.24-3.5,7.83-5.29a21.23,21.23,0,0,1,2.23-1.85c1.75-.88,3.63-1.49,5.4-2.33,2.59-1.24,5.2-2.49,7.69-3.93,4.24-2.44,8.34-5.13,12.6-7.54,3.31-1.86,6.79-3.41,10.16-5.16,1.31-.68,2.49-1.6,3.79-2.32,2.13-1.17,4.29-2.28,6.46-3.38s4.65-2.28,7-3.45c2.52-1.28,5-2.69,7.55-3.87,1.54-.71,3.29-1,4.87-1.62,2.89-1.18,5.68-2.6,8.6-3.7,4.66-1.76,9.39-3.36,14.11-5,3.72-1.28,7.46-2.48,11.19-3.73,1.89-.64,3.71-1.63,5.64-1.89,2.56-.34,5.18-.91,7.78.11,3,1.17,3.56,2,3.31,5.17a5.72,5.72,0,0,0,.45,1.75ZM269.15,46.11l-.12-.34a6.93,6.93,0,0,1-1.56,1.42c-3.31,1.53-6.65,3-10,4.39-.52.21-1.29-.18-2.1-.33l-1.5,2.06a5.33,5.33,0,0,0-1.74.28c-1.31.72-2.51,1.64-3.83,2.34-1.93,1-4.22,1.58-5.84,2.94-3,2.52-6.76,3.44-10,5.43-.88.55-1.79,1-2.69,1.55l.21.43a6.51,6.51,0,0,0,1-.14c2.31-.74,4.11-2.74,6.73-2.75a1.06,1.06,0,0,0,.51-.25,32.5,32.5,0,0,1,4.1-2.87q8.17-4.14,16.47-8c3-1.41,6.16-2.56,9.26-3.77.95-.37,2-.4,3-.81,2.47-1.07,4.83-2.39,7.33-3.36,2-.78,4.16-1.13,6.2-1.81s4.14-1.72,6.27-2.36c4.41-1.32,8.87-2.48,13.31-3.71a1.67,1.67,0,0,0,.71-.26,7.93,7.93,0,0,0,.76-1,3.81,3.81,0,0,0-1.18-.28,19.23,19.23,0,0,0-6,1.53c-1.88.9-4.11,1-6.12,1.72-5,1.71-9.89,3.53-14.82,5.32-2.16.78-4.3,1.63-6.47,2.39A9.49,9.49,0,0,1,269.15,46.11ZM211.68,73.54a2.08,2.08,0,0,0,2.78-.15c.94-.61,1.78-1.38,2.75-1.93.67-.38,1.57-.36,2.22-.76,1.07-.65,2-1.51,3-2.25.48-.36,1-.66,1.51-1l-.27-.41A67.64,67.64,0,0,0,211.68,73.54Zm12.39-7.31,1.61.78c.8-1.68,2.4-1.94,3.79-2.51s2.64-1,4-1.5C229.71,62,227.31,64.59,224.07,66.23Zm-62.16,43.34c-1.79.26-6.73,4.48-6.86,5.93C157.24,113.52,160.36,112.62,161.91,109.57Z"/><path class="cls-2" d="M319.53,267.87c-4.09.8-7.18-2.15-10.85-2.55-3.9-.43-7.73-1.35-11.6-2-1.76-.3-3.53-.61-5.3-.76q-5.92-.53-11.85-.88c-8.38-.49-16.75-1-25.13-1.39-4.65-.22-9.31-.27-14-.34-6.09-.1-12.18-.07-18.27-.22-5.89-.14-11.77-.44-17.65-.64-2.66-.09-5.32-.07-8-.17-8-.27-16-.61-23.95-.85-3.26-.11-6.53-.06-9.8,0a4.6,4.6,0,0,0-1.09.35c-.32.1-.72.32-1,.2-2.19-1.11-4.48-.48-6.73-.48-1.47,0-2.94,0-4.41,0-3.77-.05-7.54,0-11.31-.21-2.78-.13-5.54-.62-8.32-.7a62.47,62.47,0,0,0-6.4.4c-.31,0-.67.2-.91.09-2.85-1.31-5.86-.57-8.79-.65-5.73-.16-11.47-.13-17.2,0s-11.28.42-16.91.64c-6.15.23-12.3.44-18.44.71-2.34.11-4.67.48-7,.53-7.69.16-15.38.23-23.06.32-2.62,0-5.23,0-7.84.06a4.43,4.43,0,0,1-4.42-5.78c.13-.44,0-1,.21-1.35a2.87,2.87,0,0,1,1.21-1.33c3.31-1.16,6.63-2.27,10-3.25a24.72,24.72,0,0,1,5.06-.89c5.25-.39,10.51-.65,15.76-1,6.79-.42,13.58-.83,20.36-1.31,2.63-.19,5.25-.66,7.88-.79,3.25-.16,6.51-.05,9.77-.14,2.44-.07,4.87-.3,7.31-.42,1.59-.08,3.18-.13,4.76-.11,4.3,0,8.59.15,12.88.17,2.46,0,4.92-.2,7.37-.12,3.47.1,6.94.41,10.41.57,3,.13,6,.13,9,.25,5.3.22,10.61.54,15.91.7,4.65.15,9.31.08,14,.22,3.88.13,7.77.41,11.65.67s7.69.58,11.54.86a1.79,1.79,0,0,0,.9-.08c2.34-1.22,4.61-.15,6.93.08,2.79.27,5.62.26,8.43.36,5.26.18,10.53.37,15.8.53,2,.06,4.09,0,6.13.09,3.25.1,6.5.29,9.75.35,2.68.06,5.36-.09,8,0,3.92.15,7.82.48,11.73.67,3.55.17,7.1.21,10.65.39,3.72.19,7.44.49,11.16.71s7.47.32,11.19.62c1.55.12,3.07.69,4.62.92,3.19.47,6.39.84,9.59,1.27A29.53,29.53,0,0,1,320,255.32a6.36,6.36,0,0,1,1.43,1.45c.17.19.19.53.38.65,2.66,1.67,1.71,3.88,1,6.11-.35,1.07.18,2.44-1.08,3.19C321,267.14,320.25,267.49,319.53,267.87Zm-60.16-17.63-.07.82H271l0-.22Zm29.24,4.34c-.91-1-1.85-1.47-3.14-.26Z"/><path class="cls-2" d="M247.57,323.4c.4,1.05-.21,1.47-1,1.6-1.06.17-2.14.2-3.21.32-.53.06-1,.21-1.93.39a5.79,5.79,0,0,0,1.47.51c3.46,0,6.93.21,10.38,0,4.89-.32,9.76-.93,14.64-1.46,1.19-.13,2.36-.42,3.53-.64l.07-.6a6,6,0,0,0-1.63-.35c-4.59.32-9.18.71-13.77,1-2.43.17-4.86.27-7.84.43.58-.72.89-1.49,1.29-1.54,2.62-.32,5.26-.49,7.89-.72.61-.05,1.23-.15,1.84-.25,1.91-.29,3.81-.6,5.72-.88,3.77-.54,7.55-1.06,11.31-1.62a8.63,8.63,0,0,0,1.62-.6c-3.81-4-9-6.8-9.79-13.13,2,.73,3.86.73,5.44,2.12,1,.89,2.69,1,4.05,1.56,2.27.89,4.5,1.87,6.78,2.75a27.23,27.23,0,0,1,8.67,5.94,1.5,1.5,0,0,1,.58,1.94c-.52,1.39.89,1,1.7,1.17a2.86,2.86,0,0,1-1.52,3.17c-.93.49-1.67,1.17-.49,2.37.84.85-.07,1.26-.81,1.34-1.73.19-3.47.26-5.21.39-4.18.31-8.36.6-12.54.93-4.89.39-9.79.76-14.68,1.21-5.09.47-10.17,1.08-15.26,1.54-3.36.3-6.74.41-10.1.69-5.4.46-10.79,1.12-16.19,1.46-7.13.43-14.27.77-21.41.9-11.64.21-23.27.21-34.91.31-6.65.05-13.3.15-19.95.16-5.94,0-11.87-.18-17.81-.11-5,.06-10,.41-15,.53-2.6.05-5.22-.13-7.82-.21-3.74-.11-7.49,0-11.21-.4-4.06-.4-8.08-1.2-12.12-1.84a14.61,14.61,0,0,0-2.4-.49c-4.08.1-6.77-2.42-9.51-4.88a6.82,6.82,0,0,0-.76-.76c-3.93-2.62-4.62-6.79-5-10.95-.51-6.39,1.57-12.21,4.57-17.75,1.7-3.14,3.34-6.33,5.05-9.46,2-3.59,5-6.27,7.77-9.16a14.59,14.59,0,0,0,1.52-1.73,5,5,0,0,1,3.08-2c1.11-.34,2-1.44,3-2.25.53-.45.91-1.34,1.46-1.44a9,9,0,0,1,3,.24,3.47,3.47,0,0,1,1.52.66,1.28,1.28,0,0,1,.43,1.07c-.38,1.1-1,2.13-1.36,3.23a3,3,0,0,0,.09,1.17,9.53,9.53,0,0,0,.85-.83c.12-.14.11-.39.18-.71l2.32-.27a27.59,27.59,0,0,1-.56,3.12,4.76,4.76,0,0,1-1.12,2.12c-1.63,1.47-3.43,2.75-5.09,4.19a4.36,4.36,0,0,0-.88,1.55,17.25,17.25,0,0,1-1.21,2.73c-1.81,2.6-3.84,5-5.58,7.68A52.4,52.4,0,0,0,75.06,307c-1.21,2.89-1.48,6.18-2.75,9-1,2.33-.22,4.07.77,5.82a7.16,7.16,0,0,0,4.19,3.69c.29.09.72.1.85.3,1.21,1.85,2.78,1.11,4.37.76a30.12,30.12,0,0,1,5-.76c4.9-.25,9.81-.47,14.72-.55,5.22-.08,10.44.07,15.65,0,5.52,0,11-.28,16.55-.25,5.06,0,10.12.31,15.17.42,2.7.05,5.4,0,8.1-.06,3,0,5.93,0,8.9,0,6.3,0,12.59,0,18.88-.07,2.75,0,5.5-.18,8.25-.23q7.5-.15,15-.25c.66,0,1.32.28,2,.26,3.59-.15,7.18-.35,10.77-.55.87-.05,1.74-.19,2.61-.22,5.31-.13,10.62-.21,15.93-.39C242.44,323.87,244.92,323.6,247.57,323.4Z"/><path class="cls-2" d="M135.19,306.55a6.11,6.11,0,0,1,1.35.71,1.13,1.13,0,0,1,.27.94,1.18,1.18,0,0,1-.73.6,3.17,3.17,0,0,1-1.07.08c-1.26,0-2.37.21-2.48,1.82,0,.16-.24.3-.28.35-1.64-1.13-3.22-2.21-4.78-3.31-1.88-1.32-1.58-3.42-1.43-5.19a21.84,21.84,0,0,1,4.71-11.15c1.25-1.68,2.19-3.61,3.29-5.41a7.21,7.21,0,0,1,.93-1.21c2.38-2.53,4.7-5.11,7.2-7.52a19.8,19.8,0,0,1,3.66-2.37c.69-.42,1.48-.69,2.17-1.12,1.1-.69,2.13-1,3.23,0a1.49,1.49,0,0,0,1,.32,2.76,2.76,0,0,1,2.63.75,4.8,4.8,0,0,1,1.5,3.69,7.92,7.92,0,0,0,0,1.54c.42,2.71,0,5-2.49,6.74-.57.39-.74,1.38-1.1,2.09-.14.27-.23.62-.45.77a23.64,23.64,0,0,1-2.93,1.85c-4.28,2.12-7.15,5.69-9.95,9.36-1.21,1.58-2.48,3.11-3.7,4.67A6.44,6.44,0,0,0,135.19,306.55Z"/><path class="cls-2" d="M234,304.85a39.76,39.76,0,0,1-3.44-2.38c-.78-.67-1.79-1.49-2-2.38a9,9,0,0,1,.25-4.51,26,26,0,0,1,4.7-8q2.78-3.28,5.45-6.64c1-1.19,1.76-2.49,2.72-3.67a2.87,2.87,0,0,1,3.31-1c1.52.54,3,1.16,4.5,1.78a1.13,1.13,0,0,1,.63.64c.34,2,2.18,2.68,3.36,3.93s.89,2.38-.72,3.12c-.41.19-1,.56-1,.91-.33,2.32-1.92,3.88-3.39,5.37-3.81,3.84-7.79,7.52-11.76,11.19A13.88,13.88,0,0,1,234,304.85Z"/><path class="cls-2" d="M185.94,300.75c-3.26.36-3.52.44-3.88,1.11-1.17-.77-2.29-1.64-3.53-2.29-2.35-1.25-2.67-4.06-2-6.57.92-3.31,2.88-5.89,5.06-8.43s4.16-5.18,6.15-7.83c1.14-1.53,4.47-2.48,6.12-1.49,1.29.77,2.38,1.91,3.72,2.54a6.69,6.69,0,0,1,3.09,2.92,1.56,1.56,0,0,1,.08,1.4c-1.61,1.74-3.32,3.4-5,5.08-2.86,2.85-5.73,5.69-8.57,8.57C185.69,297.29,185.72,297.31,185.94,300.75Z"/><path class="cls-3" d="M463.65,199.69l-3.56-1.78a8,8,0,0,1-1.77-6.22l1.77-3.91a50.72,50.72,0,0,1,13.51-4.62l.35-2q-7.11-9.4-14.75-18.48t-15.28-18.3h-4.26q-9.78,2-19.82,3.64t-20,3.82a10.14,10.14,0,0,1-5-1.95,8.51,8.51,0,0,1-1.78-6.4l1.78-3.55a108.53,108.53,0,0,1,19.28-5.07q10-1.68,20.7-3.11v-1.24a60.16,60.16,0,0,0-5.69-10.49,30.32,30.32,0,0,1-4.62-10.66l2-3.55a8,8,0,0,1,6.22-1.78l3.73,2a49,49,0,0,1,7.11,11q2.83,6,6.39,12.09h4.09q8.35-1.06,16.35-2.67a148.36,148.36,0,0,1,16.7-2.31l3.56,1.78a8,8,0,0,1,1.6,6.4l-1.6,3.55a59.47,59.47,0,0,1-14.75,3.55q-7.83.9-15.64,2.49v1.25q6.23,6.75,12,14.12t12,13.95l3.55,4.62,1.43,2.31h.53v.71h.71v.71l1.95.89a8,8,0,0,1,1.78,6.22l-1.78,3.91a111.08,111.08,0,0,1-13.86,5.6A86.19,86.19,0,0,1,463.65,199.69ZM444.1,239.31a149,149,0,0,1-18.93-4.08A41.6,41.6,0,0,1,408.56,226a18.71,18.71,0,0,1-5-11.73l1.78-3.56a8.32,8.32,0,0,1,6.58-1.6l3.55,1.78,4.09,5.51,4.44,3.55a125.77,125.77,0,0,0,12,3.82,49.47,49.47,0,0,0,12.89,1.69,107.25,107.25,0,0,0,13.24-2.22q6.48-1.5,12.17-3.29l3.55,1.78a8.9,8.9,0,0,1,1.78,7.29l-1.78,3.73a45.47,45.47,0,0,1-16.17,4.88Q453,238.6,444.1,239.31Z"/><path class="cls-3" d="M580.43,240.56a14.55,14.55,0,0,1-10.3-6.22,36.63,36.63,0,0,1-7.47-15.82l1.78-3.73a8.44,8.44,0,0,1,6.22-1.6l3.91,1.78,6.4,10.84h1.42l.89-1.6a29.6,29.6,0,0,0,6-8.89q2.31-5.15,4.8-9.77,2.29-8.18,4.35-16.26a52.94,52.94,0,0,0,1.33-17.15,32.2,32.2,0,0,0-5.86-11.73,34.84,34.84,0,0,0-11.2-6.57,46.9,46.9,0,0,0-13.32-2.49,254.66,254.66,0,0,1-8.62,36.07q-5.61,17.6-12.71,34.66a9,9,0,0,1-6.75,1.95l-3.73-1.78a7.67,7.67,0,0,1-1.78-6.22q5.68-15.27,11-30.92a219.82,219.82,0,0,0,8.35-32.87h-2a43.91,43.91,0,0,0-15.63,5.86,86.07,86.07,0,0,1-14.93,7.29l-3.56-1.78a8,8,0,0,1-1.77-6.22l1.95-3.73a57.48,57.48,0,0,1,18.4-11.2,89.24,89.24,0,0,1,21.23-5q1.77-7.63,2.75-14.66a62.72,62.72,0,0,1,3.47-13.6,8.7,8.7,0,0,1,6.4-1.59l3.73,1.77c1.42,1.54,2,3.68,1.78,6.4a90.65,90.65,0,0,0-2,10.48q-.71,5.52-1.78,11.55a75.21,75.21,0,0,1,17.77,4.45A38.1,38.1,0,0,1,605.84,153a32.61,32.61,0,0,1,7,14.48,59.45,59.45,0,0,1,1,17A150.81,150.81,0,0,1,607,210a98.87,98.87,0,0,1-12.35,23.46l-2.13,2.31A17.18,17.18,0,0,1,580.43,240.56ZM652.76,172a26.4,26.4,0,0,1-6.93-3.91,146.48,146.48,0,0,1-16.35-17.68,127.36,127.36,0,0,0-16.17-17.15,8.24,8.24,0,0,1-1.78-6.39l2-3.91a7.84,7.84,0,0,1,6-1.6,39.35,39.35,0,0,1,11.55,9.42q6.21,7.81,13.06,15.46a119.59,119.59,0,0,0,14.66,13.86,8.34,8.34,0,0,1,2.13,6.75L659,170.54A7.59,7.59,0,0,1,652.76,172Z"/><path class="cls-3" d="M730.9,239.13a45.64,45.64,0,0,1-16-4.26,41.67,41.67,0,0,1-13.5-10.48,32,32,0,0,1-5-8.36,41.77,41.77,0,0,1-2.49-9.06V190.62q.72-8.18,1.43-16.35V141.93a103.63,103.63,0,0,1-.89-10.75q-.18-5.42-.18-11.11l1.78-3.55a8.28,8.28,0,0,1,6.39-1.78l3.56,1.78a28.49,28.49,0,0,1,2.31,12.35,68.13,68.13,0,0,0,.89,13.06v32.34l-1.43,16.35v15.64A22,22,0,0,0,714.55,218a34,34,0,0,0,11.55,6.13,33.58,33.58,0,0,0,13.68,1,52.76,52.76,0,0,0,12.8-4.45,48.2,48.2,0,0,0,11.37-8l.35-.71a14.18,14.18,0,0,0,4.62-6,46.27,46.27,0,0,1,3.2-9.6,8.3,8.3,0,0,1,6.4-1.78l3.56,1.78a12.89,12.89,0,0,1,1.95,9.24,43.15,43.15,0,0,1-7.64,14.57l-2.49,1.42-3.2,4.09a60.49,60.49,0,0,1-18.48,10.66A52.82,52.82,0,0,1,730.9,239.13Zm19.37-90.8-3.56-1.78a60.73,60.73,0,0,0-6.57-9.06,71.94,71.94,0,0,0-8-7.82,8.26,8.26,0,0,1-1.78-6.4l1.78-3.55a8.3,8.3,0,0,1,6.4-1.78l6.39,3.91,2.14,2.13,2.84,3.2,2.84,3.2a17.51,17.51,0,0,1,5.69,12.44l-1.78,3.73A8.25,8.25,0,0,1,750.27,148.33Zm22.56-3-3.55-1.78a161.09,161.09,0,0,0-7.2-15.28,69.66,69.66,0,0,1-6.13-16l1.78-3.56a8.87,8.87,0,0,1,6.57-1.78l3.56,1.78q3.9,7.47,7.82,15.11A55.39,55.39,0,0,1,781,140l-1.78,3.55A8.26,8.26,0,0,1,772.83,145.31Z"/><path class="cls-3" d="M849.55,187.25a11.84,11.84,0,0,1-5.86-2.85L842.44,183a32.05,32.05,0,0,1-6.93-13.68A115.76,115.76,0,0,1,833,154V137.67q1.08-6.75,2.14-13.6a31.39,31.39,0,0,1,4.8-12.53,7.17,7.17,0,0,1,6-2.13l3.55,1.78a10.1,10.1,0,0,1,1.78,7.11,46.54,46.54,0,0,0-3.2,9.42c-.71,3.19-1.31,6.51-1.78,9.95V154a50.15,50.15,0,0,0,2.85,14.74h1.06l6.93-10.3a8.91,8.91,0,0,1,6.22-1.42l3.38,1.24a10.75,10.75,0,0,1,1.78,7.29q-4.27,6.75-8.53,13.5h-.71l-3.56,5.33A9.22,9.22,0,0,1,849.55,187.25Zm13.51,58.64-3.38-1.6a9.43,9.43,0,0,1-1.78-6.93l1.78-3.2a50.89,50.89,0,0,0,15.64-14.66,184.49,184.49,0,0,0,10.84-17.86,111.75,111.75,0,0,0,8.53-31.19q1.95-16.08,2.31-33.14V120.25l-1.42-8.35,1.77-3.73a7.17,7.17,0,0,1,6-2l3.38,2a34.11,34.11,0,0,1,3.56,12.08v17.06a194.81,194.81,0,0,1-6.85,56.24Q895.94,221.38,873,242A12.2,12.2,0,0,1,863.06,245.89Z"/><path class="cls-3" d="M950.94,176.15a11.26,11.26,0,0,1-6.59-2.05A6.65,6.65,0,0,1,943,169l1.32-2.79a8.79,8.79,0,0,1,6.3-1.46l2.2.29L972,163.69v-2.05l-.29-.29V148l.29-.73h-1q-4.54.28-9.16.66t-9.75.36l-2.93-1.46a6.82,6.82,0,0,1-1.46-5.28l1.46-2.93a98.79,98.79,0,0,1,17.07-2.34q8.73-.45,17.22-.74a37,37,0,0,0,.22-7.25,12.27,12.27,0,0,1,1.69-7.25,6.58,6.58,0,0,1,5.13-1.47l2.93,1.32L994.9,124v11.57h11.73l4.25.3,18.9-.59,2.93,1.47a6.83,6.83,0,0,1,1.47,5.27l-1.47,2.93a26.78,26.78,0,0,1-10.62,1.76,68.67,68.67,0,0,0-11.07.59l-.88,15.24q6.75.28,13.93.73a49.76,49.76,0,0,1,13.48,2.64,7.72,7.72,0,0,1,1.32,5.42l-1.32,2.79a8.57,8.57,0,0,1-6,1.75,33.49,33.49,0,0,0-8.35-1.61l-8.65-.58H995.78q-11.43.28-22.49,1.17T950.94,176.15ZM1003.11,244q-8.05-.74-16.49-.74a60.86,60.86,0,0,1-16.33-2.19,21.17,21.17,0,0,1-1.91-8.8V196.22a24.76,24.76,0,0,1,1.91-12.45,6.49,6.49,0,0,1,5.12-1.61,11.71,11.71,0,0,0,5.87.88l.29-.3h16.26c3.13.39,6.35.66,9.68.81a26.78,26.78,0,0,1,9.23,2,27.22,27.22,0,0,1,2.49,11.5q0,6.08.29,12.53l-.29.29V239l-1.32,2.94a6.79,6.79,0,0,1-5.13,1.46l-.73-.15A29.93,29.93,0,0,1,1003.11,244Zm5.42-37.52v-3.81l-.58-7.91L997.83,194H981.57l-1.76.29-.29,11.87,9.38.29Zm-.29,26.23v-14.8H988.9l-9.38-.29V231.1q6.88.89,14.21,1.1T1008.24,232.71ZM999,162.52V159l.58-12.16H983.18l-.29,1.17v12.46l.29,2.63h1.47Z"/><path class="cls-3" d="M1067.5,187.72l-3.08-1.46a7.28,7.28,0,0,1-1.46-5.57l1.46-2.78q6.3-4.41,12.09-8.94a33.66,33.66,0,0,1,13.12-6.3l3.08,1.46a6.81,6.81,0,0,1,1.46,5.42l-1.46,2.79a67.46,67.46,0,0,0-12.46,8.35A36.31,36.31,0,0,1,1067.5,187.72Zm12-34.29-12-6.15a8,8,0,0,1-1.46-5.72l1.46-2.78a7.4,7.4,0,0,1,5.57-1.61,31.44,31.44,0,0,1,10.85,5.42,8,8,0,0,1,1.75,6.15l-1.46,2.79A8.45,8.45,0,0,1,1079.52,153.43Zm-8.79,91.45-2.93-1.47a7.24,7.24,0,0,1-1.47-5.57l1.47-2.93a111.21,111.21,0,0,0,20.15-9.82,90,90,0,0,0,17.65-14.21l.15-.73h-7.62l-4.1.58h-16.56a7.39,7.39,0,0,1-4.25-1.9,6.86,6.86,0,0,1-1.47-5.43l1.47-2.78,2.93-1.47H1094l4.1-.58h13.78l.14-10.55a27.44,27.44,0,0,1-12.6-2.35,57.51,57.51,0,0,1-3.37-7.91V164.42q.43-6.15.37-12.89a34.25,34.25,0,0,1,2.12-12.61l.88-.88a6.89,6.89,0,0,1,5.72-1.46,48.93,48.93,0,0,1,4.54-8.87q2.77-4.32,5.57-9a7,7,0,0,1,5.42-1.46l2.78,1.31a8.39,8.39,0,0,1,1.61,6q-1.75,3.22-3.73,6.6t-3.45,6.3l1.76.29h12.46l3.08,1.32a12.63,12.63,0,0,1,2.34,7.62v29.46l.59,6.74-1.61,2.93a6.74,6.74,0,0,1-5.43,1.61l-1-.29-7.18.58v1a46.35,46.35,0,0,1,.44,9.53h23c3.91.19,7.72.34,11.43.43a37.6,37.6,0,0,1,10.56,1.76,7.3,7.3,0,0,1,1.9,5.86l-1.46,2.79a10.43,10.43,0,0,1-7.63,1.61,44.07,44.07,0,0,0-7.25-.58q-3.73,0-7.55-.3H1131.1V210l3.81,4.69a90.82,90.82,0,0,0,17.3,12,70.76,70.76,0,0,0,19.78,7.18,6.65,6.65,0,0,1,1.47,6.15l-1.47,2.79a6.63,6.63,0,0,1-5.86,1.46,73.26,73.26,0,0,1-20.88-8.13,119.43,119.43,0,0,1-18.54-13.27l-3.37-3.66v6.6l.29.29v13.77l-1.47,2.94a7,7,0,0,1-5.42,1.46L1114,243a7.27,7.27,0,0,1-2-6.59l.14-10.11-.14-5h-.44a186.45,186.45,0,0,1-18.62,14.44A60.4,60.4,0,0,1,1070.73,244.88Zm55.24-69v-7.47h-7.18l-.29.29h-10.7v7.48l6.45.14Zm0-19.19v-7.18l-17.43-.88-.3,8.64h10Zm43.67,30.48a37.11,37.11,0,0,1-13.26-6.6q-6.08-4.68-11.65-9.82a8,8,0,0,1-1.61-5.56l1.61-2.64a7.57,7.57,0,0,1,5.57-1.47,75.6,75.6,0,0,1,9,7,36.24,36.24,0,0,0,9.6,6.23v.44a7.42,7.42,0,0,1,5.42,2.35,7.27,7.27,0,0,1,1.47,5.56l-1.47,2.79A10.6,10.6,0,0,1,1169.64,187.14Zm-19.34-30.92-3.08-1.47a7.62,7.62,0,0,1-1.61-5.71l1.61-2.79q4.54-2.77,8.36-5.35a20,20,0,0,1,9.08-3.15l3.08,1.32a7.36,7.36,0,0,1,1.32,5.72l-1.32,3.07a52.27,52.27,0,0,0-8.28,4.69A22.65,22.65,0,0,1,1150.3,156.22Z"/><path class="cls-3" d="M1222.61,247.66a60.12,60.12,0,0,1-6.89-2.78,75.7,75.7,0,0,1-6.74-3.67,7.1,7.1,0,0,1-1.76-5.57l1.46-2.93a7.3,7.3,0,0,1,5.43-1.46l6.74,2.64a31.64,31.64,0,0,0,1.76-12.31H1208.1a13.62,13.62,0,0,1-8.5-2.2,6.86,6.86,0,0,1-1.47-5.28l1.47-2.93a10.69,10.69,0,0,1,8.21-1.46l.29.29h13v-.59a21.52,21.52,0,0,1-4.69-10.55l7.33-12.6-12.9-.29-10.4,9.37a13.51,13.51,0,0,1-9.09,4.11l-2.93-1.47a6.78,6.78,0,0,1-1.46-5.27l1.46-2.93.88-.3v-.58a89.15,89.15,0,0,0,11.87-9.53,73.52,73.52,0,0,0,10-11.58h-8.94l-12,.59a7.71,7.71,0,0,1-4.1-1.76,6.8,6.8,0,0,1-1.47-5.27l1.47-2.93a39,39,0,0,1,11.87-1.76q6.3,0,12.6-.3V154.9l-.29-7.33h-3.37l-7.62.29-2.93-1.46a7.24,7.24,0,0,1-1.47-5.42l1.47-2.94a29.39,29.39,0,0,1,13.92-2V123.68a7.71,7.71,0,0,1,1.76-4.1,6.78,6.78,0,0,1,5.27-1.46l2.93,1.46,1.47,2.93v12.6a28.55,28.55,0,0,1,10.84.88l7-13.77a6.82,6.82,0,0,1,5.27-1.47l2.93,1.47a7.77,7.77,0,0,1,1.47,5.57,132.84,132.84,0,0,1-6.74,14.29q-3.81,7-7.92,13.7h11.73l3.51,1.76a6.8,6.8,0,0,1,1.47,5.27l-1.47,2.93a10.75,10.75,0,0,1-6.15,1.76l-.29-.29h-13.19a9.28,9.28,0,0,0-4.69,1.17l-4.4,6.45a40.55,40.55,0,0,0,8.5.29,12.32,12.32,0,0,1,7.62,1.76,6.76,6.76,0,0,1,1.47,5.86,98.8,98.8,0,0,1-4.55,9.09q-2.49,4.39-4.83,8.79a19.2,19.2,0,0,1,3.52,8.79h4.39l2.64-.29,3.22,1.76a7.1,7.1,0,0,1,1.76,5.57l-1.46,2.93A13.29,13.29,0,0,1,1234,221a63.45,63.45,0,0,1-1.32,13,32.74,32.74,0,0,1-4.84,11.58A10.39,10.39,0,0,1,1222.61,247.66Zm-.3-94.52v-.29l3.81-6.16h-4.39v6.45l.29.29Zm30.19,93.06-2.93-1.47a6.82,6.82,0,0,1-1.46-5.28l1.46-2.93a29.78,29.78,0,0,0,6.74-6.44,40.15,40.15,0,0,0,5.72-6.45,82.09,82.09,0,0,0,4.54-7.18v-1.18q-3.51-4.68-7-9.08a19.05,19.05,0,0,1-4.11-10.26l1.47-2.93a6.83,6.83,0,0,1,5.27-1.47l2.93,1.47,3.82,7h.58l3.23,3.81a130.85,130.85,0,0,0,5-19.05q1.76-9.66,2.93-19.63l-16.12-.59q-1.17,5.28-2.2,10.7a43.17,43.17,0,0,1-3.37,10.4,6.86,6.86,0,0,1-5.28,1.47l-2.93-1.47a11.73,11.73,0,0,1-1.75-5,118.63,118.63,0,0,0,4.39-19.05q1.47-10,2-20.08v-12a7.82,7.82,0,0,1,1.76-4.11,6.82,6.82,0,0,1,5.28-1.46l2.93,1.46,1.46,2.93v13.19l-.88,11.29a91.14,91.14,0,0,0,9.09.73c3.13.1,6.25.24,9.38.44H1299a8.48,8.48,0,0,1,6.15,1.76,7.14,7.14,0,0,1,1.76,5.57l-1.47,2.93a9.47,9.47,0,0,1-7,1.46l-6.15-.29q-1.47,12.6-4,25.06a111.64,111.64,0,0,1-7.62,23.89c1.56,1.95,3.3,3.93,5.2,5.93a32.81,32.81,0,0,0,6.08,5.06,22.38,22.38,0,0,0,5.86,4.69v.58l8.8,5a7.19,7.19,0,0,1,1.76,5.57l-1.47,2.93a6.82,6.82,0,0,1-5.28,1.47,61.38,61.38,0,0,1-13.7-8.35A156.46,156.46,0,0,1,1275.36,226l-.29-.58h-.59l-8.5,11.72-1.75.88-2.64,3.81-2.64,2.34A8.34,8.34,0,0,1,1252.5,246.2Z"/><path class="cls-3" d="M1326.71,165.3a7.71,7.71,0,0,1-4.1-1.76,26.26,26.26,0,0,1-1.47-13.62,23.12,23.12,0,0,1,2.06-12.9,10,10,0,0,1,6.88-1.76c3.32.39,6.69.69,10.11.88l24-.88V122.51a7.39,7.39,0,0,1,1.9-4.25,6.82,6.82,0,0,1,5.28-1.46l3.08,1.46,1.46,2.93v13.48h5.57q8.2-.57,16.27-.8t16.12-.51a39.18,39.18,0,0,1,13.48,2.19,6.82,6.82,0,0,1,1.46,5.28l-.29,4.84.29.29v12.31l-1.46,2.93a8.35,8.35,0,0,1-5.72,1.47l-3.22-1.47a6.17,6.17,0,0,1-2-6.3,23.3,23.3,0,0,0,.58-8.36l-.44-1.31-6.44-.3q-18.18.73-36.13,1.4t-36,1.53l-4.69-.29a38.48,38.48,0,0,0-.3,8.28,13,13,0,0,1-1.61,7.69A9.7,9.7,0,0,1,1326.71,165.3Zm-.14,78.84-3.08-1.46a7.09,7.09,0,0,1-1.47-5.42l1.47-2.93a96.48,96.48,0,0,1,21.54-2.94q11.28-.28,22.72-1.17a45.55,45.55,0,0,0,1-13.19h-2l-15.68.88-3.08-1.46a7,7,0,0,1-1.61-5.43l1.61-2.93a22.88,22.88,0,0,1,9.75-2.05,108.67,108.67,0,0,0,11.06-.58,40.77,40.77,0,0,1,.88-11H1365l-11.43.88a7.92,7.92,0,0,1-4.25-1.75,7.35,7.35,0,0,1-1.47-5.43q2.94-4.68,5.65-9.59a81.16,81.16,0,0,0,4.76-10.34q-4.7,0-9,.15a12.27,12.27,0,0,1-7.4-1.9,6.78,6.78,0,0,1-1.47-5.28l1.47-2.93,3.07-1.61h18.18l13.62-1.18h24l4.25,2.2a6.82,6.82,0,0,1,1.46,5.28l-1.46,2.93a13.05,13.05,0,0,1-5.28,1.76l-1.46-.59h-21.55l-5.71.88c-1,2.64-2,5.18-3.08,7.62s-2.3,4.89-3.66,7.33h4.83l15.68-1.17V180.1l-.44-2.93,1.47-2.93a7.27,7.27,0,0,1,5.42-1.46l3.08,1.46q2.64,4.69,5.42,9.45a27.26,27.26,0,0,1,3.52,10.19l-1.61,2.93a7.17,7.17,0,0,1-6,1.47l-3.08-1.47-1.61-3.52h-8.35l-2.5.3v1.46l.44,9.82h5l10-.88,4,1.76a6.8,6.8,0,0,1,1.46,5.27L1399.4,214a17.37,17.37,0,0,1-8.87,2,71,71,0,0,0-10,.44,58.21,58.21,0,0,1-.87,13.19H1383l.29-.3h37.81l4.1,2a6.43,6.43,0,0,1,1.32,5.28l-1.32,3.08a10,10,0,0,1-7.18,1.46l-.29-.29h-34.59q-14.07.59-28.21,1.47Z"/><path class="cls-3" d="M425.23,281.61c12,0,19.76,6.35,19.76,14.21,0,9.59-8.52,18.69-18.32,18.69a18.16,18.16,0,0,1-9.55-2.75.71.71,0,0,1-.41-.7c0-.54.49-1,1.45-1a2.57,2.57,0,0,1,1.12.27,13.24,13.24,0,0,0,7.39,2.15c7.55,0,15.27-7.32,15.27-16.69,0-7.27-7.23-12.17-16.71-12.17a35.6,35.6,0,0,0-14.14,3.12,1.71,1.71,0,0,1-.72.16c-.8,0-1.61-.53-1.61-1.07a.71.71,0,0,1,.24-.49,43.09,43.09,0,0,1,20.81-12.49,4.4,4.4,0,0,1,.8-.11c.72,0,1.53.43,1.53,1,0,.37-.24.7-.81.86-7.55,2-13.17,5.33-16.46,8.56A34,34,0,0,1,425.23,281.61Z"/><path class="cls-3" d="M454.06,316.77c-2,0-3.21-1.08-3.21-2.48,0-1.72,1.84-4.36,4.25-6.35,2.49-2.15,7.23-4.52,9.8-4.52a1.4,1.4,0,0,1,1.45,1,52,52,0,0,1,1.28,9.85c0,.59-.64,1-1.52,1s-1.53-.43-1.53-1c0-.32-.08-.86-.08-1.62C459.84,315.42,456.39,316.77,454.06,316.77Zm3.45-7.65c-1.6,1.35-3.61,3.93-3.61,5.23,0,.21.08.37.4.37.64,0,2.73-.32,8.27-3.71a1.74,1.74,0,0,1,1.05-.27,1.65,1.65,0,0,1,.72.11,46,46,0,0,0-.72-5.06A17.59,17.59,0,0,0,457.51,309.12Z"/><path class="cls-3" d="M480.24,315.37a1.46,1.46,0,0,1-1.52-.91c-.33-1.89-.49-3.72-.81-5.61-.72-.1-1.36-.48-1.36-1s.4-.81,1-1c-1.77-12.87-3-24.5-4.18-35l-.48-4.15c0-.53.64-1,1.61-1a1.39,1.39,0,0,1,1.44,1l.49,4c1.12,10.34,2.41,21.86,4.17,34.57,2.57-1,5-2.53,5.87-4.74a1.77,1.77,0,0,1,1.6-.81c.73,0,1.45.43,1.45,1-.64,2.1-2.25,4.09-7,6a34,34,0,0,1,7.95,3.29,28.37,28.37,0,0,0,3.94,1.78c.56.16.88.53.88.91s-.64,1-1.52,1a2.93,2.93,0,0,1-.65-.1,23,23,0,0,1-4.49-2,38.15,38.15,0,0,0-7.64-3.23l.73,5C481.77,314.83,481.13,315.37,480.24,315.37Z"/><path class="cls-3" d="M501.36,316.77c-2,0-3.21-1.08-3.21-2.48,0-1.72,1.85-4.36,4.26-6.35,2.49-2.15,7.23-4.52,9.8-4.52a1.4,1.4,0,0,1,1.44,1,51.31,51.31,0,0,1,1.29,9.85c0,.59-.64,1-1.53,1s-1.52-.43-1.52-1c0-.32-.08-.86-.08-1.62C507.15,315.42,503.69,316.77,501.36,316.77Zm3.46-7.65c-1.61,1.35-3.62,3.93-3.62,5.23,0,.21.08.37.41.37.64,0,2.73-.32,8.27-3.71a1.69,1.69,0,0,1,1-.27,1.71,1.71,0,0,1,.73.11,45.91,45.91,0,0,0-.73-5.06A17.46,17.46,0,0,0,504.82,309.12Z"/><path class="cls-3" d="M521.68,308.69a3,3,0,0,1-.72.11c-.8,0-1.44-.48-1.44-1.08,0-.37.32-.7.88-.86a18.32,18.32,0,0,0,6.83-3.34,2.16,2.16,0,0,1,1.2-.37c.72,0,1.45.43,1.45,1,0,10.07,1.28,20.08,1.68,30.86,0,.53-.64,1-1.52,1s-1.53-.43-1.53-1c-.32-9.42-1.2-18.9-1.61-28.65A20.42,20.42,0,0,1,521.68,308.69Zm4.5-25.2a1.64,1.64,0,0,1,1.61.86l.4,1.67c0,.54-.56,1.08-1.53,1.08a1.49,1.49,0,0,1-1.52-.86l-.4-1.72C524.74,284,525.3,283.49,526.18,283.49Z"/><path class="cls-3" d="M537.27,288.18c-.25-1.67-.65-2.26-.65-2.91,0-.43.48-1,1.53-1a1.55,1.55,0,0,1,1.52.8,21.43,21.43,0,0,1,.65,3c0,.48-.65,1-1.53,1C538.07,289,537.35,288.66,537.27,288.18Zm3.05,15.24c.72,0,1.44.37,1.52.91a28.18,28.18,0,0,0,1.29,4.85,14,14,0,0,1,1,4.2c0,.59-.72,1-1.52,1s-1.53-.43-1.53-1a12.65,12.65,0,0,0-.88-3.77,34.71,34.71,0,0,1-1.37-5.12C538.79,303.9,539.35,303.42,540.32,303.42Z"/><path class="cls-3" d="M555.5,302.29c0-.54.64-1,1.52-1s1.53.49,1.53,1c0,.75,0,1.66.08,2.58,5.78-2.53,10.84-4.79,13.33-5.6a2.88,2.88,0,0,1,.73-.11c.64,0,1.44.49,1.44,1,0,.37-.32.75-.88.91-2.33.75-7.23,3-14.3,6.14.24,2.31.64,4.58,1.12,6.95a1.32,1.32,0,0,1-1.44,1.07,1.63,1.63,0,0,1-1.61-.86,55.91,55.91,0,0,1-1-6.14c-.72,0-1.45-.37-1.45-1a1.07,1.07,0,0,1,.73-.91l.48-.22A35,35,0,0,1,555.5,302.29Z"/><path class="cls-3" d="M574.05,288.18c-.24-1.67-.64-2.26-.64-2.91,0-.43.48-1,1.52-1a1.56,1.56,0,0,1,1.53.8,22.69,22.69,0,0,1,.64,3c0,.48-.64,1-1.53,1C574.85,289,574.13,288.66,574.05,288.18Zm3.05,15.24c.72,0,1.45.37,1.53.91a27.36,27.36,0,0,0,1.28,4.85,14,14,0,0,1,1,4.2c0,.59-.73,1-1.53,1s-1.53-.43-1.53-1a12.65,12.65,0,0,0-.88-3.77,37.39,37.39,0,0,1-1.37-5.12C575.57,303.9,576.14,303.42,577.1,303.42Z"/><path class="cls-3" d="M610.67,282.15a1.58,1.58,0,0,1-1.44.64c-.81,0-1.53-.37-1.53-1a.66.66,0,0,1,.08-.38,15.06,15.06,0,0,1,4.66-4.95c-.08-1.29-.08-2.48-.08-3.39,0-.54.64-1,1.52-1s1.53.49,1.53,1v1.77a26,26,0,0,1,11.33-2.42c9.8,0,15.58,4.58,15.58,11.2A20,20,0,0,1,638,295.5a39.5,39.5,0,0,1-20,13.57c0,1.62.08,3.23.08,4.79,0,.6-.72,1-1.52,1s-1.53-.43-1.53-1c0-1.34,0-2.8-.08-4.2a15.94,15.94,0,0,1-1.61.11c-1.68,0-3.29-.22-3.29-1.19,0-.48.64-1,1.53-1a.93.93,0,0,1,.4.06,5.2,5.2,0,0,0,1.28.1,9.15,9.15,0,0,0,1.61-.1c-.24-7.49-1-15.19-1.53-21.65l-.64-6.46A11.48,11.48,0,0,0,610.67,282.15Zm24.58,12.43a18.65,18.65,0,0,0,4-10.93c0-5.22-3.94-9.2-12.61-9.2a22.28,22.28,0,0,0-11.09,2.85c.16,2.42.48,5.38.81,8.56.56,6.25,1.2,13.73,1.52,21A35.47,35.47,0,0,0,635.25,294.58Z"/><path class="cls-3" d="M647.86,288.18c-.24-1.67-.65-2.26-.65-2.91,0-.43.49-1,1.53-1a1.56,1.56,0,0,1,1.53.8,22.69,22.69,0,0,1,.64,3c0,.48-.64,1-1.53,1C648.66,289,647.94,288.66,647.86,288.18Zm3,15.24c.72,0,1.45.37,1.53.91a27.36,27.36,0,0,0,1.28,4.85,14,14,0,0,1,1,4.2c0,.59-.72,1-1.52,1s-1.53-.43-1.53-1a12.65,12.65,0,0,0-.88-3.77,37.39,37.39,0,0,1-1.37-5.12C649.38,303.9,650,303.42,650.91,303.42Z"/><path class="cls-3" d="M666.41,316.77c-2,0-3.21-1.08-3.21-2.48,0-1.72,1.84-4.36,4.25-6.35,2.49-2.15,7.23-4.52,9.8-4.52a1.4,1.4,0,0,1,1.45,1,52,52,0,0,1,1.28,9.85c0,.59-.64,1-1.52,1s-1.53-.43-1.53-1c0-.32-.08-.86-.08-1.62C672.19,315.42,668.74,316.77,666.41,316.77Zm3.45-7.65c-1.6,1.35-3.61,3.93-3.61,5.23,0,.21.08.37.4.37.64,0,2.73-.32,8.27-3.71a1.74,1.74,0,0,1,1.05-.27,1.65,1.65,0,0,1,.72.11,46,46,0,0,0-.72-5.06A17.59,17.59,0,0,0,669.86,309.12Z"/><path class="cls-3" d="M702.23,304.92c4.26,0,7.63,3.45,10.76,7.7a1,1,0,0,1,.16.43c0,.49-.64,1-1.52,1a1.67,1.67,0,0,1-1.37-.59c-3.21-4.37-5.94-6.52-8.11-6.52-3.29,0-6.35,4.58-7.95,7a1.57,1.57,0,0,1-1.45.65c-.72,0-1.44-.43-1.44-1a9.48,9.48,0,0,0-4-7.11,1,1,0,0,1-.4-.7c0-.54.64-1,1.53-1a2,2,0,0,1,1.12.32,11.92,11.92,0,0,1,4,5.22C695.16,308.15,697.89,304.92,702.23,304.92Z"/><path class="cls-3" d="M724.48,314.89c-4.5,0-6.11-3.23-6.11-7.06,0-.54.65-1,1.53-1s1.52.48,1.52,1c0,1.13.17,5,3.06,5a8.27,8.27,0,0,0,3.85-1.29c2.17-1.24,2.89-2.59,2.89-3.56s-.88-1.67-2.33-1.67a10,10,0,0,0-4.73,1.57,2,2,0,0,1-1,.26c-.8,0-1.52-.43-1.52-1a.92.92,0,0,1,.48-.75,13.5,13.5,0,0,1,6.74-2.1c3,0,5.39,1.34,5.39,3.77,0,1.83-1.61,3.66-4,5A11.73,11.73,0,0,1,724.48,314.89Z"/><path class="cls-3" d="M772.67,314.4c-6.75,0-10.85-3.34-10.85-8.13,0-6.35,6.35-11.58,12.53-16.26a19.33,19.33,0,0,1-2-8.51c0-3.77,4.58-6.79,10.45-6.79,2.81,0,6.34.92,6.34,3.24,0,4-5.22,8-11.32,12.49C780.7,296,786,301,791.38,306a57.87,57.87,0,0,0,7.79-5.71,1.46,1.46,0,0,1,1.13-.37c.8,0,1.6.37,1.6,1a.83.83,0,0,1-.32.64,57.62,57.62,0,0,1-8.43,6.09L799,313a.68.68,0,0,1,.32.59c0,.49-.64,1-1.52,1a1.84,1.84,0,0,1-1.21-.43L790.82,309C785.92,311.71,779.49,314.4,772.67,314.4Zm-7.79-8.13c0,3.66,2.32,6.08,7.87,6.08,5.94,0,11.48-2.42,16.3-5-5.14-4.63-10.12-9.59-13.49-15.19C770.58,296,764.88,300.72,764.88,306.27ZM786.08,278c0-.92-2.09-1.19-3.29-1.19-3.94,0-7.39,1.89-7.39,4.74a16.47,16.47,0,0,0,1.36,6.68C781.58,284.52,786.08,281.07,786.08,278Z"/><path class="cls-3" d="M849.13,311.06a1.1,1.1,0,0,1-1,1,84,84,0,0,1-8.83.26h-8.52V314c0,.6-.72,1-1.52,1s-1.53-.43-1.53-1v-1.61c-.48,0-1,0-1.44,0-.81,0-1.53-.48-1.53-1s.72-1,1.53-1a12.88,12.88,0,0,0,1.52-.06c.24-3.77.56-7.54.88-11.31.33-3.55.65-7.1.73-10.66,0-1.34,0-2.74-.08-4.14h-1c-.8,0-1.52-.49-1.52-1s.72-1,1.52-1h1l-.57-4.79c0-.54.89-.92,1.53-.92a1.59,1.59,0,0,1,1.37.65,24,24,0,0,0,6.5,1.24,3.41,3.41,0,0,0,2.89-1.62,1.6,1.6,0,0,1,1.29-.48c.8,0,1.53.43,1.53,1a.79.79,0,0,1-.25.54,6.48,6.48,0,0,1-5.62,2.53,22.16,22.16,0,0,1-5.94-.92c.16.92.24,1.83.32,2.75,5.38.05,8.91.16,12.45.16,4.1,0,8.35-.11,12.37-.43.88,0,1.44.54,1.44,1s-.64,1-1.52,1c-3.54.32-7.15.43-12.69.43-4,0-7.95-.06-12-.11.08,1.72.08,3.45.08,4.63,0,4.09-.48,7.7-.8,11.31-.33,3.34-.57,6.73-.73,10.07h9.16c2.17,0,5.22,0,7.23-.22h.32C848.4,310.09,849.13,310.42,849.13,311.06Z"/><path class="cls-3" d="M867.2,301.85c0,6.2.16,11.31.4,14.38,0,.54-.56,1-1.45,1s-1.52-.43-1.6-1c-.25-3.07-.41-8-.41-14.11,0-9.21.41-21.06,1.61-33,0-.54.72-1,1.61-1s1.36.49,1.36,1.08C867.6,281,867.2,292.75,867.2,301.85Z"/><path class="cls-3" d="M887.2,313.43c1.6,0,4.49-1.13,8.67-4.36a1.84,1.84,0,0,1,1.12-.38c.73,0,1.53.49,1.53,1a1,1,0,0,1-.4.64c-2.49,2-6.83,5.06-10.92,5.06-3.86,0-5.31-2.42-5.31-5-.8.05-1.6.1-2.41.1-2.89,0-3.93-.21-3.93-1.13,0-.59.64-1,1.6-1s1.69.11,2.41.11a23.73,23.73,0,0,0,2.73-.16,7.69,7.69,0,0,1,7.48-5.39c2.4,0,4.41.76,4.41,2.21,0,2.53-5.38,4.41-9.23,4.95v.43C885,311.39,885.19,313.43,887.2,313.43Zm2.57-8.51a4.79,4.79,0,0,0-4.26,3,13.71,13.71,0,0,0,4.9-1.83c.64-.43.88-.86.88-1A4.07,4.07,0,0,0,889.77,304.92Z"/><path class="cls-3" d="M918.36,304.12c0,.59-.73,1-1.53,1-2.41.27-5.14.7-7,1.83-1.44.86-2.49,2-2.49,3.61,0,1.29,1.37,2.37,3,2.37a9.15,9.15,0,0,0,5.46-2.26,1.37,1.37,0,0,1,1-.33c.72,0,1.61.43,1.61,1,0,.27-.16.48-.48.7a12.56,12.56,0,0,1-7.39,2.9c-3.78,0-6.19-2-6.19-4.63,0-1.88,1.45-3.82,3.78-5.06a22.76,22.76,0,0,1,8.75-2.21C917.71,303.09,918.36,303.63,918.36,304.12Z"/><path class="cls-3" d="M929.76,312.79c0,.59-.72,1-1.53,1a1.4,1.4,0,0,1-1.52-1,160.43,160.43,0,0,1-1.61-18.69h-8c-1,0-1.61-.48-1.61-1s.57-1,1.61-1h7.87c-.08-2.53-.08-5.06-.08-7.7,0-3.82.08-7.7.4-11.52,0-.59.65-1,1.53-1s1.52.43,1.52,1a116.52,116.52,0,0,0-.48,12.28c0,2.31.08,4.63.16,6.94h6c1,0,1.52.54,1.52,1s-.48,1-1.52,1h-5.87C928.39,300.35,929,306.59,929.76,312.79Z"/><path class="cls-3" d="M944.22,314.89c-4.5,0-6.11-3.23-6.11-7.06,0-.54.65-1,1.53-1s1.53.48,1.53,1c0,1.13.16,5,3.05,5a8.27,8.27,0,0,0,3.85-1.29C950.24,310.31,951,309,951,308s-.88-1.67-2.33-1.67a10,10,0,0,0-4.73,1.57,2,2,0,0,1-1,.26c-.8,0-1.52-.43-1.52-1a.92.92,0,0,1,.48-.75,13.5,13.5,0,0,1,6.74-2.1c3,0,5.39,1.34,5.39,3.77,0,1.83-1.61,3.66-4,5A11.73,11.73,0,0,1,944.22,314.89Z"/><path class="cls-3" d="M975.06,304.92c4.26,0,7.63,3.45,10.76,7.7a1,1,0,0,1,.16.43c0,.49-.64,1-1.52,1a1.66,1.66,0,0,1-1.37-.59c-3.21-4.37-5.94-6.52-8.11-6.52-3.3,0-6.35,4.58-8,7a1.59,1.59,0,0,1-1.45.65c-.72,0-1.45-.43-1.45-1a9.46,9.46,0,0,0-4-7.11,1,1,0,0,1-.4-.7c0-.54.64-1,1.52-1a2,2,0,0,1,1.13.32,11.91,11.91,0,0,1,4,5.22C968,308.15,970.72,304.92,975.06,304.92Z"/><path class="cls-3" d="M1002.2,313.43c1.61,0,4.5-1.13,8.68-4.36a1.84,1.84,0,0,1,1.12-.38c.73,0,1.53.49,1.53,1a1,1,0,0,1-.4.64c-2.49,2-6.83,5.06-10.93,5.06-3.85,0-5.3-2.42-5.3-5-.8.05-1.6.1-2.41.1-2.89,0-3.93-.21-3.93-1.13,0-.59.64-1,1.6-1s1.69.11,2.41.11a23.73,23.73,0,0,0,2.73-.16,7.69,7.69,0,0,1,7.47-5.39c2.41,0,4.42.76,4.42,2.21,0,2.53-5.38,4.41-9.23,4.95v.43C1000,311.39,1000.2,313.43,1002.2,313.43Zm2.57-8.51a4.78,4.78,0,0,0-4.25,3,13.71,13.71,0,0,0,4.9-1.83c.64-.43.88-.86.88-1A4.09,4.09,0,0,0,1004.77,304.92Z"/><path class="cls-3" d="M1061.8,278.65a43.63,43.63,0,0,0,6.1-3.67,2.17,2.17,0,0,1,1.21-.37c.8,0,1.6.48,1.6,1.07a1,1,0,0,1-.4.7q-.24,2.83-.24,6.3a255.9,255.9,0,0,0,2.09,30.27,1.4,1.4,0,0,1-1.53,1.13,1.69,1.69,0,0,1-1.68-.92c-.73-3-2.09-19-2.09-30.15,0-1.56,0-3,.08-4.31-1,.59-2.17,1.13-3.21,1.67-3.46,1.78-6.51,3.28-7.31,5.6-.08.43-.81.81-1.61.81a1.57,1.57,0,0,1-1.12-.38,35.84,35.84,0,0,0-3.22-2.21c-1.93-1.29-4.18-2.8-6.34-4.47v16c0,6.19,0,12.43.56,18.68,0,.49-.64,1.08-1.61,1.08-.8,0-1.52-.43-1.6-1-.49-3.77-.57-11-.57-18.79,0-4.1.08-8.19.08-12.39,0-2.1,0-4.2-.08-6.35,0-.65,1-1.24,2-1.24a1.61,1.61,0,0,1,1.21.43,75.4,75.4,0,0,0,8.67,6.51l1.53,1C1055.93,281.66,1058.91,280.1,1061.8,278.65Z"/><path class="cls-3" d="M1082.76,309.93c0,1.46.16,2.21.88,2.21a3,3,0,0,0,1.69-.7c1.68-1.13,3.21-3.18,3.21-4.58,0-.32-.24-.64-.24-1s.56-1,1.53-1a1.53,1.53,0,0,1,1.44.7,3.3,3.3,0,0,1,.24,1.29c0,2.43-2.09,5-5,6.52a6.38,6.38,0,0,1-3,.81c-2.73,0-3.85-1.73-3.85-4.31a20.58,20.58,0,0,1,.88-5.12,1.5,1.5,0,0,1,1.53-.86c.8,0,1.52.49,1.52,1.08A19.56,19.56,0,0,0,1082.76,309.93Z"/><path class="cls-3" d="M1110.07,314.24c0,5-6.51,9.85-14.7,10.07-.89,0-1.61-.43-1.61-1s.64-1.08,1.45-1.08c6.1-.1,11.8-3.71,11.8-8.07,0-3.29-3.93-5.5-8.75-6.09-.64-.05-1.21-.43-1.21-1a.84.84,0,0,1,.32-.65,22.82,22.82,0,0,1,5.31-3.34,2,2,0,0,1,.8-.16c.72,0,1.6.38,1.6,1,0,.33-.24.65-.72.87-1.12.53-2.09,1.13-3.37,1.77C1106.45,307.67,1110.07,310.58,1110.07,314.24Z"/><path class="cls-3" d="M1116.33,288.18c-.24-1.67-.64-2.26-.64-2.91,0-.43.48-1,1.52-1a1.56,1.56,0,0,1,1.53.8,22.69,22.69,0,0,1,.64,3c0,.48-.64,1-1.53,1C1117.13,289,1116.41,288.66,1116.33,288.18Zm3.05,15.24c.72,0,1.45.37,1.53.91a27.36,27.36,0,0,0,1.28,4.85,14,14,0,0,1,1,4.2c0,.59-.73,1-1.53,1s-1.53-.43-1.53-1a12.65,12.65,0,0,0-.88-3.77,37.39,37.39,0,0,1-1.37-5.12C1117.85,303.9,1118.42,303.42,1119.38,303.42Z"/><path class="cls-3" d="M1144.68,304.12c0,.59-.72,1-1.53,1-2.41.27-5.14.7-7,1.83-1.45.86-2.49,2-2.49,3.61,0,1.29,1.36,2.37,3,2.37a9.09,9.09,0,0,0,5.46-2.26,1.37,1.37,0,0,1,1-.33c.73,0,1.61.43,1.61,1,0,.27-.16.48-.48.7a12.56,12.56,0,0,1-7.39,2.9c-3.78,0-6.19-2-6.19-4.63,0-1.88,1.45-3.82,3.78-5.06a22.76,22.76,0,0,1,8.75-2.21C1144,303.09,1144.68,303.63,1144.68,304.12Z"/><path class="cls-3" d="M1187.17,281.61c12,0,19.76,6.35,19.76,14.21,0,9.59-8.52,18.69-18.32,18.69a18.2,18.2,0,0,1-9.56-2.75.71.71,0,0,1-.4-.7c0-.54.48-1,1.45-1a2.57,2.57,0,0,1,1.12.27,13.24,13.24,0,0,0,7.39,2.15c7.55,0,15.26-7.32,15.26-16.69,0-7.27-7.23-12.17-16.7-12.17a35.6,35.6,0,0,0-14.14,3.12,1.71,1.71,0,0,1-.72.16c-.81,0-1.61-.53-1.61-1.07a.71.71,0,0,1,.24-.49,43.06,43.06,0,0,1,20.8-12.49,4.63,4.63,0,0,1,.81-.11c.72,0,1.52.43,1.52,1,0,.37-.24.7-.8.86-7.55,2-13.17,5.33-16.47,8.56A34.12,34.12,0,0,1,1187.17,281.61Z"/><path class="cls-3" d="M1225.8,304.12c0,.59-.73,1-1.53,1-2.41.27-5.14.7-7,1.83-1.44.86-2.49,2-2.49,3.61,0,1.29,1.37,2.37,3,2.37a9.15,9.15,0,0,0,5.47-2.26,1.37,1.37,0,0,1,1-.33c.72,0,1.61.43,1.61,1,0,.27-.16.48-.49.7a12.51,12.51,0,0,1-7.39,2.9c-3.77,0-6.18-2-6.18-4.63,0-1.88,1.45-3.82,3.78-5.06a22.76,22.76,0,0,1,8.75-2.21C1225.15,303.09,1225.8,303.63,1225.8,304.12Z"/><path class="cls-3" d="M1233.1,309.88c0-3.13-.08-7.59-.24-12.17-.16-6-.4-12.44-.4-18.2,0-3.34.08-6.41.24-9,0-.53.72-1,1.61-1s1.44.53,1.44,1.07c-.16,2.53-.24,5.6-.24,8.89,0,5.7.41,12.22.41,18.2,0,2,.08,3.87.08,5.65a4.25,4.25,0,0,1,3.29-1.61c2,0,3.85,1.24,5.46,3.77a20.12,20.12,0,0,1,2.73,6.94c0,.49-.56,1-1.52,1-.73,0-1.45-.38-1.53-.92a19,19,0,0,0-2.41-6.14c-1.29-2.15-1.93-2.64-2.65-2.64-1.93,0-2.33,2.53-3.29,9.37-.08.54-.08,1-.16,1.3a1.61,1.61,0,0,1-1.53.86c-.89,0-1.53-.43-1.53-1A24.59,24.59,0,0,0,1233.1,309.88Z"/><path class="cls-3" d="M1259.69,314.89c-4.5,0-6.11-3.23-6.11-7.06,0-.54.65-1,1.53-1s1.53.48,1.53,1c0,1.13.16,5,3,5a8.27,8.27,0,0,0,3.85-1.29c2.17-1.24,2.9-2.59,2.9-3.56s-.89-1.67-2.33-1.67a10,10,0,0,0-4.74,1.57,2,2,0,0,1-1,.26c-.8,0-1.52-.43-1.52-1a.92.92,0,0,1,.48-.75,13.5,13.5,0,0,1,6.75-2.1c3,0,5.38,1.34,5.38,3.77,0,1.83-1.61,3.66-4,5A11.7,11.7,0,0,1,1259.69,314.89Z"/><path class="cls-3" d="M1281.21,314.89c-4.5,0-6.1-3.23-6.1-7.06,0-.54.64-1,1.52-1s1.53.48,1.53,1c0,1.13.16,5,3,5a8.3,8.3,0,0,0,3.86-1.29c2.17-1.24,2.89-2.59,2.89-3.56s-.88-1.67-2.33-1.67a10.07,10.07,0,0,0-4.74,1.57,1.91,1.91,0,0,1-1,.26c-.81,0-1.53-.43-1.53-1a.92.92,0,0,1,.48-.75,13.5,13.5,0,0,1,6.75-2.1c3,0,5.38,1.34,5.38,3.77,0,1.83-1.61,3.66-4,5A11.67,11.67,0,0,1,1281.21,314.89Z"/><path class="cls-3" d="M1301.69,301.85c0,6.2.16,11.31.4,14.38,0,.54-.56,1-1.44,1s-1.53-.43-1.61-1c-.24-3.07-.4-8-.4-14.11,0-9.21.4-21.06,1.61-33,0-.54.72-1,1.6-1s1.37.49,1.37,1.08C1302.09,281,1301.69,292.75,1301.69,301.85Z"/></svg>