<svg id="レイヤー_1" data-name="レイヤー 1" xmlns="http://www.w3.org/2000/svg" viewBox="0 0 1000 801.19"><defs><style>.cls-1{fill:#f2a0d5;}.cls-2{fill:#81a649;}.cls-3{fill:#343434;}</style></defs><path class="cls-1" d="M682.34,29.21c.3-.4.51-1,.91-1.17a3.78,3.78,0,0,1,2.11-.4c.26,0,.6,1.2.45,1.71-1.53,4.88-2.92,9.83-4.86,14.55-1.18,2.89-3.53,5.28-4.88,8.12-2.2,4.61-4,9.4-6,14.13-1.77,4.27-3.56,8.53-5.21,12.85C660,91.87,655,104.72,650.31,117.68c-2.9,8-5.51,16.22-7.88,24.44-3.26,11.26-6.22,22.61-9.2,33.95-2,7.49-3.94,15-5.56,22.57-2.3,10.69-3.31,21.53-1.58,32.41a13.56,13.56,0,0,0,3,6.94c1.53,1.62,4.29,2.11,6.56,3a59.81,59.81,0,0,0,6.72,2.18c3,.73,6.11.86,8.95,1.87a86.54,86.54,0,0,0,24.66,4.59,11.3,11.3,0,0,0,4.76-1c2.34-.89,5.23-.47,7.87-.36,4,.17,8,.55,12,.85,12.08.91,24.25,1.26,36.23,3a29.75,29.75,0,0,1,18.61,10.1,5.55,5.55,0,0,1,1.2,3.53c-.13,3.18.67,6.21.21,9.58A42.16,42.16,0,0,1,753.49,288c-1,2.07-1.41,4.41-2.45,6.44-2.68,5.26-5.7,10.35-8.34,15.63q-5.13,10.2-9.86,20.61c-5.77,12.58-11.32,25.27-17.19,37.81a24.37,24.37,0,0,1-5.1,6.68,7.54,7.54,0,0,1-4.41,1.61c-2.47.22-3.06-.88-2.21-3.18.25-.7.53-1.95.23-2.17a3.48,3.48,0,0,0-2.58-.65,36.45,36.45,0,0,0-4.82,2l-.34-5.13c-.57,0-1-.05-1.39-.09-2.21-.18-2.61-1-1.54-3,3-5.5,6-10.95,8.81-16.55,2.57-5.19,4.6-10.67,7.26-15.82,3.72-7.2,7.86-14.19,11.71-21.34,1.7-3.16,3-6.56,4.75-9.66,2-3.46,4.54-6.62,6.59-10.06s3.84-7.17,5.74-10.76c.12-.23.2-.55.39-.64,1.84-1,3.7-1.88,5.74-2.9C744.26,274.46,738,274,743,270c-3.85-1.85-7-4-10.58-4.95-11-2.81-22.36-3.34-33.68-3.83-9.94-.44-19.88-.91-29.81-1.51-6.48-.4-12.93-1.06-19.4-1.59A69.28,69.28,0,0,1,622,249.5a14.26,14.26,0,0,0-1.61-.81c-4.67-1.81-7.6-5-10-9.58-4-7.57-4.85-15.2-4.32-23.54a151.37,151.37,0,0,1,4.64-28.35c1.45-5.63,2.9-11.26,4.45-16.87q5.28-19,10.67-38.06c1.07-3.77,2.38-7.48,3.68-11.19,3-8.38,5.9-16.78,9-25.11,2.21-5.94,4.66-11.79,7-17.69,2.58-6.5,5-13.07,9.27-18.78,2.92-3.91,5.66-8,8.29-12.08,1.53-2.41,2.67-5.06,4.24-8.08a65.75,65.75,0,0,0-6.66,1.34c-6.87,2.16-13.74,4.34-20.53,6.75-10.48,3.72-20.89,7.63-31.33,11.48-1.35.5-2.67,1.12-4,1.65-2.37.93-4.7,2.49-7.33.55-.28-.21-.89,0-1.56.67l2.32,1.2L562,80.33l4-3.77-.42-.59c-1,.51-2,1-3,1.56-2.81,1.63-5.56,3.37-8.41,4.94-7.27,4-14.69,7.75-21.84,12s-14.24,8.82-21.29,13.35c-7.64,4.91-15.26,9.84-22.79,14.91-4.76,3.2-9.39,6.6-14,10q-11.82,8.85-23.49,17.9c-2.16,1.67-4,3.71-6.17,5.42-6.2,5-12.52,9.85-18.68,14.89-2.52,2-4.74,4.47-7.14,6.67-10.4,9.55-21.08,18.82-31.17,28.68S368,226.55,358.27,236.87c-5.62,6-11.18,12.07-16.31,18.48a222.72,222.72,0,0,0-13,18.38c-4,6.25-7.63,12.78-11.33,19.23-1.16,2-2,4.21-3.05,6.31l.68.61,10.23-6.38.57.51a21.35,21.35,0,0,1-2.34,2.9c-4.44,3.88-8.95,7.69-13.44,11.51-2.87,2.44-6.94,2.48-10.61.79-3.4-1.57-6.05-3.54-5.87-7.52a85.7,85.7,0,0,1,1.39-12.49c.73-3.76,2.12-7.39,3.23-11.08a2.8,2.8,0,0,1,.26-.72c4.76-7.83,9.51-15.66,14.32-23.46,1.76-2.84,3.6-5.64,5.57-8.33,1.5-2,3.28-3.87,4.93-5.81,5.71-6.69,11.32-13.47,17.16-20.05,3.12-3.51,6.68-6.64,10-10,7.12-7.25,14.09-14.66,21.33-21.79,6-5.87,12.08-11.62,18.46-17,1.89-1.61,4.07-2.86,5.63-4.92.45-.59,1.45-.76,2-1a18.1,18.1,0,0,1,2.36-3.15c3.75-3.23,7.52-6.46,11.47-9.45,2.36-1.78,5.09-3.07,7.6-4.67,1.46-.92,3-1.75,2.77-4.06-.06-.52,1.67-1.3,2.66-1.81.57-.3,1.43-.09,1.92-.45,6.66-4.84,13.3-9.7,19.87-14.65,2.27-1.72,4.33-3.72,6.48-5.59a12.52,12.52,0,0,1,1-.82c5-3.52,10.07-7,15.13-10.52,4.35-3,8.77-5.86,13.1-8.86,1.33-.92,2.34-2.38,3.75-3.09,2.93-1.48,6.08-2.49,9-3.9,4.35-2.09,8.71-4.18,12.87-6.58,7.11-4.1,14-8.6,21.11-12.63,5.54-3.12,11.37-5.71,17-8.65,2.19-1.14,4.17-2.68,6.34-3.87,3.57-2,7.19-3.82,10.82-5.67,3.87-2,7.79-3.82,11.66-5.78,4.22-2.14,8.34-4.5,12.63-6.47,2.59-1.19,5.51-1.64,8.17-2.72,4.84-2,9.51-4.35,14.39-6.19,7.82-3,15.73-5.64,23.63-8.36,6.23-2.14,12.5-4.15,18.75-6.25,3.15-1.06,6.21-2.72,9.45-3.16,4.27-.58,8.66-1.53,13,.18,5,2,5.95,3.3,5.54,8.67a9.52,9.52,0,0,0,.75,2.93ZM609.52,47l-.19-.57c-.87.81-1.6,1.91-2.62,2.38-5.55,2.56-11.14,5-16.8,7.35-.87.36-2.16-.31-3.51-.55l-2.51,3.44a9.23,9.23,0,0,0-2.91.47c-2.2,1.2-4.21,2.75-6.42,3.92-3.24,1.71-7.06,2.64-9.78,4.93-5,4.22-11.32,5.76-16.71,9.09-1.48.92-3,1.74-4.51,2.6l.36.71a9.09,9.09,0,0,0,1.66-.23c3.87-1.24,6.89-4.59,11.28-4.6a1.69,1.69,0,0,0,.84-.43c2.29-1.61,4.4-3.56,6.87-4.8,9.13-4.61,18.32-9.11,27.59-13.42,5.06-2.35,10.31-4.29,15.51-6.3,1.59-.62,3.41-.68,5-1.36,4.13-1.79,8.09-4,12.28-5.63,3.34-1.31,7-1.89,10.38-3s6.92-2.88,10.49-4c7.39-2.21,14.86-4.15,22.29-6.21a2.72,2.72,0,0,0,1.2-.43,12.76,12.76,0,0,0,1.26-1.73,5.88,5.88,0,0,0-2-.47,31.57,31.57,0,0,0-10,2.56c-3.15,1.5-6.89,1.72-10.24,2.88-8.32,2.85-16.57,5.9-24.83,8.9-3.62,1.31-7.2,2.73-10.83,4A15.87,15.87,0,0,1,609.52,47ZM513.29,92.93c2.08,1.48,3.4.58,4.65-.24,1.57-1,3-2.33,4.6-3.25,1.12-.63,2.63-.6,3.72-1.26,1.79-1.09,3.36-2.53,5-3.78.8-.59,1.68-1.1,2.52-1.65l-.45-.68A113,113,0,0,0,513.29,92.93ZM534,80.69,536.72,82c1.35-2.81,4-3.26,6.35-4.21s4.42-1.68,6.64-2.51C543.48,73.67,539.46,78,534,80.69ZM430,153.26c-3,.44-11.28,7.5-11.5,9.93C422.13,159.89,427.34,158.38,430,153.26Z"/><path class="cls-2" d="M693.88,418.36c-6.85,1.33-12-3.6-18.17-4.28-6.51-.72-12.94-2.25-19.42-3.37-2.94-.51-5.9-1-8.87-1.29-6.61-.57-13.23-1.07-19.85-1.46-14-.83-28.05-1.66-42.08-2.33-7.78-.37-15.58-.46-23.37-.58-10.2-.15-20.41-.11-30.61-.35-9.85-.24-19.7-.75-29.55-1.08-4.45-.16-8.9-.12-13.35-.28-13.36-.46-26.73-1-40.09-1.44-5.47-.17-10.95-.09-16.42-.06a7.39,7.39,0,0,0-1.83.6c-.53.15-1.21.52-1.59.33-3.66-1.86-7.5-.81-11.27-.81-2.46,0-4.93.07-7.39,0-6.31-.09-12.62-.08-18.92-.36-4.66-.21-9.29-1-13.94-1.18-3.57-.1-7.15.43-10.73.69-.51,0-1.11.32-1.51.13-4.77-2.18-9.82-.95-14.72-1.08-9.6-.26-19.21-.21-28.81,0-9.44.19-18.88.7-28.31,1.06-10.3.4-20.6.74-30.89,1.2-3.92.18-7.82.8-11.73.88-12.87.27-25.75.39-38.62.55-4.38.06-8.76.07-13.13.1a7.42,7.42,0,0,1-7.4-9.69c.22-.73,0-1.64.35-2.25a4.82,4.82,0,0,1,2-2.24c5.53-1.93,11.1-3.8,16.73-5.44a42,42,0,0,1,8.48-1.48c8.79-.66,17.6-1.1,26.39-1.65,11.37-.71,22.74-1.39,34.1-2.19,4.41-.32,8.78-1.11,13.19-1.33,5.44-.26,10.91-.08,16.36-.23,4.08-.12,8.16-.5,12.25-.7,2.65-.13,5.31-.22,8-.19,7.19.06,14.37.25,21.56.29,4.12,0,8.24-.33,12.35-.21,5.81.18,11.61.7,17.43,1,5,.22,10.05.22,15.07.43,8.88.36,17.76.89,26.64,1.17,7.79.24,15.59.12,23.37.37,6.51.21,13,.68,19.52,1.11s12.87,1,19.31,1.44A3.23,3.23,0,0,0,486,382c3.91-2.06,7.71-.26,11.59.12,4.68.46,9.41.44,14.11.6q13.23.47,26.46.89c3.43.11,6.86.05,10.28.16,5.44.16,10.88.47,16.32.59,4.48.09,9-.16,13.45,0,6.55.25,13.1.81,19.65,1.12,5.94.29,11.89.35,17.83.65,6.23.32,12.45.83,18.68,1.19s12.5.54,18.74,1c2.6.21,5.14,1.16,7.74,1.55,5.34.79,10.7,1.4,16.05,2.12,6.2.84,12.27,2.21,17.79,5.3a10.86,10.86,0,0,1,2.4,2.43c.28.31.32.89.63,1.09,4.46,2.8,2.87,6.49,1.66,10.22-.58,1.79.31,4.09-1.8,5.34C696.35,417.12,695.1,417.72,693.88,418.36ZM593.14,388.83,593,390.2h19.52l0-.37Zm49,7.27c-1.51-1.6-3.08-2.46-5.24-.44Z"/><path class="cls-2" d="M573.38,511.34c.68,1.77-.34,2.46-1.74,2.68-1.77.29-3.59.33-5.37.54-.89.11-1.76.35-3.23.65a9.83,9.83,0,0,0,2.45.86c5.8.06,11.61.35,17.38,0,8.2-.55,16.36-1.57,24.52-2.46,2-.21,4-.7,5.92-1.06l.12-1a10,10,0,0,0-2.73-.58c-7.69.53-15.37,1.18-23.06,1.73-4.07.3-8.15.45-13.13.72,1-1.2,1.49-2.48,2.15-2.56,4.39-.55,8.81-.83,13.22-1.21,1-.1,2-.26,3.08-.42,3.2-.49,6.39-1,9.58-1.48,6.32-.91,12.63-1.77,18.94-2.71a14.76,14.76,0,0,0,2.71-1c-6.38-6.75-15-11.38-16.39-22,3.37,1.23,6.47,1.22,9.1,3.55,1.71,1.5,4.52,1.71,6.79,2.61,3.8,1.5,7.54,3.14,11.35,4.62,5.62,2.18,10.2,5.87,14.52,9.93.92.87,1.61,1.54,1,3.25-.86,2.33,1.49,1.68,2.85,2,.15,2.26-.21,4.1-2.54,5.31-1.57.82-2.81,2-.83,4,1.41,1.42-.12,2.11-1.34,2.24-2.9.31-5.82.43-8.74.65-7,.51-14,1-21,1.56-8.2.65-16.4,1.26-24.59,2-8.52.79-17,1.81-25.56,2.58-5.63.51-11.28.69-16.91,1.17-9,.76-18.06,1.87-27.11,2.43-11.94.73-23.9,1.3-35.85,1.51-19.48.35-39,.36-58.46.52-11.14.09-22.27.26-33.41.27-9.94,0-19.88-.29-29.82-.18-8.4.1-16.8.69-25.2.87-4.37.1-8.74-.21-13.11-.34-6.25-.19-12.54-.06-18.75-.67-6.81-.66-13.54-2-20.3-3.08-1.36-.22-2.69-.84-4-.81-6.83.16-11.33-4.07-15.93-8.18a12.72,12.72,0,0,0-1.26-1.28c-6.59-4.38-7.75-11.36-8.3-18.34-.85-10.69,2.63-20.43,7.66-29.71,2.85-5.27,5.59-10.6,8.46-15.86,3.27-6,8.36-10.48,13-15.34a21.72,21.72,0,0,0,2.55-2.88c1.26-1.9,3-2.71,5.15-3.38,1.88-.56,3.39-2.4,5-3.76.88-.76,1.52-2.25,2.44-2.41a15.46,15.46,0,0,1,5.08.4,5.92,5.92,0,0,1,2.54,1.11,2.12,2.12,0,0,1,.71,1.8c-.63,1.84-1.58,3.56-2.26,5.39a5,5,0,0,0,.14,2,17.19,17.19,0,0,0,1.43-1.4c.19-.23.17-.64.29-1.18l3.89-.45a46.65,46.65,0,0,1-.94,5.22,8,8,0,0,1-1.87,3.55c-2.73,2.46-5.75,4.61-8.54,7a7.53,7.53,0,0,0-1.46,2.61,29.75,29.75,0,0,1-2,4.56c-3,4.35-6.44,8.45-9.35,12.87a86.3,86.3,0,0,0-7.74,13.54c-2,4.84-2.47,10.36-4.6,15.14-1.74,3.91-.37,6.82,1.29,9.74,1.55,2.75,3.68,5.25,7,6.19.49.14,1.2.17,1.42.51,2,3.1,4.65,1.85,7.33,1.25a50.17,50.17,0,0,1,8.33-1.25c8.21-.43,16.44-.8,24.66-.92,8.73-.14,17.47.1,26.21,0,9.23-.07,18.47-.46,27.71-.42,8.47,0,16.94.53,25.41.7,4.51.09,9-.09,13.55-.1,5,0,9.94,0,14.91,0,10.54,0,21.08,0,31.62-.12,4.6,0,9.2-.29,13.81-.39q12.55-.26,25.11-.42c1.09,0,2.2.48,3.29.44,6-.25,12-.59,18-.92,1.46-.08,2.91-.32,4.36-.36,8.89-.23,17.79-.36,26.68-.66C564.8,512.14,569,511.68,573.38,511.34Z"/><path class="cls-2" d="M385.19,483.13a10.62,10.62,0,0,1,2.27,1.19,1.94,1.94,0,0,1,.46,1.58,2.05,2.05,0,0,1-1.24,1,5.9,5.9,0,0,1-1.79.13c-2.11,0-4,.35-4.14,3.05,0,.26-.4.49-.48.58-2.74-1.89-5.38-3.7-8-5.53-3.16-2.23-2.65-5.74-2.39-8.7.61-7,3.69-13.06,7.87-18.66,2.11-2.83,3.67-6.06,5.51-9.08a12.66,12.66,0,0,1,1.56-2c4-4.23,7.89-8.56,12.06-12.6,1.72-1.65,4-2.71,6.13-4,1.17-.7,2.49-1.15,3.64-1.88,1.83-1.16,3.56-1.61,5.41,0a2.5,2.5,0,0,0,1.66.53c1.65-.15,3-.21,4.39,1.26a8,8,0,0,1,2.52,6.18,12.26,12.26,0,0,0,0,2.57c.71,4.55,0,8.44-4.16,11.28-1,.67-1.25,2.32-1.85,3.51-.23.45-.38,1-.76,1.3a40.45,40.45,0,0,1-4.91,3.09c-7.15,3.54-12,9.53-16.66,15.67-2,2.65-4.14,5.2-6.19,7.82A11.78,11.78,0,0,0,385.19,483.13Z"/><path class="cls-2" d="M550.73,480.28a65.56,65.56,0,0,1-5.76-4c-1.32-1.13-3-2.5-3.28-4a15.18,15.18,0,0,1,.41-7.55A43.33,43.33,0,0,1,550,451.42c3.1-3.65,6.13-7.37,9.11-11.11,1.6-2,3-4.18,4.57-6.15a4.77,4.77,0,0,1,5.54-1.68c2.55.89,5,1.93,7.54,3a1.86,1.86,0,0,1,1.06,1.07c.56,3.33,3.65,4.48,5.61,6.58s1.5,4-1.2,5.22c-.68.31-1.64.94-1.72,1.53-.56,3.87-3.22,6.49-5.69,9-6.37,6.44-13,12.6-19.69,18.74A22.49,22.49,0,0,1,550.73,480.28Z"/><path class="cls-2" d="M470.19,473.42c-5.47.6-5.91.73-6.5,1.85-2-1.29-3.85-2.74-5.92-3.84-3.93-2.09-4.47-6.79-3.31-11,1.53-5.55,4.82-9.87,8.47-14.12s7-8.67,10.3-13.12c1.91-2.55,7.49-4.14,10.25-2.49,2.15,1.3,4,3.2,6.23,4.25a11.23,11.23,0,0,1,5.18,4.89,2.69,2.69,0,0,1,.12,2.35c-2.7,2.92-5.56,5.69-8.38,8.51-4.78,4.78-9.59,9.53-14.34,14.35C469.76,467.62,469.81,467.66,470.19,473.42Z"/><path class="cls-3" d="M129.68,642l-2.9-1.45a6.48,6.48,0,0,1-1.46-5.07l1.46-3.2a41.33,41.33,0,0,1,11-3.77l.29-1.59q-5.81-7.69-12-15.09t-12.48-15h-3.48q-8,1.61-16.18,3T77.59,603a8.33,8.33,0,0,1-4.06-1.6,7,7,0,0,1-1.45-5.22l1.45-2.9a88.55,88.55,0,0,1,15.74-4.14q8.19-1.36,16.9-2.54v-1a48.23,48.23,0,0,0-4.64-8.56,24.67,24.67,0,0,1-3.77-8.71l1.6-2.9a6.51,6.51,0,0,1,5.07-1.45l3,1.6a39.86,39.86,0,0,1,5.8,9q2.32,4.93,5.23,9.87h3.33q6.82-.87,13.35-2.18a117.38,117.38,0,0,1,13.64-1.88l2.9,1.45a6.52,6.52,0,0,1,1.3,5.22l-1.3,2.9a48.63,48.63,0,0,1-12,2.9q-6.39.74-12.77,2v1q5.07,5.52,9.79,11.53t9.8,11.39l2.9,3.77,1.16,1.89H151v.58h.58v.58l1.6.73a6.51,6.51,0,0,1,1.45,5.07l-1.45,3.2a91.28,91.28,0,0,1-11.32,4.57A70.14,70.14,0,0,1,129.68,642Zm-16,32.36a121.06,121.06,0,0,1-15.45-3.34,33.91,33.91,0,0,1-13.57-7.54,15.26,15.26,0,0,1-4.06-9.58l1.45-2.9a6.77,6.77,0,0,1,5.37-1.31l2.9,1.46,3.34,4.49,3.62,2.9a100.52,100.52,0,0,0,9.8,3.12,40.45,40.45,0,0,0,10.52,1.38,87.53,87.53,0,0,0,10.8-1.81q5.3-1.23,9.94-2.69l2.9,1.46a7.21,7.21,0,0,1,1.45,5.94l-1.45,3a37,37,0,0,1-13.2,4Q121,673.82,113.72,674.4Z"/><path class="cls-3" d="M225,675.41a11.87,11.87,0,0,1-8.41-5.07,29.91,29.91,0,0,1-6.09-12.92l1.45-3a6.82,6.82,0,0,1,5.07-1.31l3.2,1.45,5.22,8.85h1.16l.73-1.3a24.07,24.07,0,0,0,4.93-7.26q1.88-4.2,3.92-8,1.88-6.68,3.55-13.27a43.32,43.32,0,0,0,1.09-14,26.25,26.25,0,0,0-4.79-9.58,28.6,28.6,0,0,0-9.14-5.37,38.44,38.44,0,0,0-10.88-2A207.4,207.4,0,0,1,209,632q-4.56,14.37-10.37,28.3a7.36,7.36,0,0,1-5.51,1.59l-3.05-1.45a6.28,6.28,0,0,1-1.45-5.08q4.63-12.46,9-25.24a177.13,177.13,0,0,0,6.82-26.84h-1.59a35.72,35.72,0,0,0-12.77,4.79A71,71,0,0,1,177.87,614l-2.9-1.45a6.51,6.51,0,0,1-1.45-5.07l1.6-3a46.94,46.94,0,0,1,15-9.14,72.4,72.4,0,0,1,17.34-4.06q1.46-6.24,2.25-12a50.81,50.81,0,0,1,2.83-11.1,7.12,7.12,0,0,1,5.22-1.31l3,1.45a6.55,6.55,0,0,1,1.45,5.23,74.74,74.74,0,0,0-1.6,8.56q-.58,4.5-1.45,9.43a61.07,61.07,0,0,1,14.51,3.62,31.22,31.22,0,0,1,12,8.71,26.76,26.76,0,0,1,5.73,11.82,48.44,48.44,0,0,1,.8,13.86,123,123,0,0,1-5.59,20.89,80.36,80.36,0,0,1-10.08,19.15l-1.74,1.89A14,14,0,0,1,225,675.41Zm59-56a21.56,21.56,0,0,1-5.66-3.19,120.26,120.26,0,0,1-13.34-14.43,103.6,103.6,0,0,0-13.21-14,6.75,6.75,0,0,1-1.45-5.22l1.6-3.19a6.41,6.41,0,0,1,4.93-1.31,32.2,32.2,0,0,1,9.43,7.69q5.08,6.39,10.67,12.63a96.56,96.56,0,0,0,12,11.31,6.87,6.87,0,0,1,1.74,5.52l-1.6,3A6.21,6.21,0,0,1,284.07,619.41Z"/><path class="cls-3" d="M347.87,674.25a37.06,37.06,0,0,1-13.06-3.48,34.08,34.08,0,0,1-11-8.56,26.07,26.07,0,0,1-4.06-6.82,33.46,33.46,0,0,1-2-7.4V634.65q.58-6.67,1.16-13.35V594.89a85.22,85.22,0,0,1-.72-8.77q-.15-4.43-.15-9.07l1.45-2.9a6.73,6.73,0,0,1,5.22-1.45l2.91,1.45a23.27,23.27,0,0,1,1.88,10.08,56.2,56.2,0,0,0,.73,10.66V621.3L329,634.65v12.76a17.91,17.91,0,0,0,5.51,9.58,27.64,27.64,0,0,0,9.43,5,27.15,27.15,0,0,0,11.17.8,43.1,43.1,0,0,0,10.45-3.62,39.81,39.81,0,0,0,9.28-6.53l.29-.58a11.78,11.78,0,0,0,3.78-4.94,37.32,37.32,0,0,1,2.61-7.83,6.71,6.71,0,0,1,5.22-1.45l2.9,1.45a10.51,10.51,0,0,1,1.6,7.54,35.27,35.27,0,0,1-6.24,11.9l-2,1.16-2.61,3.34a49.46,49.46,0,0,1-15.09,8.7A43.08,43.08,0,0,1,347.87,674.25Zm15.81-74.13-2.9-1.45a49.45,49.45,0,0,0-5.37-7.4,58.74,58.74,0,0,0-6.53-6.39,6.75,6.75,0,0,1-1.45-5.22l1.45-2.9a6.78,6.78,0,0,1,5.23-1.45l5.22,3.19,1.74,1.74,2.32,2.61,2.32,2.61a14.36,14.36,0,0,1,4.65,10.16l-1.46,3A6.75,6.75,0,0,1,363.68,600.12Zm18.43-2.47-2.9-1.45a133.87,133.87,0,0,0-5.88-12.48,56.36,56.36,0,0,1-5-13.05l1.46-2.91a7.21,7.21,0,0,1,5.36-1.45l2.9,1.45q3.19,6.11,6.39,12.34a44.83,44.83,0,0,1,4.35,13.2l-1.45,2.9A6.77,6.77,0,0,1,382.11,597.65Z"/><path class="cls-3" d="M444.74,631.89a9.63,9.63,0,0,1-4.79-2.32l-1-1.16a26.07,26.07,0,0,1-5.66-11.17,93.19,93.19,0,0,1-2-12.48V591.41q.87-5.5,1.74-11.1a25.68,25.68,0,0,1,3.92-10.23,5.84,5.84,0,0,1,4.93-1.74l2.9,1.45a8.2,8.2,0,0,1,1.45,5.81,37.92,37.92,0,0,0-2.61,7.69q-.87,3.91-1.45,8.12v13.35a40.91,40.91,0,0,0,2.32,12h.87l5.66-8.41a7.23,7.23,0,0,1,5.08-1.16l2.76,1a8.77,8.77,0,0,1,1.45,6l-7,11h-.58l-2.9,4.35A7.53,7.53,0,0,1,444.74,631.89Zm11,47.88L453,678.46a7.72,7.72,0,0,1-1.45-5.66l1.45-2.61a41.52,41.52,0,0,0,12.77-12,148.39,148.39,0,0,0,8.85-14.58,90.82,90.82,0,0,0,7-25.46,271,271,0,0,0,1.89-27.06V577.19l-1.16-6.81,1.45-3a5.83,5.83,0,0,1,4.93-1.6l2.76,1.6a28.08,28.08,0,0,1,2.9,9.86v13.93A159.07,159.07,0,0,1,488.77,637q-6.16,22.71-24.88,39.53A9.91,9.91,0,0,1,455.77,679.77Z"/><path class="cls-3" d="M527.52,622.83a9.16,9.16,0,0,1-5.39-1.68,5.48,5.48,0,0,1-1.07-4.19l1.07-2.27a7.26,7.26,0,0,1,5.15-1.19l1.79.23,15.68-1.07V611l-.24-.24V599.86l.24-.6h-.84c-2.47.16-5,.34-7.48.54s-5.16.29-7.95.29l-2.4-1.19a5.55,5.55,0,0,1-1.19-4.31l1.19-2.39A80.66,80.66,0,0,1,540,590.28q7.13-.36,14.06-.59a30.93,30.93,0,0,0,.18-5.93,10,10,0,0,1,1.37-5.92,5.42,5.42,0,0,1,4.19-1.2l2.39,1.08,1.2,2.51v9.46H573l3.47.23,15.44-.47,2.39,1.19a5.61,5.61,0,0,1,1.2,4.31l-1.2,2.39a21.87,21.87,0,0,1-8.67,1.44,55.29,55.29,0,0,0-9,.48l-.72,12.44q5.5.24,11.37.6a41.13,41.13,0,0,1,11,2.15,6.31,6.31,0,0,1,1.07,4.43l-1.07,2.27a7,7,0,0,1-4.91,1.44,27,27,0,0,0-6.82-1.32l-7.06-.48H564.13q-9.33.24-18.37,1T527.52,622.83Zm42.59,55.39q-6.58-.6-13.46-.6a49.46,49.46,0,0,1-13.34-1.79,17.35,17.35,0,0,1-1.55-7.18V639.22a20.25,20.25,0,0,1,1.55-10.17,5.32,5.32,0,0,1,4.19-1.32,9.44,9.44,0,0,0,4.78.72l.24-.24H565.8q3.84.48,7.9.66a22.34,22.34,0,0,1,7.54,1.61,22.38,22.38,0,0,1,2,9.4q0,5,.24,10.23l-.24.23v23.81l-1.08,2.4a5.57,5.57,0,0,1-4.18,1.19l-.6-.12A24.41,24.41,0,0,1,570.11,678.22Zm4.43-30.63v-3.11l-.48-6.46-8.26-.6H552.52l-1.43.24-.24,9.69,7.66.24ZM574.3,669V656.93H558.51l-7.66-.24v11q5.63.72,11.6.9T574.3,669Zm-7.54-57.31v-2.87l.48-9.93h-13.4l-.24,1V610l.24,2.15H555Z"/><path class="cls-3" d="M622.68,632.28l-2.51-1.2a5.92,5.92,0,0,1-1.2-4.54l1.2-2.28q5.15-3.59,9.87-7.3a27.6,27.6,0,0,1,10.71-5.14l2.51,1.2a5.54,5.54,0,0,1,1.2,4.42l-1.2,2.28a54.61,54.61,0,0,0-10.17,6.82A29.74,29.74,0,0,1,622.68,632.28Zm9.81-28-9.81-5a6.59,6.59,0,0,1-1.19-4.67l1.19-2.27a6.06,6.06,0,0,1,4.55-1.32,25.77,25.77,0,0,1,8.85,4.43,6.53,6.53,0,0,1,1.44,5l-1.2,2.28A6.87,6.87,0,0,1,632.49,604.28Zm-7.17,74.66-2.4-1.2a6,6,0,0,1-1.19-4.54l1.19-2.4a90.47,90.47,0,0,0,16.45-8,73.44,73.44,0,0,0,14.42-11.61l.12-.6h-6.22l-3.35.48H630.82a6,6,0,0,1-3.47-1.55,5.56,5.56,0,0,1-1.2-4.43l1.2-2.27,2.39-1.2h14.6l3.35-.48h11.25l.11-8.61a22.26,22.26,0,0,1-10.28-1.92,47,47,0,0,1-2.76-6.46V613.26q.36-5,.3-10.53a28.1,28.1,0,0,1,1.74-10.29l.72-.72a5.61,5.61,0,0,1,4.66-1.2,39.9,39.9,0,0,1,3.71-7.23q2.26-3.54,4.55-7.36a5.72,5.72,0,0,1,4.42-1.2l2.28,1.08a6.86,6.86,0,0,1,1.31,4.9c-1,1.76-2,3.55-3.05,5.39s-2,3.55-2.81,5.14l1.44.24h10.17l2.51,1.08a10.32,10.32,0,0,1,1.91,6.22v24.05l.48,5.5L679,630.72a5.5,5.5,0,0,1-4.43,1.32l-.84-.24-5.86.48v.84a36.86,36.86,0,0,1,.36,7.77h18.78q4.79.24,9.33.36a30.39,30.39,0,0,1,8.62,1.44,6,6,0,0,1,1.55,4.78l-1.19,2.28a8.5,8.5,0,0,1-6.22,1.31,37.08,37.08,0,0,0-5.93-.48c-2,0-4.09-.07-6.16-.24H674.61v.12l3.11,3.83a74,74,0,0,0,14.12,9.81A57.58,57.58,0,0,0,708,670a5.43,5.43,0,0,1,1.2,5l-1.2,2.27a5.39,5.39,0,0,1-4.79,1.2,60.17,60.17,0,0,1-17.05-6.64A98.42,98.42,0,0,1,671,661l-2.75-3v5.39l.24.23v11.25l-1.2,2.39a5.75,5.75,0,0,1-4.43,1.2l-2.27-1.08a5.94,5.94,0,0,1-1.67-5.38l.11-8.25-.11-4.07h-.36a152.12,152.12,0,0,1-15.2,11.78A49.14,49.14,0,0,1,625.32,678.94Zm45.1-56.35v-6.1h-5.86l-.24.24h-8.73v6.1l5.26.12Zm0-15.68v-5.86l-14.24-.72-.24,7.06h8.14Zm35.65,24.89a30.44,30.44,0,0,1-10.82-5.38q-5-3.84-9.52-8a6.61,6.61,0,0,1-1.31-4.55l1.31-2.15a6.15,6.15,0,0,1,4.55-1.2,61.41,61.41,0,0,1,7.36,5.69,29.64,29.64,0,0,0,7.84,5.08v.36a6.08,6.08,0,0,1,4.42,1.91,6,6,0,0,1,1.2,4.55l-1.2,2.27A8.59,8.59,0,0,1,706.07,631.8Zm-15.79-25.24-2.51-1.2a6.25,6.25,0,0,1-1.32-4.67l1.32-2.27q3.71-2.26,6.82-4.37a16.36,16.36,0,0,1,7.42-2.57l2.51,1.08a6,6,0,0,1,1.08,4.66l-1.08,2.52a41.79,41.79,0,0,0-6.76,3.82A18.43,18.43,0,0,1,690.28,606.56Z"/><path class="cls-3" d="M749.31,681.21a48.55,48.55,0,0,1-5.62-2.27c-1.83-.88-3.67-1.88-5.5-3a5.82,5.82,0,0,1-1.44-4.55L738,669a5.92,5.92,0,0,1,4.42-1.2l5.51,2.16a25.72,25.72,0,0,0,1.43-10.05H737.47a11.06,11.06,0,0,1-6.94-1.8,5.54,5.54,0,0,1-1.2-4.31l1.2-2.39a8.75,8.75,0,0,1,6.7-1.19l.24.23h10.65V650a17.58,17.58,0,0,1-3.83-8.62l6-10.29-10.53-.24-8.49,7.66a11,11,0,0,1-7.42,3.35l-2.39-1.2a5.53,5.53,0,0,1-1.2-4.3l1.2-2.4.71-.24v-.47a74,74,0,0,0,9.7-7.78A59.88,59.88,0,0,0,740,616h-7.3l-9.81.48a6.37,6.37,0,0,1-3.35-1.44,5.59,5.59,0,0,1-1.19-4.31l1.19-2.39a31.9,31.9,0,0,1,9.69-1.44c3.43,0,6.86-.07,10.29-.24v-1.19l-.24-6h-2.75l-6.22.24-2.39-1.2a5.94,5.94,0,0,1-1.2-4.43l1.2-2.39A24,24,0,0,1,739.26,590V580a6.37,6.37,0,0,1,1.44-3.35,5.59,5.59,0,0,1,4.31-1.19l2.39,1.19,1.2,2.4v10.29a23.16,23.16,0,0,1,8.85.71l5.74-11.24a5.56,5.56,0,0,1,4.31-1.2l2.39,1.2a6.33,6.33,0,0,1,1.2,4.54,108.79,108.79,0,0,1-5.5,11.67q-3.12,5.68-6.47,11.19h9.58l2.87,1.43a5.56,5.56,0,0,1,1.19,4.31l-1.19,2.39a8.84,8.84,0,0,1-5,1.44l-.24-.24H755.54a7.54,7.54,0,0,0-3.83,1l-3.59,5.26a33.18,33.18,0,0,0,6.94.24,10.09,10.09,0,0,1,6.22,1.43,5.55,5.55,0,0,1,1.19,4.79,80.13,80.13,0,0,1-3.7,7.42c-1.36,2.39-2.68,4.79-3.95,7.18a15.55,15.55,0,0,1,2.87,7.18h3.59l2.15-.24,2.63,1.43a5.83,5.83,0,0,1,1.44,4.55l-1.2,2.39a10.8,10.8,0,0,1-7.65,1.32,51.71,51.71,0,0,1-1.08,10.65,26.75,26.75,0,0,1-4,9.45A8.43,8.43,0,0,1,749.31,681.21ZM749.07,604v-.24l3.12-5H748.6V604l.24.24Zm24.65,76-2.39-1.2a5.56,5.56,0,0,1-1.2-4.31l1.2-2.39a24.89,24.89,0,0,0,5.5-5.26,32.4,32.4,0,0,0,4.67-5.27,67.66,67.66,0,0,0,3.71-5.86v-1q-2.88-3.82-5.75-7.42a15.61,15.61,0,0,1-3.35-8.37l1.2-2.39a5.56,5.56,0,0,1,4.31-1.2l2.39,1.2,3.11,5.74h.48l2.63,3.11a105.9,105.9,0,0,0,4.07-15.55q1.44-7.9,2.39-16l-13.16-.47q-1,4.3-1.79,8.73A35.15,35.15,0,0,1,779,630.6a5.53,5.53,0,0,1-4.3,1.2l-2.39-1.2a9.54,9.54,0,0,1-1.44-4.06A97,97,0,0,0,774.44,611q1.18-8.13,1.67-16.39v-9.81a6.34,6.34,0,0,1,1.44-3.35,5.59,5.59,0,0,1,4.31-1.2l2.39,1.2,1.2,2.39v10.77l-.72,9.21a73.07,73.07,0,0,0,7.42.6q3.83.12,7.65.36h11.85a6.93,6.93,0,0,1,5,1.44,5.79,5.79,0,0,1,1.44,4.54l-1.2,2.4a7.76,7.76,0,0,1-5.74,1.19l-5-.24q-1.18,10.29-3.23,20.46a90.85,90.85,0,0,1-6.22,19.5c1.28,1.6,2.69,3.22,4.25,4.85a26.73,26.73,0,0,0,5,4.13,18.41,18.41,0,0,0,4.79,3.83v.47l7.18,4.07a5.85,5.85,0,0,1,1.44,4.55l-1.2,2.39a5.56,5.56,0,0,1-4.31,1.2,50,50,0,0,1-11.19-6.82,128.91,128.91,0,0,1-10.22-9.21l-.24-.48h-.48l-6.94,9.57-1.44.72-2.15,3.11L779,678.34A6.78,6.78,0,0,1,773.72,680Z"/><path class="cls-3" d="M834.31,614a6.33,6.33,0,0,1-3.35-1.43,21.38,21.38,0,0,1-1.2-11.13,18.86,18.86,0,0,1,1.68-10.53,8.21,8.21,0,0,1,5.62-1.43c2.71.32,5.46.55,8.26.71l19.62-.71V579a6,6,0,0,1,1.55-3.47,5.57,5.57,0,0,1,4.31-1.2l2.51,1.2,1.2,2.39v11h4.55q6.69-.48,13.28-.66t13.16-.42a31.73,31.73,0,0,1,11,1.8,5.53,5.53,0,0,1,1.2,4.3l-.24,4,.24.24v10.05l-1.2,2.39a6.74,6.74,0,0,1-4.66,1.2l-2.63-1.2a5,5,0,0,1-1.68-5.14,19,19,0,0,0,.48-6.82l-.36-1.08-5.26-.24q-14.83.6-29.5,1.14t-29.37,1.26l-3.83-.24a31,31,0,0,0-.24,6.76,10.76,10.76,0,0,1-1.31,6.28A8,8,0,0,1,834.31,614Zm-.12,64.37-2.51-1.19a5.76,5.76,0,0,1-1.2-4.43l1.2-2.39a78.32,78.32,0,0,1,17.59-2.4q9.21-.24,18.54-.95a36.83,36.83,0,0,0,.84-10.77H867l-12.8.72-2.51-1.2a5.68,5.68,0,0,1-1.32-4.43l1.32-2.39a18.5,18.5,0,0,1,8-1.68,88.23,88.23,0,0,0,9-.47,33.65,33.65,0,0,1,.71-9h-3.82l-9.34.72a6.49,6.49,0,0,1-3.47-1.44,6,6,0,0,1-1.19-4.42q2.38-3.82,4.6-7.84a64.76,64.76,0,0,0,3.89-8.43q-3.82,0-7.36.12a10,10,0,0,1-6-1.56,5.59,5.59,0,0,1-1.19-4.31l1.19-2.39,2.52-1.32H864l11.13-.95h19.62l3.47,1.79a5.61,5.61,0,0,1,1.2,4.31l-1.2,2.39a10.59,10.59,0,0,1-4.31,1.44l-1.19-.48H875.11l-4.67.72c-.8,2.15-1.63,4.23-2.51,6.22s-1.88,4-3,6h3.95l12.8-1v-1.31l-.36-2.4,1.2-2.39a5.91,5.91,0,0,1,4.42-1.19l2.52,1.19q2.14,3.84,4.42,7.72a22.13,22.13,0,0,1,2.87,8.31l-1.31,2.4a5.87,5.87,0,0,1-4.91,1.19L888,639.7l-1.32-2.87h-6.82l-2,.23v1.2l.36,8h4.07l8.13-.72,3.23,1.44a5.53,5.53,0,0,1,1.2,4.3l-1.2,2.4a14.18,14.18,0,0,1-7.24,1.67,57.87,57.87,0,0,0-8.19.36,47.53,47.53,0,0,1-.72,10.77h2.75l.24-.24h30.87l3.35,1.67a5.23,5.23,0,0,1,1.08,4.31l-1.08,2.51a8.12,8.12,0,0,1-5.86,1.2l-.24-.24H880.37q-11.48.48-23,1.2Z"/><path class="cls-3" d="M94.77,724.33c12,0,19.76,6.35,19.76,14.21,0,9.59-8.52,18.69-18.31,18.69a18.17,18.17,0,0,1-9.56-2.75.71.71,0,0,1-.4-.7c0-.53.48-1,1.44-1a2.65,2.65,0,0,1,1.13.27,13.2,13.2,0,0,0,7.39,2.15c7.55,0,15.26-7.32,15.26-16.69,0-7.27-7.23-12.17-16.71-12.17a35.6,35.6,0,0,0-14.14,3.12,1.72,1.72,0,0,1-.72.17c-.8,0-1.61-.54-1.61-1.08a.73.73,0,0,1,.24-.49,43.09,43.09,0,0,1,20.81-12.49,4.4,4.4,0,0,1,.8-.11c.72,0,1.53.43,1.53,1,0,.37-.24.7-.81.86-7.55,2-13.17,5.33-16.46,8.56A34,34,0,0,1,94.77,724.33Z"/><path class="cls-3" d="M123.6,759.49c-2,0-3.21-1.08-3.21-2.48,0-1.72,1.84-4.36,4.25-6.35,2.49-2.15,7.23-4.52,9.8-4.52a1.4,1.4,0,0,1,1.45,1,52,52,0,0,1,1.28,9.85c0,.59-.64,1-1.52,1s-1.53-.43-1.53-1c0-.32-.08-.86-.08-1.62C129.38,758.14,125.93,759.49,123.6,759.49Zm3.45-7.65c-1.6,1.35-3.61,3.94-3.61,5.23,0,.21.08.38.4.38.64,0,2.73-.33,8.27-3.72a1.74,1.74,0,0,1,1-.27,1.65,1.65,0,0,1,.72.11,46,46,0,0,0-.72-5.06A17.59,17.59,0,0,0,127.05,751.84Z"/><path class="cls-3" d="M149.78,758.09a1.46,1.46,0,0,1-1.52-.91c-.32-1.89-.48-3.72-.81-5.6-.72-.11-1.36-.49-1.36-1s.4-.81,1-1c-1.77-12.87-3-24.5-4.17-35l-.49-4.14c0-.54.65-1,1.61-1a1.41,1.41,0,0,1,1.45,1l.48,4c1.12,10.34,2.41,21.86,4.17,34.57,2.57-1,5-2.53,5.87-4.74a1.77,1.77,0,0,1,1.6-.81c.73,0,1.45.44,1.45,1-.64,2.1-2.25,4.09-7,6a33.82,33.82,0,0,1,7.95,3.29,28.9,28.9,0,0,0,3.94,1.78c.56.16.88.53.88.91s-.64,1-1.52,1a3,3,0,0,1-.65-.11,23,23,0,0,1-4.49-2,38.3,38.3,0,0,0-7.63-3.23l.72,5C151.31,757.55,150.67,758.09,149.78,758.09Z"/><path class="cls-3" d="M170.9,759.49c-2,0-3.21-1.08-3.21-2.48,0-1.72,1.85-4.36,4.26-6.35,2.49-2.15,7.23-4.52,9.8-4.52a1.4,1.4,0,0,1,1.44,1,51.31,51.31,0,0,1,1.29,9.85c0,.59-.64,1-1.53,1s-1.52-.43-1.52-1c0-.32-.08-.86-.08-1.62C176.69,758.14,173.23,759.49,170.9,759.49Zm3.46-7.65c-1.61,1.35-3.62,3.94-3.62,5.23,0,.21.08.38.41.38.64,0,2.73-.33,8.27-3.72a1.69,1.69,0,0,1,1-.27,1.71,1.71,0,0,1,.73.11,45.91,45.91,0,0,0-.73-5.06A17.54,17.54,0,0,0,174.36,751.84Z"/><path class="cls-3" d="M191.22,751.41a3,3,0,0,1-.72.11c-.8,0-1.44-.48-1.44-1.08,0-.37.32-.7.88-.86a18.32,18.32,0,0,0,6.83-3.34,2.16,2.16,0,0,1,1.2-.37c.72,0,1.45.43,1.45,1,0,10.07,1.28,20.09,1.68,30.86,0,.53-.64,1-1.52,1s-1.53-.43-1.53-1c-.32-9.42-1.2-18.9-1.61-28.65A20.42,20.42,0,0,1,191.22,751.41Zm4.5-25.2a1.64,1.64,0,0,1,1.61.86l.4,1.67c0,.54-.56,1.08-1.53,1.08a1.49,1.49,0,0,1-1.52-.86l-.4-1.72C194.28,726.7,194.84,726.21,195.72,726.21Z"/><path class="cls-3" d="M206.81,730.9c-.24-1.67-.65-2.26-.65-2.91,0-.43.49-1,1.53-1a1.57,1.57,0,0,1,1.53.8,23,23,0,0,1,.64,3c0,.48-.64,1-1.53,1C207.61,731.76,206.89,731.38,206.81,730.9Zm3.05,15.24c.72,0,1.44.37,1.52.91a28.18,28.18,0,0,0,1.29,4.85,14,14,0,0,1,1,4.2c0,.59-.72,1-1.52,1s-1.53-.43-1.53-1a12.65,12.65,0,0,0-.88-3.77,36,36,0,0,1-1.37-5.12C208.33,746.62,208.89,746.14,209.86,746.14Z"/><path class="cls-3" d="M225,745c0-.54.64-1,1.52-1s1.53.49,1.53,1c0,.75,0,1.66.08,2.58C234,745.06,239,742.8,241.5,742a2.88,2.88,0,0,1,.73-.11c.64,0,1.44.49,1.44,1,0,.37-.32.75-.88.91-2.33.76-7.23,3-14.3,6.14.24,2.32.64,4.58,1.12,6.95a1.32,1.32,0,0,1-1.44,1.07,1.63,1.63,0,0,1-1.61-.86,55.91,55.91,0,0,1-1-6.14c-.72,0-1.45-.37-1.45-1a1.07,1.07,0,0,1,.73-.91l.48-.22A35,35,0,0,1,225,745Z"/><path class="cls-3" d="M243.59,730.9c-.24-1.67-.64-2.26-.64-2.91,0-.43.48-1,1.52-1a1.56,1.56,0,0,1,1.53.8,23,23,0,0,1,.64,3c0,.48-.64,1-1.53,1C244.39,731.76,243.67,731.38,243.59,730.9Zm3,15.24c.72,0,1.45.37,1.53.91a27.36,27.36,0,0,0,1.28,4.85,14,14,0,0,1,1,4.2c0,.59-.73,1-1.53,1s-1.53-.43-1.53-1a12.65,12.65,0,0,0-.88-3.77,37.39,37.39,0,0,1-1.37-5.12C245.11,746.62,245.68,746.14,246.64,746.14Z"/><path class="cls-3" d="M280.21,724.87a1.58,1.58,0,0,1-1.44.64c-.81,0-1.53-.37-1.53-1a.66.66,0,0,1,.08-.38,15.06,15.06,0,0,1,4.66-5c-.08-1.29-.08-2.48-.08-3.39,0-.54.64-1,1.53-1s1.52.49,1.52,1v1.77a26,26,0,0,1,11.33-2.42c9.8,0,15.58,4.58,15.58,11.2a20,20,0,0,1-4.34,11.9,39.46,39.46,0,0,1-20,13.57c0,1.62.08,3.23.08,4.79,0,.6-.72,1-1.52,1s-1.53-.43-1.53-1c0-1.34,0-2.8-.08-4.2a15.75,15.75,0,0,1-1.61.11c-1.68,0-3.29-.21-3.29-1.18,0-.49.64-1,1.53-1a.93.93,0,0,1,.4.06,5.2,5.2,0,0,0,1.28.1,9.09,9.09,0,0,0,1.61-.1c-.24-7.49-1-15.19-1.53-21.65l-.64-6.46A11.48,11.48,0,0,0,280.21,724.87Zm24.58,12.44a18.67,18.67,0,0,0,4-10.94c0-5.22-3.94-9.2-12.61-9.2A22.28,22.28,0,0,0,285.11,720c.16,2.42.48,5.39.81,8.56.56,6.25,1.2,13.73,1.52,21A35.52,35.52,0,0,0,304.79,737.31Z"/><path class="cls-3" d="M317.4,730.9c-.24-1.67-.64-2.26-.64-2.91,0-.43.48-1,1.52-1a1.56,1.56,0,0,1,1.53.8,23,23,0,0,1,.64,3c0,.48-.64,1-1.53,1C318.2,731.76,317.48,731.38,317.4,730.9Zm3.05,15.24c.72,0,1.45.37,1.53.91a27.36,27.36,0,0,0,1.28,4.85,14,14,0,0,1,1,4.2c0,.59-.73,1-1.53,1s-1.53-.43-1.53-1a12.65,12.65,0,0,0-.88-3.77,37.39,37.39,0,0,1-1.37-5.12C318.92,746.62,319.49,746.14,320.45,746.14Z"/><path class="cls-3" d="M336,759.49c-2,0-3.21-1.08-3.21-2.48,0-1.72,1.84-4.36,4.25-6.35,2.49-2.15,7.23-4.52,9.8-4.52a1.4,1.4,0,0,1,1.45,1,52.12,52.12,0,0,1,1.29,9.85c0,.59-.65,1-1.53,1s-1.53-.43-1.53-1c0-.32-.08-.86-.08-1.62C341.73,758.14,338.28,759.49,336,759.49Zm3.45-7.65c-1.6,1.35-3.61,3.94-3.61,5.23,0,.21.08.38.4.38.64,0,2.73-.33,8.27-3.72a1.74,1.74,0,0,1,1.05-.27,1.65,1.65,0,0,1,.72.11,46,46,0,0,0-.72-5.06A17.59,17.59,0,0,0,339.4,751.84Z"/><path class="cls-3" d="M371.77,747.64c4.26,0,7.63,3.45,10.76,7.7a1,1,0,0,1,.16.44c0,.48-.64,1-1.52,1a1.67,1.67,0,0,1-1.37-.59c-3.21-4.37-5.94-6.52-8.11-6.52-3.29,0-6.34,4.58-7.95,7.06a1.59,1.59,0,0,1-1.45.64c-.72,0-1.44-.43-1.44-1a9.48,9.48,0,0,0-4-7.11,1,1,0,0,1-.4-.7c0-.54.64-1,1.53-1a2,2,0,0,1,1.12.32,11.92,11.92,0,0,1,4,5.22C364.7,750.88,367.43,747.64,371.77,747.64Z"/><path class="cls-3" d="M394,757.61c-4.5,0-6.11-3.23-6.11-7.06,0-.54.65-1,1.53-1s1.53.48,1.53,1c0,1.13.16,5,3,5a8.27,8.27,0,0,0,3.85-1.29c2.17-1.24,2.9-2.59,2.9-3.56s-.89-1.67-2.33-1.67a10,10,0,0,0-4.74,1.57,2,2,0,0,1-1,.27c-.8,0-1.52-.44-1.52-1a.92.92,0,0,1,.48-.75,13.5,13.5,0,0,1,6.75-2.1c3,0,5.38,1.34,5.38,3.77,0,1.83-1.61,3.66-4,5A11.81,11.81,0,0,1,394,757.61Z"/><path class="cls-3" d="M442.21,757.12c-6.75,0-10.85-3.34-10.85-8.13,0-6.35,6.35-11.58,12.53-16.26a19.29,19.29,0,0,1-2-8.51c0-3.77,4.57-6.78,10.44-6.78,2.81,0,6.34.91,6.34,3.23,0,4-5.22,8-11.32,12.49,2.89,5.55,8.19,10.55,13.57,15.56a57.87,57.87,0,0,0,7.79-5.71,1.47,1.47,0,0,1,1.13-.37c.8,0,1.6.37,1.6,1a.84.84,0,0,1-.32.65,58.29,58.29,0,0,1-8.43,6.08l5.86,5.33a.68.68,0,0,1,.32.59c0,.49-.64,1-1.52,1a1.84,1.84,0,0,1-1.21-.43l-5.78-5.17C455.46,754.43,449,757.12,442.21,757.12ZM434.42,749c0,3.66,2.32,6.09,7.87,6.09,5.94,0,11.48-2.43,16.3-5-5.14-4.63-10.12-9.59-13.49-15.19C440.12,738.71,434.42,743.44,434.42,749Zm21.2-28.32c0-.92-2.09-1.19-3.29-1.19-3.94,0-7.39,1.89-7.39,4.74a16.47,16.47,0,0,0,1.36,6.68C451.12,727.24,455.62,723.79,455.62,720.67Z"/><path class="cls-3" d="M518.67,753.78a1.1,1.1,0,0,1-1,1,80.94,80.94,0,0,1-8.83.27h-8.52v1.67c0,.59-.72,1-1.52,1s-1.53-.43-1.53-1v-1.62c-.48,0-1,0-1.44,0-.81,0-1.53-.48-1.53-1s.72-1,1.53-1a12.88,12.88,0,0,0,1.52-.06c.24-3.77.56-7.54.89-11.3.32-3.56.64-7.11.72-10.67,0-1.34,0-2.74-.08-4.14h-1.05c-.8,0-1.52-.49-1.52-1s.72-1,1.52-1h1l-.56-4.79c0-.54.88-.92,1.52-.92a1.57,1.57,0,0,1,1.37.65,24,24,0,0,0,6.5,1.24,3.41,3.41,0,0,0,2.89-1.62,1.61,1.61,0,0,1,1.29-.48c.8,0,1.53.43,1.53,1a.79.79,0,0,1-.25.54,6.48,6.48,0,0,1-5.62,2.53,22.16,22.16,0,0,1-5.94-.92c.16.92.24,1.83.32,2.75,5.38.05,8.92.16,12.45.16,4.1,0,8.35-.11,12.37-.43.88,0,1.45.54,1.45,1s-.65,1-1.53,1c-3.53.32-7.15.43-12.69.43-4,0-8-.06-12-.11.08,1.72.08,3.45.08,4.63,0,4.09-.48,7.7-.8,11.31-.32,3.34-.56,6.73-.73,10.07h9.16c2.17,0,5.22,0,7.23-.22h.32C517.94,752.81,518.67,753.14,518.67,753.78Z"/><path class="cls-3" d="M536.74,744.58c0,6.19.16,11.3.4,14.37,0,.54-.56,1-1.45,1s-1.52-.44-1.6-1c-.24-3.07-.4-8-.4-14.11,0-9.21.4-21.06,1.6-33,0-.54.72-1,1.61-1s1.36.49,1.36,1.08C537.14,723.74,536.74,735.47,536.74,744.58Z"/><path class="cls-3" d="M556.74,756.15c1.6,0,4.49-1.13,8.67-4.36a1.9,1.9,0,0,1,1.12-.38c.73,0,1.53.49,1.53,1a1,1,0,0,1-.4.64c-2.49,2-6.83,5.06-10.92,5.06-3.86,0-5.31-2.42-5.31-5-.8.05-1.6.11-2.4.11-2.9,0-3.94-.22-3.94-1.14,0-.59.64-1,1.6-1,.81,0,1.69.11,2.42.11a24,24,0,0,0,2.73-.16,7.67,7.67,0,0,1,7.47-5.39c2.41,0,4.41.76,4.41,2.21,0,2.53-5.38,4.42-9.23,4.95v.44C554.49,754.11,554.73,756.15,556.74,756.15Zm2.57-8.51a4.79,4.79,0,0,0-4.26,3,13.71,13.71,0,0,0,4.9-1.83c.64-.43.88-.86.88-1A4.07,4.07,0,0,0,559.31,747.64Z"/><path class="cls-3" d="M587.9,746.84c0,.59-.72,1-1.53,1-2.41.27-5.14.7-7,1.83-1.44.86-2.49,2-2.49,3.61,0,1.29,1.37,2.37,3,2.37a9.12,9.12,0,0,0,5.46-2.26,1.37,1.37,0,0,1,1-.33c.72,0,1.61.43,1.61,1,0,.27-.16.48-.48.7a12.56,12.56,0,0,1-7.39,2.9c-3.78,0-6.19-2-6.19-4.63,0-1.88,1.45-3.82,3.78-5.06a22.76,22.76,0,0,1,8.75-2.21C587.26,745.81,587.9,746.35,587.9,746.84Z"/><path class="cls-3" d="M599.3,755.51c0,.59-.72,1-1.52,1a1.41,1.41,0,0,1-1.53-1,160.43,160.43,0,0,1-1.61-18.69h-8c-1,0-1.61-.48-1.61-1s.57-1,1.61-1h7.87c-.08-2.53-.08-5.06-.08-7.7,0-3.82.08-7.7.4-11.52,0-.59.65-1,1.53-1s1.53.43,1.53,1a113.73,113.73,0,0,0-.49,12.28c0,2.31.08,4.63.16,6.94h6c1,0,1.52.54,1.52,1s-.48,1-1.52,1h-5.87C597.94,743.07,598.5,749.31,599.3,755.51Z"/><path class="cls-3" d="M613.76,757.61c-4.5,0-6.11-3.23-6.11-7.06,0-.54.65-1,1.53-1s1.53.48,1.53,1c0,1.13.16,5,3,5a8.27,8.27,0,0,0,3.85-1.29c2.17-1.24,2.9-2.59,2.9-3.56s-.89-1.67-2.33-1.67a10,10,0,0,0-4.74,1.57,2,2,0,0,1-1,.27c-.8,0-1.52-.44-1.52-1a.92.92,0,0,1,.48-.75,13.5,13.5,0,0,1,6.75-2.1c3,0,5.38,1.34,5.38,3.77,0,1.83-1.61,3.66-4,5A11.78,11.78,0,0,1,613.76,757.61Z"/><path class="cls-3" d="M644.6,747.64c4.26,0,7.63,3.45,10.76,7.7a1,1,0,0,1,.16.44c0,.48-.64,1-1.52,1a1.66,1.66,0,0,1-1.37-.59c-3.21-4.37-5.94-6.52-8.11-6.52-3.29,0-6.35,4.58-7.95,7.06a1.6,1.6,0,0,1-1.45.64c-.72,0-1.44-.43-1.44-1a9.48,9.48,0,0,0-4-7.11,1,1,0,0,1-.4-.7c0-.54.64-1,1.52-1a2,2,0,0,1,1.13.32,11.91,11.91,0,0,1,4,5.22C637.53,750.88,640.26,747.64,644.6,747.64Z"/><path class="cls-3" d="M671.74,756.15c1.61,0,4.5-1.13,8.68-4.36a1.9,1.9,0,0,1,1.12-.38c.73,0,1.53.49,1.53,1a1,1,0,0,1-.4.64c-2.49,2-6.83,5.06-10.93,5.06-3.85,0-5.3-2.42-5.3-5-.8.05-1.6.11-2.41.11-2.89,0-3.93-.22-3.93-1.14,0-.59.64-1,1.6-1,.81,0,1.69.11,2.41.11a24,24,0,0,0,2.74-.16,7.67,7.67,0,0,1,7.47-5.39c2.4,0,4.41.76,4.41,2.21,0,2.53-5.38,4.42-9.23,4.95v.44C669.5,754.11,669.74,756.15,671.74,756.15Zm2.58-8.51a4.79,4.79,0,0,0-4.26,3,13.71,13.71,0,0,0,4.9-1.83c.64-.43.88-.86.88-1A4.07,4.07,0,0,0,674.32,747.64Z"/><path class="cls-3" d="M711.26,721.37a43,43,0,0,0,6.1-3.66,2.15,2.15,0,0,1,1.21-.38c.8,0,1.61.48,1.61,1.08a1,1,0,0,1-.41.69q-.24,2.83-.24,6.31a258,258,0,0,0,2.09,30.26,1.4,1.4,0,0,1-1.53,1.13,1.69,1.69,0,0,1-1.68-.92c-.72-3-2.09-19-2.09-30.15,0-1.56,0-3,.08-4.31-1,.59-2.17,1.13-3.21,1.67-3.46,1.78-6.51,3.28-7.31,5.6-.08.43-.81.81-1.61.81a1.57,1.57,0,0,1-1.12-.38,35.84,35.84,0,0,0-3.22-2.21c-1.92-1.29-4.17-2.8-6.34-4.47v16c0,6.19,0,12.44.56,18.68,0,.49-.64,1.08-1.61,1.08-.8,0-1.52-.43-1.6-1-.48-3.77-.56-11-.56-18.79,0-4.1.08-8.19.08-12.39,0-2.1,0-4.2-.08-6.35,0-.65,1-1.24,2-1.24a1.61,1.61,0,0,1,1.21.43,76.72,76.72,0,0,0,8.67,6.52l1.53,1C705.4,724.38,708.37,722.82,711.26,721.37Z"/><path class="cls-3" d="M732.22,752.65c0,1.46.16,2.21.88,2.21a2.94,2.94,0,0,0,1.69-.7C736.48,753,738,751,738,749.58c0-.32-.24-.64-.24-1s.56-1,1.53-1a1.53,1.53,0,0,1,1.44.7,3.3,3.3,0,0,1,.24,1.29c0,2.43-2.08,5-5,6.52a6.26,6.26,0,0,1-3,.81c-2.73,0-3.85-1.73-3.85-4.31a20.58,20.58,0,0,1,.88-5.12,1.5,1.5,0,0,1,1.53-.86c.8,0,1.52.49,1.52,1.08A19.64,19.64,0,0,0,732.22,752.65Z"/><path class="cls-3" d="M759.53,757c0,5-6.51,9.85-14.7,10.07-.89,0-1.61-.43-1.61-1s.64-1.08,1.45-1.08c6.1-.1,11.8-3.71,11.8-8.07,0-3.29-3.93-5.5-8.75-6.09-.64-.05-1.21-.43-1.21-1a.86.86,0,0,1,.33-.65,22.87,22.87,0,0,1,5.3-3.34,2,2,0,0,1,.8-.16c.72,0,1.61.38,1.61,1,0,.33-.24.65-.73.87-1.12.54-2.08,1.13-3.37,1.77C755.91,750.39,759.53,753.3,759.53,757Z"/><path class="cls-3" d="M765.79,730.9c-.24-1.67-.64-2.26-.64-2.91,0-.43.48-1,1.52-1a1.55,1.55,0,0,1,1.53.8,23,23,0,0,1,.64,3c0,.48-.64,1-1.52,1S765.87,731.38,765.79,730.9Zm3.05,15.24c.72,0,1.45.37,1.53.91a27.36,27.36,0,0,0,1.28,4.85,14,14,0,0,1,1,4.2c0,.59-.73,1-1.53,1s-1.53-.43-1.53-1a12.65,12.65,0,0,0-.88-3.77,36.13,36.13,0,0,1-1.36-5.12C767.32,746.62,767.88,746.14,768.84,746.14Z"/><path class="cls-3" d="M794.14,746.84c0,.59-.72,1-1.53,1-2.41.27-5.14.7-7,1.83-1.45.86-2.49,2-2.49,3.61,0,1.29,1.36,2.37,3,2.37a9.09,9.09,0,0,0,5.46-2.26,1.37,1.37,0,0,1,1-.33c.73,0,1.61.43,1.61,1,0,.27-.16.48-.48.7a12.56,12.56,0,0,1-7.39,2.9c-3.78,0-6.19-2-6.19-4.63,0-1.88,1.45-3.82,3.78-5.06a22.76,22.76,0,0,1,8.75-2.21C793.5,745.81,794.14,746.35,794.14,746.84Z"/><path class="cls-3" d="M836.63,724.33c12,0,19.76,6.35,19.76,14.21,0,9.59-8.52,18.69-18.32,18.69a18.16,18.16,0,0,1-9.55-2.75.71.71,0,0,1-.41-.7c0-.53.49-1,1.45-1a2.57,2.57,0,0,1,1.12.27,13.24,13.24,0,0,0,7.39,2.15c7.55,0,15.26-7.32,15.26-16.69,0-7.27-7.22-12.17-16.7-12.17a35.6,35.6,0,0,0-14.14,3.12,1.72,1.72,0,0,1-.72.17c-.81,0-1.61-.54-1.61-1.08a.73.73,0,0,1,.24-.49,43.09,43.09,0,0,1,20.81-12.49,4.4,4.4,0,0,1,.8-.11c.72,0,1.52.43,1.52,1,0,.37-.24.7-.8.86-7.55,2-13.17,5.33-16.46,8.56A34,34,0,0,1,836.63,724.33Z"/><path class="cls-3" d="M875.26,746.84c0,.59-.73,1-1.53,1-2.41.27-5.14.7-7,1.83-1.44.86-2.49,2-2.49,3.61,0,1.29,1.37,2.37,3,2.37a9.12,9.12,0,0,0,5.46-2.26,1.37,1.37,0,0,1,1-.33c.72,0,1.61.43,1.61,1,0,.27-.16.48-.48.7a12.56,12.56,0,0,1-7.39,2.9c-3.78,0-6.19-2-6.19-4.63,0-1.88,1.45-3.82,3.78-5.06a22.76,22.76,0,0,1,8.75-2.21C874.62,745.81,875.26,746.35,875.26,746.84Z"/><path class="cls-3" d="M882.57,752.6c0-3.12-.09-7.59-.25-12.17-.16-6-.4-12.44-.4-18.2,0-3.34.08-6.41.24-9,0-.54.73-1,1.61-1s1.45.53,1.45,1.07c-.16,2.53-.25,5.6-.25,8.89,0,5.71.41,12.22.41,18.2,0,2,.08,3.88.08,5.65a4.25,4.25,0,0,1,3.29-1.61c2,0,3.86,1.24,5.46,3.77a20.12,20.12,0,0,1,2.73,6.94c0,.49-.56,1-1.52,1-.73,0-1.45-.38-1.53-.92a18.87,18.87,0,0,0-2.41-6.14c-1.28-2.15-1.93-2.64-2.65-2.64-1.93,0-2.33,2.53-3.29,9.37-.08.54-.08,1-.16,1.3a1.6,1.6,0,0,1-1.53.86c-.88,0-1.53-.43-1.53-1A23.62,23.62,0,0,0,882.57,752.6Z"/><path class="cls-3" d="M909.15,757.61c-4.5,0-6.11-3.23-6.11-7.06,0-.54.65-1,1.53-1s1.53.48,1.53,1c0,1.13.16,5,3,5a8.34,8.34,0,0,0,3.86-1.29c2.16-1.24,2.89-2.59,2.89-3.56S915,749,913.57,749a10.07,10.07,0,0,0-4.74,1.57,1.93,1.93,0,0,1-1,.27c-.8,0-1.52-.44-1.52-1a.92.92,0,0,1,.48-.75,13.5,13.5,0,0,1,6.75-2.1c3,0,5.38,1.34,5.38,3.77,0,1.83-1.61,3.66-4,5A11.78,11.78,0,0,1,909.15,757.61Z"/><path class="cls-3" d="M930.67,757.61c-4.49,0-6.1-3.23-6.1-7.06,0-.54.64-1,1.52-1s1.53.48,1.53,1c0,1.13.16,5,3,5a8.3,8.3,0,0,0,3.86-1.29c2.17-1.24,2.89-2.59,2.89-3.56s-.88-1.67-2.33-1.67a10.11,10.11,0,0,0-4.74,1.57,1.92,1.92,0,0,1-1,.27c-.81,0-1.53-.44-1.53-1a.92.92,0,0,1,.48-.75,13.5,13.5,0,0,1,6.75-2.1c3,0,5.38,1.34,5.38,3.77,0,1.83-1.6,3.66-4,5A11.81,11.81,0,0,1,930.67,757.61Z"/><path class="cls-3" d="M951.15,744.58c0,6.19.16,11.3.4,14.37,0,.54-.56,1-1.44,1s-1.53-.44-1.61-1c-.24-3.07-.4-8-.4-14.11,0-9.21.4-21.06,1.61-33,0-.54.72-1,1.6-1s1.37.49,1.37,1.08C951.55,723.74,951.15,735.47,951.15,744.58Z"/></svg>